<svg xmlns="http://www.w3.org/2000/svg" width="165.243" height="161.262" viewBox="0 0 165.243 161.262">
  <g id="icon_company1" transform="translate(1 -4)">
    <path id="パス_1" data-name="パス 1" d="M2,132.451V17H33.849" transform="translate(0 29.811)" fill="none" stroke="#abbad1" stroke-linecap="round" stroke-linejoin="round" stroke-width="6"/>
    <path id="パス_2" data-name="パス 2" d="M18,162.262V7h95.546V162.262" transform="translate(47.697)" fill="none" stroke="#abbad1" stroke-linecap="round" stroke-linejoin="round" stroke-width="6"/>
    <circle id="楕円形_1" data-name="楕円形 1" cx="8" cy="8" r="8" transform="translate(26 71)" fill="#004cb3"/>
    <circle id="楕円形_2" data-name="楕円形 2" cx="8" cy="8" r="8" transform="translate(90 71)" fill="#004cb3"/>
    <circle id="楕円形_3" data-name="楕円形 3" cx="8" cy="8" r="8" transform="translate(122 71)" fill="#004cb3"/>
    <circle id="楕円形_4" data-name="楕円形 4" cx="8" cy="8" r="8" transform="translate(122 39)" fill="#004cb3"/>
    <circle id="楕円形_5" data-name="楕円形 5" cx="8" cy="8" r="8" transform="translate(26 103)" fill="#004cb3"/>
    <circle id="楕円形_6" data-name="楕円形 6" cx="8" cy="8" r="8" transform="translate(90 103)" fill="#004cb3"/>
    <circle id="楕円形_7" data-name="楕円形 7" cx="8" cy="8" r="8" transform="translate(122 103)" fill="#004cb3"/>
    <circle id="楕円形_8" data-name="楕円形 8" cx="8" cy="8" r="8" transform="translate(26 135)" fill="#004cb3"/>
    <circle id="楕円形_9" data-name="楕円形 9" cx="8" cy="8" r="8" transform="translate(90 135)" fill="#004cb3"/>
    <circle id="楕円形_10" data-name="楕円形 10" cx="8" cy="8" r="8" transform="translate(122 135)" fill="#004cb3"/>
    <circle id="楕円形_11" data-name="楕円形 11" cx="8" cy="8" r="8" transform="translate(90 39)" fill="#004cb3"/>
  </g>
</svg>
