<?xml version="1.0" encoding="utf-8"?>
<!-- Generator: Adobe Illustrator 21.0.0, SVG Export Plug-In . SVG Version: 6.00 Build 0)  -->
<svg version="1.1" id="Layer_1" xmlns="http://www.w3.org/2000/svg" xmlns:xlink="http://www.w3.org/1999/xlink" x="0px" y="0px"
	 viewBox="0 0 160.9 209.6" style="enable-background:new 0 0 160.9 209.6;" xml:space="preserve">
<style type="text/css">
	.st0{fill:#014CB2;}
</style>
<path class="st0" d="M52.6,128.5c0-15.1,12.3-27.4,27.4-27.4s27.4,12.3,27.4,27.4c0,6.4-2.2,12.5-6.2,17.3c4.6,2.6,8.6,6,12,10.1
	h45.1c2.2,0,3.9-1.8,3.9-3.9V97.2c0-2.2-1.8-3.9-3.9-3.9H1.7c-2.2,0-3.9,1.8-3.9,3.9V152c0,2.2,1.8,3.9,3.9,3.9h45.1
	c3.3-4.1,7.4-7.5,12-10.1C54.8,140.9,52.6,134.8,52.6,128.5z M66.9,150.6c-6,2.4-11.2,6.4-15.1,11.6c-0.7,1-1.9,1.6-3.1,1.6h-47
	c-6.5,0-11.7-5.3-11.7-11.7V97.2c0-6.5,5.3-11.7,11.7-11.7h156.5c6.5,0,11.7,5.3,11.7,11.7V152c0,6.5-5.3,11.7-11.7,11.7h-47
	c-1.2,0-2.4-0.6-3.1-1.6c-3.9-5.2-9.1-9.2-15.1-11.6c-2.8-1.1-3.3-4.8-1-6.7c4.7-3.7,7.5-9.4,7.5-15.4c0-10.8-8.8-19.6-19.6-19.6
	c-10.8,0-19.6,8.8-19.6,19.6c0,6,2.7,11.7,7.5,15.4C70.3,145.7,69.7,149.4,66.9,150.6L66.9,150.6z M115.2,187.2v-3.9
	c0-14.5-8.9-27.4-22.1-32.7c-2.8-1.1-3.3-4.8-1-6.7c4.7-3.7,7.5-9.4,7.5-15.4c0-10.8-8.8-19.6-19.6-19.6c-10.8,0-19.6,8.8-19.6,19.6
	c0,6,2.7,11.7,7.5,15.4c2.4,1.9,1.8,5.6-1,6.7c-13.3,5.3-22.1,18.2-22.1,32.7v3.9H115.2z M123,183.3v7.8c0,2.2-1.8,3.9-3.9,3.9
	c0,0,0,0,0,0H40.9c-2.2,0-3.9-1.8-3.9-3.9v-7.8c0-15.8,8.6-29.9,21.8-37.5c-4-4.9-6.2-11-6.2-17.3c0-15.1,12.3-27.4,27.4-27.4
	s27.4,12.3,27.4,27.4c0,6.3-2.2,12.4-6.2,17.3C114.5,153.3,123,167.5,123,183.3L123,183.3z M113.2,85.4c-3.4-9.6-10.7-17.2-20.1-21
	c-2.8-1.1-3.3-4.8-1-6.7c4.7-3.7,7.5-9.4,7.5-15.4c0-10.8-8.8-19.6-19.6-19.6c-10.8,0-19.6,8.8-19.6,19.6c0,6,2.7,11.7,7.5,15.4
	c2.4,1.9,1.8,5.6-1,6.7c-9.4,3.8-16.7,11.4-20.1,21L113.2,85.4L113.2,85.4z M122.2,88.6c0.4,2.1-0.9,4.2-3.1,4.6
	c-0.3,0.1-0.5,0.1-0.8,0.1H41.7c-2.2,0-3.9-1.8-3.9-3.9c0-0.3,0-0.5,0.1-0.8c2.5-12.3,10.2-22.8,21-28.9c-4-4.9-6.2-11-6.2-17.3
	C52.6,27.3,64.9,15,80,15s27.4,12.3,27.4,27.4c0,6.4-2.2,12.5-6.2,17.3C111.9,65.8,119.7,76.3,122.2,88.6L122.2,88.6z"/>
</svg>
