<svg enable-background="new 0 0 361.7 73.5" viewBox="0 0 361.7 73.5" xmlns="http://www.w3.org/2000/svg" xmlns:xlink="http://www.w3.org/1999/xlink"><clipPath id="a"><path d="m0 0h361.7v73.5h-361.7z"/></clipPath><path clip-path="url(#a)" d="m219.5 58.6c0 3.4 2.8 6.3 6.3 6.3s6.3-2.8 6.3-6.3-2.8-6.3-6.3-6.3-6.3 2.8-6.3 6.3m.6 0c0-3.1 2.5-5.7 5.7-5.7 3.1 0 5.7 2.5 5.7 5.7 0 3.1-2.5 5.7-5.7 5.7-3.2-.1-5.7-2.6-5.7-5.7" fill="#004ea2"/><path clip-path="url(#a)" d="m226.2 56.1c.5 0 1.3.2 1.2 1.3-.1.8-.6.9-1.2.9h-2.1v-2.2zm-3 5.8h.9v-2.8h2.1c1.4 0 1 1.2 1.1 2 0 .3.1.5.2.8h1v-.2c-.3-.2-.3-.5-.3-1.3 0-1.1-.1-1.2-.8-1.7.7-.5.9-.8.9-1.6-.1-1.5-1.1-1.7-2.1-1.7h-2.9v6.5z" fill="#004ea2"/><path clip-path="url(#a)" d="m53.2 11.9-23 15.1s-2.2-6.3-6.5-6.3h-12s.6 1.5.2 3.6l-9.2 34.6c-.6 1.9-1.3 3.8-2.7 5.4h6c-.4-1-.5-2.3-.3-3.4l8.8-32.7h.3l4.4 12.6c-1.3 3.6-2.1 7.4-1.9 11.5.2 0 .3-.1.5-.3 1.8-5.4 6.6-10.1 11.2-13.7l22-14.5c10.6-8.3 12.9-19.4 12.9-19.4.7-2.1.9-4.4.9-4.4h-.6s-2 5.3-11 11.9" fill="#00a496"/><g fill="#004ea2"><path clip-path="url(#a)" d="m61.9 61.2c.3-2.1 3.6-12.9 3.6-12.9 4.2-.7 10.2 1.4 12.1-3.5-3.8.7-7.7-.6-11.2.9-.1 0-.3-.1-.2-.3 0 0 1.7-6.9 3.3-10.8 10-.6 11.4 1.1 11.4 1.1.3-1.4.6-3.9.6-3.9h-20.3c.2.9.5 2 .4 3.2l-7.5 26.5c-.4 1-1.4 1.8-1.8 2.8h20.8c1.2-1.3 1.9-3 2.8-4.5 0 0-1.6 1.4-6.1 1.4z"/><path clip-path="url(#a)" d="m126.8 61.2c.2-2.1 3.6-12.9 3.6-12.9 4.2-.7 10.2 1.4 12.1-3.5-3.9.7-7.7-.6-11.3.9-.1 0-.2-.1-.2-.3 0 0 1.7-6.9 3.2-10.8 9.9-.6 11.4 1.1 11.4 1.1.2-1.4.5-3.9.5-3.9h-20.2c.2.9.6 2 .4 3.2l-7.3 26.6c-.4 1-1.3 1.8-1.7 2.8h20.8c1.2-1.3 1.9-3 2.8-4.5 0 0-1.6 1.4-6.1 1.4h-8z"/><path clip-path="url(#a)" d="m77.3 64.4h10.1c-.6-2.4-.4-3.3-.4-3.3l6.5-23.6c1.6-5.1 3.1-5.7 3.1-5.7h-10.1s.5 2.3.2 4l-6.2 22.4s-.8 4.1-3.2 6.2"/><path clip-path="url(#a)" d="m114 34.8-7.1 26.6s-.1 1.1.4 2.9h-10.2c2.2-2.5 2.7-4.9 2.7-4.9l6.7-24.2c0-.7-.7-.6-.7-.6-3.4-.3-7.9 1.1-7.9 1.1l2.7-3.9h23.1s0 3-9.7 3"/><path clip-path="url(#a)" d="m163.7 34.8-7.2 26.6s-.1 1.1.4 2.9h-10.1c2.2-2.5 2.6-4.9 2.6-4.9l6.7-24.2c0-.7-.7-.6-.7-.6-3.4-.3-7.9 1.1-7.9 1.1l2.7-3.9h23.1s-.1 3-9.6 3"/><path clip-path="url(#a)" d="m32.9 64.4h13.6s-.7-1.7-.4-3.5l6.8-24.5c9.5-10.2 9.8-20.2 9.8-20.2h-.3c-1.7 4.7-8.9 10.1-8.9 10.1l-26.6 18.4c-6.9 5.2-13 12.4-12.9 21.3 0 0 .1.3.4.1 0 0 .7-2.8 7.3-8.1l16.7-11.3s.1 0 .1.3l-3.2 12.5c-.5 2.3-2.4 4.9-2.4 4.9"/><path clip-path="url(#a)" d="m170.6 39.7c1.7-7 9.1-8.2 9.1-8.2 3.8-.8 8-.3 11.7.3 0 0-.4 3.6-.9 5.9 0 0-1.8-4.9-6.7-4.3 0 0-5.6 0-6.4 4.9 0 0-1 1.6 5.4 5.9 0 0 5.9 3.7 5.4 8.9 0 0 .1 9.3-12.6 11.4 0 0-5.5.9-11.2-.6.1-.7 2-6 2-6 2.8 5 7.2 4.4 7.2 4.4 6.1-.3 7.3-5.4 7.3-5.4 1.2-2.8-1.9-4.8-1.9-4.8l-5.7-4.7c-4-3.5-2.7-7.7-2.7-7.7"/><path clip-path="url(#a)" d="m206.2 31.7s-1.6 1.9-2.3 4.2l-6 22.7s0 3.6 3.6 3.6c0 0 2.6.5 5.7-1.9l6.7-25.3c.2-1.3-.5-3.4-.5-3.4h10.2s-2.1 1.4-3.3 6.8l-5.9 22.6v.3l-.1 1c-.1.9 0 1 .4 2h-8.6l.9-2.7c-2.9 5.1-11.5 2.5-11.5 2.5-5.9-1.2-4.5-6.9-4.5-6.9l5.8-22.3c.3-1.3-.4-3.2-.4-3.2z"/><path clip-path="url(#a)" d="m267.4 29.9.1.2c-.4 1.6-.4 3.3-.9 4.8-2.6-4-7.7-4.1-11.8-3.3-3.3.7-5.2 2.3-7.9 6.2-2.8 3.9-4.2 11.4-3.8 17.7.4 2.9 2.4 5.5 5 6.7 2.5 1 6 .9 8.5-.4.6-1.4.8-3 1.3-4.4.5-2.6 1.6-5.1 1.9-7.7l-.2-.2c-1.1-.1-2.3.3-3.3-.1 1.8-3.6 6.4-2.5 9.8-2.8 1.3.2 2.7-.1 4-.3-.5 1.6-2.2 2.8-3.8 3-.5.1-1.4 0-1.4.8-1 4.2-2.2 8.4-3.4 12.6-3.1 2.1-6.8 2.4-10.6 2.4-5.1 0-10.6-2.5-12.4-7.7-1.7-4.5-1.2-10.4.3-14.8 1.3-3.4 3.4-6.5 6.2-9.1 6.1-5.2 14.8-4.9 22.4-3.6"/><path clip-path="url(#a)" d="m289 38.8c-.2 1.8-.6 3.5-.9 5.1-.7-.8-1.7-1.9-3-1.9-2.1.1-3.7 2-4.9 3.6-2.7 4-3.1 8.7-4.6 13.3-.3 1.6-1 3.4-.3 5l-.1.1c-2.2.2-4.4.1-6.5.1-.3 0-.2-.3-.1-.5 1.8-1.7 1.7-4.3 2.6-6.5.6-2.9 1.5-5.6 2.1-8.5.7-2.5 1.4-5.2 2-7.8.2-.7-.2-1.5-.2-2.2 1.7-.2 3.6 0 5.4 0 .3.2.1.5 0 .8-.3 1.6-.7 3.2-.9 4.7.5-.2.6-.9 1.1-1.4 1.9-2.8 4.7-5 8.2-4.2z"/><path clip-path="url(#a)" d="m311.2 43.2c-1-2.3-3.1-4.4-5.6-5-2.9-.9-5.9-.5-8.6.4-2.9.9-5.3 3.4-6.8 5.9-2.2 4.6-4.1 10.4-1.7 15.3 1.3 2.8 4.1 4.7 7 5.1 2.6.3 5-.1 7.2-.9 5-1.7 7.9-6.8 8.9-11.6 1-2.9.8-6.3-.4-9.2m-5.7 11.8c-1.1 3-2.7 6.8-6.2 7.6-1.7.3-3.7.5-5.1-.7-1.9-1.5-1.7-4.2-1.7-6.3.5-4.5 1.5-8.6 3.7-12.3 1.3-1.9 3.3-3.5 5.6-3.5 1.8-.1 3.5.4 4.4 2.1 1.9 4.2.4 9.1-.7 13.1"/><path clip-path="url(#a)" d="m359 40.4c-2.5-2.3-6.5-2.1-9.3-.7-.5-.3.1-.8-.4-1.1h-4.3c-.4.1-1-.2-1.2.3.1.7.4 1.4.3 2.2-1.5 5.9-2.9 11.7-4.5 17.6l-2.9 11.6-.7 1.7c-.3.6-.7 1.1-1 1.6 0 0 6.9 0 6.7 0-.7-2.2.3-4.4.8-6.5.3-1.1.4-2.3 1-3.3 2.1.7 4.5.6 6.7.4 5.3-.6 9.2-5.5 10.6-10.5 1.2-4.3 1.9-10.1-1.8-13.3m-3.5 14.6c-1 3.2-3.4 7.3-7.2 7.5-1.4.1-2.8-.2-4.1-.7-.3-.2-.2-.7-.1-1 1.2-5 2.6-9.8 3.7-14.8l.9-3.6c1.8-1.3 4.2-2 6.3-1.2.6.4 1.3.9 1.6 1.6 1.5 4.1-.1 8.3-1.1 12.2"/><path clip-path="url(#a)" d="m326.1 38.6-1.4 2.2-5 18.8c0 .9-.1 1.9.6 2.5 1.7 1.3 4.3.5 5.9-.6l.5-.9 5-19.5c.1-.8-.1-1.6-.2-2.5h8l-1.7 2.8-5.3 20.7c-.1.8 0 1.3.3 2h-6.7l.1-1c-3.2 1.9-8.7 2-11.4-.4-1.2-1.3-.9-3.4-.7-5l4.3-16.8c.1-.7 0-1.6-.2-2.4z"/></g></svg>