<svg 
 xmlns="http://www.w3.org/2000/svg"
 xmlns:xlink="http://www.w3.org/1999/xlink"
 width="26px" height="29px">
<path fill-rule="evenodd"  fill="rgb(9, 103, 216)"
 d="M25.508,23.648 L24.027,23.648 C23.988,23.746 23.947,23.842 23.902,23.940 L24.950,24.966 C25.143,25.154 25.143,25.461 24.950,25.650 L22.727,27.826 C22.534,28.015 22.221,28.015 22.027,27.826 L20.979,26.800 C20.880,26.844 20.781,26.885 20.681,26.923 L20.681,28.372 C20.681,28.639 20.460,28.856 20.186,28.856 L17.043,28.856 C16.770,28.856 16.548,28.639 16.548,28.372 L16.548,26.923 C16.448,26.885 16.349,26.844 16.250,26.800 L15.202,27.826 C15.009,28.015 14.695,28.015 14.502,27.826 L12.279,25.650 C12.186,25.560 12.134,25.436 12.134,25.308 C12.134,25.181 12.186,25.057 12.279,24.966 L13.328,23.940 C13.283,23.842 13.241,23.745 13.203,23.648 L11.722,23.648 C11.448,23.648 11.227,23.430 11.227,23.163 L11.227,20.087 C11.227,19.819 11.448,19.602 11.722,19.602 L13.203,19.602 C13.241,19.505 13.283,19.407 13.328,19.311 L12.279,18.284 C12.186,18.194 12.134,18.070 12.134,17.941 C12.134,17.814 12.186,17.690 12.279,17.599 L14.502,15.423 C14.595,15.333 14.721,15.282 14.852,15.282 C14.983,15.282 15.109,15.333 15.202,15.423 L16.250,16.450 C16.349,16.406 16.448,16.366 16.548,16.328 L16.548,14.878 C16.548,14.610 16.770,14.393 17.043,14.393 L20.186,14.393 C20.460,14.393 20.681,14.610 20.681,14.878 L20.681,16.328 C20.781,16.366 20.880,16.406 20.979,16.450 L22.027,15.423 C22.221,15.235 22.534,15.235 22.727,15.423 L24.950,17.599 C25.143,17.788 25.143,18.095 24.950,18.284 L23.902,19.311 C23.946,19.407 23.988,19.505 24.027,19.602 L25.508,19.602 C25.781,19.602 26.002,19.819 26.002,20.087 L26.002,23.163 C26.002,23.430 25.781,23.648 25.508,23.648 ZM25.013,20.571 L23.675,20.571 C23.459,20.571 23.267,20.432 23.203,20.230 C23.119,19.966 23.005,19.700 22.864,19.439 C22.763,19.251 22.799,19.020 22.952,18.870 L23.900,17.941 L22.377,16.451 L21.429,17.379 C21.276,17.529 21.040,17.565 20.848,17.465 C20.582,17.328 20.310,17.216 20.040,17.134 C19.833,17.071 19.691,16.884 19.691,16.671 L19.691,15.362 L17.538,15.362 L17.538,16.671 C17.538,16.884 17.397,17.071 17.190,17.134 C16.919,17.216 16.647,17.328 16.381,17.465 C16.189,17.565 15.953,17.529 15.800,17.379 L14.852,16.451 L13.329,17.941 L14.277,18.870 C14.431,19.020 14.466,19.251 14.365,19.439 C14.224,19.700 14.111,19.966 14.027,20.230 C13.962,20.432 13.771,20.571 13.554,20.571 L12.216,20.571 L12.216,22.680 L13.554,22.680 C13.771,22.680 13.962,22.817 14.027,23.019 C14.110,23.284 14.224,23.551 14.365,23.812 C14.466,24.000 14.431,24.229 14.277,24.380 L13.329,25.308 L14.852,26.798 L15.800,25.872 C15.952,25.721 16.188,25.685 16.380,25.784 C16.648,25.922 16.920,26.034 17.190,26.116 C17.397,26.179 17.538,26.367 17.538,26.578 L17.538,27.887 L19.691,27.887 L19.691,26.578 C19.691,26.367 19.833,26.179 20.040,26.116 C20.309,26.034 20.581,25.922 20.849,25.784 C21.041,25.685 21.276,25.721 21.429,25.872 L22.377,26.798 L23.900,25.308 L22.952,24.380 C22.799,24.229 22.763,24.000 22.864,23.812 C23.005,23.551 23.119,23.284 23.203,23.019 C23.267,22.817 23.459,22.680 23.675,22.680 L25.013,22.680 L25.013,20.571 ZM18.615,25.504 C16.429,25.504 14.651,23.764 14.651,21.625 C14.651,19.485 16.429,17.745 18.615,17.745 C20.800,17.745 22.578,19.485 22.578,21.625 C22.578,23.764 20.800,25.504 18.615,25.504 ZM18.615,18.714 C16.975,18.714 15.641,20.020 15.641,21.625 C15.641,23.229 16.975,24.536 18.615,24.536 C20.254,24.536 21.588,23.229 21.588,21.625 C21.588,20.020 20.254,18.714 18.615,18.714 ZM3.184,23.087 L9.723,23.087 C9.997,23.087 10.218,23.304 10.218,23.571 C10.218,23.839 9.997,24.056 9.723,24.056 L3.184,24.056 C2.911,24.056 2.689,23.839 2.689,23.571 C2.689,23.304 2.911,23.087 3.184,23.087 ZM3.184,20.189 L9.723,20.189 C9.997,20.189 10.218,20.406 10.218,20.673 C10.218,20.941 9.997,21.158 9.723,21.158 L3.184,21.158 C2.911,21.158 2.689,20.941 2.689,20.673 C2.689,20.406 2.911,20.189 3.184,20.189 ZM10.696,18.260 L3.184,18.260 C2.911,18.260 2.689,18.044 2.689,17.777 C2.689,17.508 2.911,17.291 3.184,17.291 L10.696,17.291 C10.969,17.291 11.191,17.508 11.191,17.777 C11.191,18.044 10.969,18.260 10.696,18.260 ZM2.468,9.256 C2.468,7.582 3.860,6.219 5.570,6.219 C7.280,6.219 8.672,7.582 8.672,9.256 C8.672,10.930 7.280,12.292 5.570,12.292 C3.860,12.292 2.468,10.930 2.468,9.256 ZM7.682,9.256 C7.682,8.116 6.735,7.188 5.570,7.188 C4.406,7.188 3.458,8.116 3.458,9.256 C3.458,10.395 4.406,11.323 5.570,11.323 C6.735,11.323 7.682,10.395 7.682,9.256 ZM13.435,15.362 L3.184,15.362 C2.911,15.362 2.689,15.145 2.689,14.878 C2.689,14.610 2.911,14.393 3.184,14.393 L13.435,14.393 C13.708,14.393 13.930,14.610 13.930,14.878 C13.930,15.145 13.708,15.362 13.435,15.362 ZM15.556,12.292 L10.961,12.292 C10.687,12.292 10.466,12.075 10.466,11.807 C10.466,11.540 10.687,11.323 10.961,11.323 L15.556,11.323 C15.829,11.323 16.051,11.540 16.051,11.807 C16.051,12.075 15.829,12.292 15.556,12.292 ZM15.556,7.620 L10.961,7.620 C10.687,7.620 10.466,7.404 10.466,7.136 C10.466,6.868 10.687,6.652 10.961,6.652 L15.556,6.652 C15.829,6.652 16.051,6.868 16.051,7.136 C16.051,7.404 15.829,7.620 15.556,7.620 ZM15.556,9.956 L10.961,9.956 C10.687,9.956 10.466,9.739 10.466,9.472 C10.466,9.204 10.687,8.987 10.961,8.987 L15.556,8.987 C15.829,8.987 16.051,9.204 16.051,9.472 C16.051,9.739 15.829,9.956 15.556,9.956 ZM22.096,14.151 C21.822,14.151 21.601,13.935 21.601,13.667 L21.601,0.970 L4.828,0.970 L4.828,1.884 L20.173,1.884 C20.447,1.884 20.668,2.100 20.668,2.368 L20.668,12.499 L20.668,12.802 C20.668,13.070 20.447,13.286 20.173,13.286 C19.900,13.286 19.679,13.070 19.679,12.802 L19.679,12.499 L19.679,2.852 L4.333,2.852 L2.906,2.852 L2.906,3.765 L18.251,3.765 C18.525,3.765 18.746,3.982 18.746,4.249 L18.746,12.802 C18.746,13.070 18.525,13.287 18.251,13.287 C17.978,13.287 17.756,13.070 17.756,12.802 L17.756,4.734 L2.411,4.734 L0.984,4.734 L0.984,28.028 L13.788,28.028 C14.062,28.028 14.283,28.246 14.283,28.513 C14.283,28.780 14.062,28.997 13.788,28.997 L0.489,28.997 C0.215,28.997 -0.006,28.780 -0.006,28.513 L-0.006,4.249 C-0.006,3.982 0.215,3.765 0.489,3.765 L1.916,3.765 L1.916,2.368 C1.916,2.100 2.137,1.884 2.411,1.884 L3.838,1.884 L3.838,0.487 C3.838,0.218 4.060,0.002 4.333,0.002 L22.096,0.002 C22.369,0.002 22.591,0.218 22.591,0.487 L22.591,13.667 C22.591,13.935 22.369,14.151 22.096,14.151 Z"/>
</svg>