<svg 
 xmlns="http://www.w3.org/2000/svg"
 xmlns:xlink="http://www.w3.org/1999/xlink"
 width="28px" height="35px">
<path fill-rule="evenodd"  fill="rgb(9, 103, 216)"
 d="M12.947,19.713 C8.814,19.713 5.452,16.382 5.452,12.288 C5.452,8.194 8.814,4.862 12.947,4.862 C17.079,4.862 20.441,8.194 20.441,12.288 C20.441,16.382 17.079,19.713 12.947,19.713 ZM12.947,5.780 C9.325,5.780 6.378,8.699 6.378,12.288 C6.378,15.877 9.325,18.796 12.947,18.796 C16.568,18.796 19.515,15.877 19.515,12.288 C19.515,8.699 16.568,5.780 12.947,5.780 ZM16.195,10.118 C15.281,10.285 14.678,10.832 14.241,11.887 C13.762,13.043 13.451,14.339 13.316,15.741 C13.297,15.945 13.143,16.112 12.940,16.149 C12.912,16.154 12.883,16.156 12.855,16.156 C12.682,16.156 12.520,16.060 12.441,15.902 C12.102,15.224 11.561,14.606 10.878,14.115 C10.499,13.842 10.071,13.604 9.607,13.407 C9.373,13.306 9.264,13.037 9.365,12.804 C9.466,12.571 9.738,12.463 9.973,12.563 C10.500,12.788 10.987,13.060 11.422,13.373 C11.852,13.683 12.235,14.035 12.560,14.422 C12.739,13.395 13.015,12.429 13.384,11.538 C13.938,10.200 14.803,9.440 16.027,9.216 C16.278,9.169 16.520,9.334 16.566,9.583 C16.613,9.831 16.447,10.072 16.195,10.118 ZM28.004,24.850 C27.974,25.024 27.845,25.166 27.673,25.214 L23.356,26.414 L23.648,30.847 C23.660,31.023 23.568,31.191 23.412,31.278 C23.342,31.316 23.264,31.336 23.186,31.336 C23.092,31.336 22.998,31.308 22.918,31.251 L17.204,27.241 L17.204,34.540 C17.204,34.718 17.101,34.878 16.940,34.955 C16.876,34.985 16.808,34.999 16.741,34.999 C16.636,34.999 16.533,34.964 16.449,34.897 L12.963,32.094 L9.485,34.897 C9.346,35.008 9.155,35.031 8.994,34.955 C8.832,34.878 8.730,34.718 8.730,34.540 L8.730,24.378 C8.037,24.046 7.612,23.337 7.214,22.629 C6.933,22.128 6.641,21.609 6.295,21.360 C5.942,21.105 5.348,20.987 4.774,20.875 C4.631,20.847 4.489,20.819 4.348,20.789 C3.627,20.635 2.900,20.411 2.472,19.829 C2.091,19.310 2.073,18.668 2.101,18.166 C2.115,17.898 2.148,17.622 2.179,17.355 C2.248,16.775 2.319,16.174 2.182,15.753 C2.053,15.362 1.669,14.953 1.263,14.519 C0.671,13.888 0.000,13.174 0.000,12.288 C0.000,11.401 0.671,10.687 1.262,10.056 C1.669,9.623 2.053,9.214 2.182,8.822 C2.319,8.402 2.248,7.801 2.180,7.221 C2.076,6.342 1.968,5.433 2.473,4.746 C2.982,4.052 3.893,3.873 4.774,3.700 C5.348,3.588 5.942,3.471 6.295,3.216 C6.641,2.966 6.933,2.447 7.215,1.946 C7.655,1.163 8.110,0.354 8.945,0.085 C9.746,-0.173 10.576,0.205 11.379,0.572 C11.923,0.820 12.486,1.076 12.947,1.076 C13.407,1.076 13.969,0.820 14.514,0.572 C15.317,0.206 16.147,-0.173 16.948,0.085 C17.783,0.354 18.238,1.163 18.678,1.946 L18.770,2.108 C18.895,2.329 18.816,2.608 18.593,2.732 C18.370,2.857 18.087,2.778 17.962,2.557 L17.869,2.393 C17.516,1.765 17.151,1.115 16.662,0.957 C16.205,0.810 15.571,1.100 14.900,1.405 C14.266,1.694 13.610,1.994 12.947,1.994 C12.283,1.994 11.627,1.694 10.992,1.405 C10.321,1.100 9.688,0.811 9.231,0.957 C8.742,1.115 8.377,1.765 8.024,2.393 C7.693,2.980 7.351,3.590 6.840,3.958 C6.322,4.331 5.626,4.468 4.954,4.601 C4.215,4.746 3.518,4.883 3.221,5.286 C2.930,5.683 3.012,6.378 3.099,7.113 C3.180,7.792 3.263,8.494 3.062,9.106 C2.871,9.690 2.398,10.193 1.941,10.680 C1.442,11.213 0.926,11.762 0.926,12.288 C0.926,12.814 1.442,13.363 1.941,13.895 C2.398,14.382 2.871,14.885 3.062,15.470 C3.263,16.081 3.179,16.783 3.099,17.463 C3.068,17.726 3.038,17.976 3.025,18.216 C2.997,18.736 3.057,19.066 3.221,19.289 C3.466,19.622 4.002,19.776 4.544,19.892 C4.679,19.922 4.817,19.948 4.954,19.975 C5.627,20.107 6.322,20.244 6.840,20.618 C7.351,20.986 7.693,21.595 8.024,22.183 C8.376,22.812 8.742,23.460 9.231,23.618 C9.688,23.766 10.321,23.477 10.993,23.171 C11.627,22.881 12.283,22.582 12.946,22.582 C13.609,22.582 14.266,22.881 14.900,23.171 C15.571,23.477 16.205,23.766 16.662,23.618 C17.151,23.460 17.516,22.812 17.869,22.183 C18.200,21.595 18.542,20.986 19.053,20.618 C19.571,20.244 20.266,20.108 20.939,19.975 C21.022,19.959 21.101,19.941 21.183,19.925 C21.191,19.923 21.198,19.921 21.206,19.920 C21.840,19.791 22.412,19.643 22.672,19.289 C22.963,18.892 22.881,18.198 22.794,17.463 C22.713,16.783 22.630,16.081 22.831,15.471 C23.022,14.886 23.495,14.382 23.952,13.895 C24.451,13.363 24.967,12.814 24.967,12.288 C24.967,11.762 24.451,11.213 23.952,10.680 C23.495,10.193 23.022,9.690 22.831,9.106 C22.630,8.494 22.713,7.792 22.794,7.113 C22.881,6.378 22.963,5.683 22.672,5.286 C22.375,4.883 21.678,4.746 20.939,4.601 C20.796,4.573 20.654,4.544 20.513,4.514 C20.263,4.461 20.104,4.216 20.159,3.969 C20.213,3.721 20.459,3.564 20.709,3.618 C20.844,3.647 20.982,3.673 21.119,3.700 C22.000,3.874 22.911,4.052 23.421,4.746 C23.925,5.433 23.817,6.342 23.713,7.221 C23.645,7.801 23.574,8.402 23.711,8.822 C23.840,9.214 24.224,9.623 24.630,10.056 C25.222,10.687 25.893,11.401 25.893,12.288 C25.893,13.174 25.222,13.888 24.630,14.519 C24.224,14.953 23.840,15.363 23.711,15.754 C23.574,16.174 23.645,16.775 23.713,17.355 C23.817,18.234 23.925,19.142 23.420,19.829 C23.154,20.192 22.776,20.411 22.352,20.565 L27.815,24.397 C27.961,24.499 28.034,24.675 28.004,24.850 ZM16.278,24.563 C15.689,24.531 15.094,24.269 14.513,24.005 C13.969,23.756 13.407,23.501 12.946,23.501 C12.486,23.501 11.923,23.756 11.379,24.005 C10.812,24.263 10.230,24.517 9.656,24.559 L9.656,33.576 L12.670,31.148 C12.841,31.011 13.084,31.011 13.254,31.147 L16.278,33.577 L16.278,24.563 ZM21.175,20.863 C21.156,20.867 21.138,20.871 21.119,20.875 C20.545,20.987 19.951,21.105 19.598,21.360 C19.252,21.609 18.960,22.128 18.678,22.629 C18.288,23.323 17.871,24.016 17.204,24.357 L17.204,26.117 L22.661,29.947 L22.408,26.103 C22.394,25.887 22.534,25.690 22.745,25.631 L26.488,24.590 L21.175,20.863 Z"/>
</svg>