<svg 
 xmlns="http://www.w3.org/2000/svg"
 xmlns:xlink="http://www.w3.org/1999/xlink"
 width="35px" height="27px">
<path fill-rule="evenodd"  fill="rgb(9, 103, 216)"
 d="M34.425,26.997 L26.803,26.997 C26.484,26.997 26.226,26.735 26.226,26.412 C26.226,26.089 26.484,25.827 26.803,25.827 L31.389,25.827 L31.389,23.609 C31.389,23.287 31.647,23.025 31.967,23.025 C32.286,23.025 32.544,23.287 32.544,23.609 L32.544,25.827 L33.848,25.827 L33.848,22.796 C33.848,21.350 32.687,20.174 31.260,20.174 L30.348,20.174 C30.346,20.277 30.301,20.366 30.271,20.461 C30.251,20.525 30.251,20.595 30.219,20.655 C30.167,20.751 30.080,20.828 30.000,20.910 C29.956,20.955 29.929,21.010 29.878,21.050 C29.775,21.129 29.645,21.182 29.518,21.237 C29.465,21.260 29.424,21.296 29.368,21.315 C29.175,21.377 28.963,21.411 28.738,21.411 C28.513,21.411 28.300,21.377 28.107,21.315 C28.050,21.296 28.009,21.260 27.956,21.236 C27.829,21.181 27.699,21.129 27.598,21.050 C27.545,21.009 27.517,20.953 27.472,20.907 C27.394,20.826 27.307,20.750 27.256,20.655 C27.223,20.595 27.224,20.524 27.204,20.459 C27.174,20.365 27.129,20.276 27.127,20.174 L25.913,20.174 C25.594,20.174 25.335,19.912 25.335,19.590 C25.335,19.267 25.594,19.004 25.913,19.004 L27.127,19.004 L27.127,18.886 C26.770,18.600 26.414,18.182 26.096,17.573 C25.676,16.768 25.454,15.816 25.454,14.822 L25.454,13.947 C25.454,13.840 25.483,13.734 25.538,13.642 C25.844,13.134 27.208,12.185 28.725,12.185 C30.265,12.185 32.021,13.165 32.021,14.025 L32.021,14.822 C32.021,15.816 31.799,16.768 31.379,17.573 C31.061,18.182 30.706,18.597 30.348,18.882 L30.348,19.004 L31.260,19.004 C33.324,19.004 35.003,20.705 35.003,22.796 L35.003,26.412 C35.003,26.735 34.744,26.997 34.425,26.997 ZM28.282,19.590 L28.282,20.112 C28.334,20.158 28.488,20.242 28.738,20.242 C28.987,20.242 29.142,20.158 29.193,20.112 L29.193,19.590 L29.193,19.411 C29.182,19.413 29.170,19.412 29.159,19.413 C29.032,19.432 28.909,19.444 28.794,19.444 C28.769,19.444 28.745,19.444 28.721,19.443 C28.588,19.448 28.440,19.436 28.286,19.411 C28.284,19.411 28.283,19.411 28.282,19.411 L28.282,19.590 ZM30.358,17.025 C30.691,16.389 30.866,15.626 30.866,14.822 L30.866,14.147 C30.651,13.906 29.801,13.356 28.725,13.356 C27.734,13.356 26.898,13.903 26.609,14.166 L26.609,14.822 C26.609,15.626 26.785,16.389 27.117,17.025 C27.423,17.612 27.782,17.983 28.178,18.156 C28.221,18.175 28.263,18.200 28.307,18.214 C28.442,18.256 28.579,18.280 28.721,18.274 C28.877,18.279 29.024,18.255 29.166,18.212 C29.200,18.201 29.231,18.183 29.263,18.169 C29.681,18.003 30.045,17.626 30.358,17.025 ZM28.441,11.639 C28.407,11.645 28.374,11.648 28.340,11.648 C28.065,11.648 27.822,11.448 27.772,11.164 C27.169,7.696 23.145,5.716 23.105,5.696 C22.817,5.557 22.695,5.208 22.832,4.917 C22.968,4.625 23.312,4.501 23.600,4.640 C23.788,4.729 28.201,6.893 28.909,10.961 C28.965,11.279 28.755,11.583 28.441,11.639 ZM19.385,16.797 L19.385,17.187 L20.695,17.187 C23.224,17.187 25.281,19.272 25.281,21.834 L25.281,26.414 C25.281,26.737 25.023,26.999 24.704,26.999 L9.912,26.999 C9.593,26.999 9.335,26.737 9.335,26.414 L9.335,21.834 C9.335,19.272 11.392,17.187 13.921,17.187 L15.614,17.187 L15.614,16.802 C15.114,16.418 14.667,15.865 14.289,15.143 C13.769,14.148 13.494,12.967 13.494,11.732 L13.494,10.626 C13.494,10.518 13.523,10.413 13.578,10.322 C13.880,9.818 15.485,8.551 17.483,8.551 C19.517,8.551 21.505,9.794 21.505,10.723 L21.505,11.732 C21.505,12.967 21.230,14.147 20.710,15.143 C20.333,15.865 19.887,16.414 19.385,16.797 ZM13.921,18.358 C12.029,18.358 10.489,19.917 10.489,21.834 L10.489,25.829 L12.449,25.829 L12.449,22.864 C12.449,22.541 12.707,22.279 13.026,22.279 C13.345,22.279 13.604,22.541 13.604,22.864 L13.604,25.829 L21.013,25.829 L21.013,22.864 C21.013,22.541 21.271,22.279 21.590,22.279 C21.909,22.279 22.167,22.541 22.167,22.864 L22.167,25.829 L24.126,25.829 L24.126,21.834 C24.126,19.917 22.587,18.358 20.695,18.358 L19.385,18.358 L19.385,18.493 C19.385,19.295 18.557,19.924 17.500,19.924 C16.442,19.924 15.614,19.295 15.614,18.493 L15.614,18.358 L13.921,18.358 ZM18.231,17.769 L18.231,17.357 C18.205,17.363 18.177,17.360 18.151,17.365 C17.953,17.405 17.750,17.430 17.540,17.428 C17.526,17.428 17.514,17.433 17.500,17.432 C17.495,17.432 17.491,17.431 17.487,17.431 C17.486,17.431 17.484,17.431 17.483,17.431 C17.455,17.432 17.425,17.433 17.396,17.433 C17.189,17.433 16.987,17.403 16.789,17.359 C16.782,17.357 16.775,17.358 16.769,17.357 L16.769,17.773 L16.769,18.493 C16.791,18.560 17.051,18.755 17.500,18.755 C17.948,18.755 18.208,18.560 18.232,18.485 L18.230,17.773 C18.230,17.772 18.231,17.771 18.231,17.769 ZM20.351,10.821 C20.132,10.539 18.977,9.720 17.483,9.720 C16.104,9.720 14.982,10.511 14.649,10.836 L14.649,11.732 C14.649,12.777 14.878,13.769 15.310,14.597 C15.715,15.371 16.179,15.855 16.710,16.089 C16.776,16.120 16.842,16.156 16.910,16.177 C17.093,16.233 17.283,16.267 17.483,16.263 C17.693,16.268 17.896,16.236 18.091,16.174 C18.116,16.166 18.140,16.151 18.165,16.142 C18.745,15.928 19.260,15.417 19.689,14.596 C20.122,13.768 20.351,12.777 20.351,11.732 L20.351,10.821 ZM18.077,5.139 L18.077,7.328 C18.077,7.650 17.819,7.912 17.500,7.912 C17.181,7.912 16.922,7.650 16.922,7.328 L16.922,5.139 C16.922,4.816 17.181,4.553 17.500,4.553 C17.819,4.553 18.077,4.816 18.077,5.139 ZM17.500,4.045 C16.398,4.045 15.503,3.138 15.503,2.022 C15.503,0.907 16.398,-0.000 17.500,-0.000 C18.601,-0.000 19.496,0.907 19.496,2.022 C19.496,3.138 18.601,4.045 17.500,4.045 ZM17.500,1.170 C17.036,1.170 16.658,1.552 16.658,2.022 C16.658,2.492 17.036,2.875 17.500,2.875 C17.964,2.875 18.342,2.492 18.342,2.022 C18.342,1.552 17.964,1.170 17.500,1.170 ZM11.895,5.696 C11.854,5.716 7.831,7.696 7.227,11.164 C7.178,11.448 6.934,11.648 6.659,11.648 C6.626,11.648 6.592,11.645 6.558,11.639 C6.244,11.583 6.034,11.279 6.090,10.961 C6.798,6.893 11.212,4.729 11.399,4.640 C11.688,4.501 12.031,4.625 12.168,4.917 C12.305,5.208 12.182,5.557 11.895,5.696 ZM9.461,13.643 C9.517,13.734 9.545,13.840 9.545,13.947 L9.545,14.822 C9.545,15.816 9.323,16.768 8.903,17.573 C8.585,18.181 8.231,18.598 7.872,18.883 L7.872,19.004 L9.087,19.004 C9.406,19.004 9.664,19.267 9.664,19.590 C9.664,19.912 9.406,20.174 9.087,20.174 L7.872,20.174 C7.870,20.277 7.825,20.366 7.795,20.461 C7.775,20.525 7.776,20.596 7.743,20.655 C7.691,20.751 7.604,20.828 7.524,20.910 C7.480,20.955 7.453,21.010 7.402,21.050 C7.299,21.129 7.169,21.182 7.041,21.238 C6.989,21.260 6.948,21.296 6.892,21.315 C6.699,21.377 6.486,21.411 6.261,21.411 C6.037,21.411 5.824,21.377 5.631,21.315 C5.572,21.296 5.530,21.258 5.475,21.234 C5.350,21.179 5.222,21.128 5.122,21.050 C5.068,21.009 5.040,20.951 4.994,20.904 C4.917,20.824 4.831,20.749 4.780,20.655 C4.747,20.595 4.748,20.523 4.727,20.458 C4.698,20.364 4.653,20.276 4.652,20.174 L3.740,20.174 C2.313,20.174 1.152,21.350 1.152,22.796 L1.152,25.827 L2.455,25.827 L2.455,23.609 C2.455,23.287 2.714,23.025 3.033,23.025 C3.352,23.025 3.610,23.287 3.610,23.609 L3.610,25.827 L8.196,25.827 C8.515,25.827 8.774,26.089 8.774,26.412 C8.774,26.735 8.515,26.997 8.196,26.997 L0.574,26.997 C0.255,26.997 -0.003,26.735 -0.003,26.412 L-0.003,22.796 C-0.003,20.705 1.676,19.004 3.740,19.004 L4.652,19.004 L4.652,18.883 C4.294,18.597 3.939,18.182 3.620,17.573 C3.200,16.768 2.978,15.816 2.978,14.822 L2.978,14.025 C2.978,13.165 4.734,12.185 6.274,12.185 C7.793,12.185 9.156,13.135 9.461,13.643 ZM5.806,19.590 L5.806,20.112 C5.858,20.158 6.012,20.242 6.261,20.242 C6.511,20.242 6.666,20.158 6.717,20.112 L6.717,19.590 L6.717,19.411 C6.698,19.414 6.678,19.412 6.659,19.415 C6.525,19.434 6.395,19.444 6.275,19.442 C6.270,19.442 6.266,19.444 6.261,19.443 C6.260,19.443 6.258,19.443 6.256,19.443 C6.253,19.443 6.249,19.444 6.245,19.443 C6.223,19.444 6.199,19.444 6.176,19.444 C6.062,19.444 5.939,19.431 5.812,19.411 C5.810,19.411 5.808,19.411 5.806,19.411 L5.806,19.590 ZM4.133,14.147 L4.133,14.822 C4.133,15.626 4.309,16.389 4.641,17.025 C4.951,17.618 5.317,17.992 5.718,18.162 C5.755,18.178 5.792,18.200 5.830,18.212 C5.965,18.255 6.103,18.279 6.245,18.274 C6.403,18.279 6.552,18.256 6.696,18.210 C6.723,18.202 6.749,18.186 6.775,18.176 C7.198,18.011 7.566,17.631 7.883,17.025 C8.215,16.389 8.391,15.626 8.391,14.822 L8.391,14.163 C8.112,13.910 7.272,13.356 6.274,13.356 C5.198,13.356 4.348,13.906 4.133,14.147 Z"/>
</svg>