<?xml version="1.0" standalone="no"?><!DOCTYPE svg PUBLIC "-//W3C//DTD SVG 1.1//EN" "http://www.w3.org/Graphics/SVG/1.1/DTD/svg11.dtd"><svg class="icon" width="200px" height="200.00px" viewBox="0 0 1024 1024" version="1.1" xmlns="http://www.w3.org/2000/svg"><path d="M511.5 421.6c-102.3 0-185.5-81.5-185.5-181.7 0-100.2 83.2-181.7 185.5-181.7s185.6 81.5 185.6 181.7c0 100.2-83.3 181.7-185.6 181.7zM847.4 965C818 785.9 738.1 588.1 634.5 494.4l-1.4 1.1c-2.5 9-5.1 17.9-7.6 26.9-2.2 7.9-4.3 16-6.4 23.9-2.4 8.6-5 17.1-7.3 25.7-2.3 8-4.1 16-6.3 24-2.4 8.8-5 17.4-7.4 26.1-2.1 8-4 16.1-6.3 24.1-3.3 11.5-6.9 22.8-10.1 34.3-3.2 11.2-5.9 22.5-9.3 35.7-2.3-2.6-4.1-3.7-4.3-5.1-1.2-7.2-2.1-14.4-2.8-21.7-1.2-11.9-2-23.8-3.3-35.7-0.7-7.9-1.7-15.8-2.9-23.6-2.5-17.7-5.3-35.3-7.6-53-1.5-12.1-2.1-24.3-3.2-36.4-0.8-8.3-1.3-16.7-3.1-24.9-2.4-11.6-4.1-23.1-2.1-34.8 0.6-3.4 1.7-6.8 2.6-10.1 2.3-8.3 4.4-16.7 7.2-25-6.8-2-13.6-3.6-20.4-4.7-14.2 0-28.3 0-42.5 0.1-6 0.9-11.9 2.2-17.8 3.9 0 0.2-0.3 0.4-0.2 0.5 0.6 4.2 2.2 8.4 3.3 12.6 3.4 11.7 8.6 23.1 7.3 35.7-0.6 6.1-1.9 12.2-2.5 18.3-1.2 11.5-2.1 22.9-3.2 34.4-0.8 7.7-1.9 15.3-2.9 22.9l-5.2 39.4c-1 8.5-1.8 17.1-3 25.6-2.5 17-5.3 33.9-7.6 51-1.3 9.8-2.1 19.7-3.3 31.1-2.2-1.9-4.4-2.6-4.7-4-3.1-11.1-5.9-22.3-8.8-33.4-2.1-8.1-4.1-16.1-6.3-24.1-2.4-8.8-5-17.4-7.4-26.2-2.2-8-4-16.1-6.2-24.1-2.5-9-5.1-17.9-7.6-26.9-2-7.7-3.9-15.5-6.1-23.3-3.4-12.4-7-24.6-10.3-36.9-2.2-7.8-4.1-15.6-6.2-23.4l-1.1-1.1C285.5 586.4 205.1 785.1 175.6 965h671.8z" fill="#014cb2" /></svg>