<?xml version="1.0" encoding="utf-8"?>
<!-- Generator: Adobe Illustrator 21.0.0, SVG Export Plug-In . SVG Version: 6.00 Build 0)  -->
<svg version="1.1" id="Layer_1" xmlns="http://www.w3.org/2000/svg" xmlns:xlink="http://www.w3.org/1999/xlink" x="0px" y="0px"
	 viewBox="0 0 2113.2 588.9" style="enable-background:new 0 0 2113.2 588.9;" xml:space="preserve">
<style type="text/css">
	.st0{fill:#0700AA;}
	.st1{font-family:'STYuanti-SC-Bold';}
	.st2{font-size:290px;}
	.st3{fill:none;}
	.st4{fill:none;stroke:#0700AA;stroke-width:100;stroke-miterlimit:10;}
	.st5{fill:none;stroke:#0700AA;stroke-width:50;stroke-miterlimit:10;}
</style>
<text transform="matrix(1 0 0 1 474.8582 386.039)" class="st0 st1 st2">China直聘网</text>
<path class="st3" d="M535,211c0,151.4-124.3,274-278,274"/>
<path class="st3" d="M535,211c0-22.1-187.9-40-420-40"/>
<path class="st3" d="M535,211c0,146.9-93.9,265.8-210,265.8"/>
<path class="st4" d="M428,158.7c-90.1-73-225.3-66.3-298.2,6c-65.1,64.4-66.3,166.8-8.9,232c69.4,78.8,214.4,92,313.8,14"/>
<path class="st5" d="M269,163.3c0,81.1,0,162.3,0,243.4"/>
<path class="st5" d="M284.9,187.8c55.1,7,97.7,33.6,105.8,64.7c9.9,38.1-33.4,77-102.3,85.2"/>
</svg>
