<svg xmlns="http://www.w3.org/2000/svg" width="52.626" height="33.959" viewBox="0 0 52.626 33.959"><title>logo-v</title><path d="M26.3125,23.7959,10.8516,0H0L22.0586,33.959h8.5019L52.626,0H41.77832M43.292,1.4238h6.7109l-3.875,5.9629Zm-1.2246.7442,2.83792,5.9629h-6.712Zm-5.2823,8.1308,2.836,5.9688h-6.711Zm-5.2832,8.1367,2.8379,5.9688H27.625Zm-10.3769,0,3.8769,5.9688H18.2871Zm-5.2813-8.1357,3.8731,5.9678h-6.709ZM14.4355,8.1309H7.7246L10.5605,2.168ZM9.3379,1.4238,6.5,7.3877,2.623,1.4238Zm5.2812,8.1309-2.834,5.9687L7.9082,9.5547Zm5.2813,8.1367-2.836,5.9678-3.873-5.9678ZM22.3476,31.792l-3.8769-5.9639h6.7148Zm1.22472.7432,2.74018-5.7618,2.7422,5.7618Zm6.705-.7432L27.4414,25.8281h6.71292Zm5.28518-8.1318-2.8379-5.9688h6.7129Zm5.2832-8.1368L38.0098,9.5547h6.7119Z" style="fill:#fff"/></svg>