<svg xmlns="http://www.w3.org/2000/svg" width="352.88229" height="109.1826" viewBox="0 0 352.88229 109.1826"><title>logo_white</title><path d="M302.36479,33.4043a192.19534,192.19534,0,0,1-37.3306-30.5615L262.37359.001l-2.7159,2.7891c-18.9663,19.4804-50.8535,31.582-83.2168,31.582-32.3642,0-64.2505-12.1016-83.2172-31.582L90.50779,0l-2.6606,2.8428A192.18282,192.18282,0,0,1,50.5176,33.4043C32.3286,44.6797,15.3321,50.3975,0,50.3975v9.4219H352.88229V50.3975C337.55129,50.3975,320.55319,44.6797,302.36479,33.4043Zm-.8203,8.1543V52.3858h-14.0362V32.3799C292.00729,35.627,296.70459,38.7178,301.54449,41.5586Zm-21.4707-14.8193V52.3858h-14.0362V14.4366C270.31589,18.5635,275.02979,22.7178,280.07379,26.7393ZM94.27739,13.8936a103.12948,103.12948,0,0,0,14.0361,9.8984V52.3858H94.27739Zm21.4702,13.9297a127.961,127.961,0,0,0,14.0361,5.9404V52.3858h-14.0361Zm21.4702,8.3515a139.98051,139.98051,0,0,0,14.0356,3.3213V52.3858h-14.0356Zm21.4697,4.4815a139.89592,139.89592,0,0,0,14.0362,1.0937V52.3858h-14.0362Zm21.4702,1.0937a139.90742,139.90742,0,0,0,14.0362-1.0937V52.3858h-14.0362Zm21.4702-2.2539a140.00844,140.00844,0,0,0,14.0357-3.3213v16.211h-14.0357Zm21.4693-5.7324a127.886,127.886,0,0,0,14.0366-5.9404V52.3858h-14.0366Zm21.4707-9.9717A103.13021,103.13021,0,0,0,258.604,13.8936V52.3858H244.56789ZM86.84329,14.4366V52.3858H72.80809V26.7383C77.85259,22.7178,82.56539,18.5635,86.84329,14.4366ZM65.374,52.3858H51.3369V41.5596c4.84039-2.8408,9.5381-5.9316,14.0371-9.1797ZM43.9029,45.6621v6.7237H28.5772A128.57865,128.57865,0,0,0,43.9029,45.6621ZM308.978,52.3858V45.6612a128.45742,128.45742,0,0,0,15.32819,6.7246Z" style="fill:#fff"/><polygon points="24.004 97.864 9.686 72.316 0 72.316 21.07 108.8 26.939 108.8 48.009 72.316 38.323 72.316 24.004 97.864" style="fill:#fff"/><rect x="60.898" y="72.3155" width="8.48629" height="36.4843" style="fill:#fff"/><path d="M182.44089,77.0479q-5.373-4.73295-15.4853-4.7324H143.48v36.4843h21.28369q8.6982,0,13.0815-1.8379a15.47052,15.47052,0,0,0,7.4952-6.7168,20.06079,20.06079,0,0,0,2.4741-9.8984Q187.81449,81.7862,182.44089,77.0479Zm-7.4243,22.4189q-3.67815,2.4756-12.0918,2.4737h-10.958V78.8174h15.0601q12.0198,0,12.0205,11.3867Q179.04739,96.7813,175.01659,99.4668Z" style="fill:#fff"/><path d="M264.97269,73.8096a15.79611,15.79611,0,0,0-7.6533,6.8555A20.48529,20.48529,0,0,0,254.794,90.7725q0,8.7393,5.48529,13.5762,5.4852,4.8339,15.8111,4.8339H297.145V102.543H276.01709q-12.2724,0-12.2739-11.624,0-6.7164,4.1152-9.458,3.7581-2.5269,12.3443-2.5254H297.145V71.9317H278.32769Q269.44634,71.9317,264.97269,73.8096Z" style="fill:#fff"/><polygon points="308.834 72.316 308.834 78.817 326.582 78.817 326.582 108.8 335.067 108.8 335.067 78.817 352.882 78.817 352.882 72.316 308.834 72.316" style="fill:#fff"/><path d="M103.19139,72.3155,82.544,108.7998h8.48629l3.7173-7.0009h24.1909l3.8398,7.0009h9.5459l-20.9301-36.4843Zm11.9312,22.4072H98.60989l8.3994-15.335Z" style="fill:#fff"/><path d="M235.09179,89.0401a15.2694,15.2694,0,0,1-1.4785,7.3633,10.17377,10.17377,0,0,1-4.6719,4.1972,17.72918,17.72918,0,0,1-7.77239,1.541,15.68912,15.68912,0,0,1-7.313-1.624,10.44058,10.44058,0,0,1-4.52391-4.1328,13.96873,13.96873,0,0,1-1.3833-6.7373V72.3155h-8.2896V90.9541a17.74555,17.74555,0,0,0,2.5659,9.6231,16.34271,16.34271,0,0,0,7.4487,6.2617,28.18429,28.18429,0,0,0,11.5201,2.167q10.5783,0,16.3652-4.7568,5.7861-4.75635,5.7866-13.6104V72.3155h-8.2539Z" style="fill:#fff"/></svg>