<svg xmlns="http://www.w3.org/2000/svg" viewBox="0 0 42.57 31.43"><defs><style>.cls-1{fill:#f2f2f2;}</style></defs><title>img_cloud2</title><g id="レイヤー_2" data-name="レイヤー 2"><g id="billding"><path class="cls-1" d="M12,25.41a6,6,0,1,1-6-6A6,6,0,0,1,12,25.41Z"/><path class="cls-1" d="M13.3,11.71A4.51,4.51,0,1,1,8.79,7.2,4.5,4.5,0,0,1,13.3,11.71Z"/><path class="cls-1" d="M34.16,17.39a6,6,0,1,0-6-6A6,6,0,0,0,34.16,17.39Z"/><path class="cls-1" d="M28,21.4a6,6,0,1,0-6-6A6,6,0,0,0,28,21.4Z"/><path class="cls-1" d="M26.14,15.54a6,6,0,1,0-6-6A6,6,0,0,0,26.14,15.54Z"/><path class="cls-1" d="M38.06,9a4.51,4.51,0,1,0-4.51-4.51A4.51,4.51,0,0,0,38.06,9Z"/><path class="cls-1" d="M11.73,26.39a4.51,4.51,0,1,0-4.51-4.51A4.51,4.51,0,0,0,11.73,26.39Z"/></g></g></svg>