<svg xmlns="http://www.w3.org/2000/svg" viewBox="0 0 18.02 12.69"><defs><style>.cls-1{fill:#0f0609;}.cls-2{fill:#979faf;}.cls-3{fill:#575f78;}.cls-4{fill:#00517a;}.cls-5{fill:#008bbe;}.cls-6{fill:#21b4dd;}.cls-7{fill:#e83f44;}.cls-8{fill:#26465c;}.cls-9{fill:#d3e9f0;}.cls-10{fill:#fff;}</style></defs><title>img_car3-1</title><g id="レイヤー_2" data-name="レイヤー 2"><g id="乗り物"><g id="Car_5-1" data-name="Car 5-1"><g id="Wheels"><path class="cls-1" d="M6.3,10.59a2.52,2.52,0,0,1,.87-.85A1,1,0,0,1,8,9.6l.06,0,.56.32L6.81,12.61l-.57-.33A.67.67,0,0,1,6,11.66,2.08,2.08,0,0,1,6.3,10.59Z"/><path class="cls-1" d="M6.51,12a.66.66,0,0,0,.36.66,1,1,0,0,0,.86-.14,2.72,2.72,0,0,0,.86-.86A2.07,2.07,0,0,0,9,10.58a.66.66,0,0,0-.36-.66,1,1,0,0,0-.86.14,2.62,2.62,0,0,0-.86.86A2.07,2.07,0,0,0,6.51,12Z"/><path class="cls-2" d="M6.92,11.75c0,.45.36.6.81.34a1.68,1.68,0,0,0,.81-1.28c0-.45-.36-.6-.81-.34A1.68,1.68,0,0,0,6.92,11.75Z"/><path class="cls-3" d="M7.73,10.47l.13-.07a.37.37,0,0,1,.47.4,1.47,1.47,0,0,1-.72,1.13c-.34.2-.62.12-.69-.16v0A1.68,1.68,0,0,1,7.73,10.47Z"/><path class="cls-1" d="M14.74,5.72a2.59,2.59,0,0,1,.86-.85,1,1,0,0,1,.86-.14l.06,0,.56.32L15.24,7.74l-.56-.32a.68.68,0,0,1-.3-.63A2.1,2.1,0,0,1,14.74,5.72Z"/><path class="cls-1" d="M14.94,7.11a.65.65,0,0,0,.36.66,1,1,0,0,0,.86-.14A2.59,2.59,0,0,0,17,6.78a2.1,2.1,0,0,0,.36-1.07A.66.66,0,0,0,17,5.05a1,1,0,0,0-.86.14,2.62,2.62,0,0,0-.86.86A2.1,2.1,0,0,0,14.94,7.11Z"/><path class="cls-2" d="M15.35,6.88c0,.45.36.6.81.34A1.68,1.68,0,0,0,17,5.94c0-.44-.36-.6-.81-.34A1.68,1.68,0,0,0,15.35,6.88Z"/><path class="cls-3" d="M16.16,5.6a.38.38,0,0,1,.13-.06.36.36,0,0,1,.47.39,1.49,1.49,0,0,1-.71,1.13c-.35.2-.63.12-.7-.16v0A1.68,1.68,0,0,1,16.16,5.6Z"/></g><g id="Body"><path class="cls-4" d="M8.65,10h0l-.51-.29.15-.26,1.12.65-.32.56-.15-.08A.66.66,0,0,0,8.65,10Z"/><path class="cls-4" d="M17.08,5.09h0l-.56-.32-.06,0h0l.28-.49,1.07.62a4.13,4.13,0,0,1-.23.53l0,.07-.21-.13A.54.54,0,0,0,17.08,5.09Z"/><path class="cls-5" d="M17.51,5.45a.67.67,0,0,0-.39-.56,1.11,1.11,0,0,0-1,.16,3,3,0,0,0-1,1,2.39,2.39,0,0,0-.39,1.2v0a.14.14,0,0,1-.07.12L9.09,10.61v-.12a.72.72,0,0,0-.4-.73,1.07,1.07,0,0,0-1,.16,2.84,2.84,0,0,0-1,.95,2.41,2.41,0,0,0-.4,1.2v0a.12.12,0,0,1-.06.12,2.22,2.22,0,0,1-1,.39,2.19,2.19,0,0,1-1.25-.1l-3.55-2A.9.9,0,0,1,0,9.55c0-.28.06-.38.21-.46A2.79,2.79,0,0,1,.83,7,20,20,0,0,1,3.29,5.31,19.7,19.7,0,0,1,5.73,2.4,10.46,10.46,0,0,1,8.18,1a7.88,7.88,0,0,1,3.36-1A5.93,5.93,0,0,1,14,.32a11,11,0,0,1,1.57.84c1.23.71,1.89,1,2.12,1.43A1.94,1.94,0,0,1,18,3.5,2.36,2.36,0,0,1,17.51,5.45Z"/><path class="cls-4" d="M1.53,8.71c.12-.65.34-.79.34-.79l2,1.15s-.22.14-.34.79-.14.78-.14.78l-2-1.16S1.41,9.36,1.53,8.71Z"/><path class="cls-6" d="M1.53,8.71c.12-.65.34-.79.34-.79L2,8a1.78,1.78,0,0,0-.24.68c-.12.65-.15.78-.15.78l1.84,1.06a.69.69,0,0,0,0,.15l-2-1.16S1.41,9.36,1.53,8.71Z"/><path class="cls-6" d="M6.07,10.58A1.82,1.82,0,0,1,8.68,9.26a2.39,2.39,0,0,0-2.21,1.52C6.23,11.23,5.94,11,6.07,10.58Z"/><path class="cls-6" d="M1.13,6.71a22.86,22.86,0,0,1,2.16-1.4.77.77,0,0,0,.39.5l3,1.72c.62.36,1.29.64,2.67-.16l6.23-3.59c1-.56,2.72-1.11,1.7.65C16,4,14.42,5.75,14.42,7.14L9.51,10V9.75l4.1-2.39a3.27,3.27,0,0,1,1-2.11.13.13,0,0,0-.16-.2L9.74,7.74c-2,1.18-2.88,1-4,1.53a1,1,0,0,1-.94,0L1.16,7.14A.26.26,0,0,1,1.13,6.71Z"/><path class="cls-6" d="M8.18,1a7.88,7.88,0,0,1,3.36-1,6.52,6.52,0,0,1,1.54.08l3.77,2.17a4.67,4.67,0,0,0-3.75,0l-3.47,2L6,2.16A14.35,14.35,0,0,1,8.18,1Z"/><path class="cls-6" d="M3.87,11.59.1,9.42a.13.13,0,0,1,0-.17.35.35,0,0,1,.16-.16l4,2.31C5.11,11.91,4.82,12.14,3.87,11.59Z"/><path class="cls-7" d="M9,8.83l.26-.16a.27.27,0,0,0,.13-.2h0c0-.07-.06-.1-.13-.05L9,8.57a.27.27,0,0,0-.13.2h0C8.87,8.84,8.93,8.87,9,8.83Z"/></g><g id="Windows"><path class="cls-8" d="M9.42,4.53,6,2.52a16.65,16.65,0,0,0-2.4,2.82v.24a.28.28,0,0,0,.13.23l3,1.72a.77.77,0,0,0,.39.11h.47A19.05,19.05,0,0,1,9.42,4.53Z"/><path class="cls-8" d="M8.84,7.22l7.7-4.45a2.91,2.91,0,0,0-3.32-.18L11,3.9A5.5,5.5,0,0,0,8.84,7.22Z"/><path class="cls-8" d="M11.7.15a8.49,8.49,0,0,1,1.76.16l3.1,1.79a6.48,6.48,0,0,0-2.3-.47Z"/><path class="cls-3" d="M6,2.52l.28.16a23.33,23.33,0,0,0-2,2.24.27.27,0,0,0,.08.38l3.38,2-.19.39H7.06a.77.77,0,0,1-.39-.11l-3-1.72a.28.28,0,0,1-.13-.23V5.34A16.65,16.65,0,0,1,6,2.52Z"/><path class="cls-3" d="M8.91,6.92,12,5.14A3.73,3.73,0,0,0,11.3,3.7l.25-.15A3.75,3.75,0,0,1,12.25,5l2.2-1.27a3.67,3.67,0,0,0-.87-1.31l.29-.12a3.78,3.78,0,0,1,.84,1.28l1.61-.93a1.72,1.72,0,0,0-.2-.14,2.34,2.34,0,0,1,.42.27L8.84,7.22C8.86,7.12,8.88,7,8.91,6.92Z"/><path class="cls-3" d="M13.62.55A11.76,11.76,0,0,0,12.11.38L11.7.15a8.49,8.49,0,0,1,1.76.16l3.1,1.79a3.81,3.81,0,0,0-.67-.24Z"/></g><g id="Headlights"><path class="cls-9" d="M4,10l.79.46c.41.24.84-.5.42-.74L4.4,9.29a.42.42,0,0,0-.58.15h0A.42.42,0,0,0,4,10Z"/><path class="cls-9" d="M.29,7.89,1,8.28a.44.44,0,0,0,.58-.16h0a.44.44,0,0,0-.16-.58L.66,7.13A1.43,1.43,0,0,0,.29,7.89Z"/><path class="cls-10" d="M4.48,9.81a.16.16,0,0,1,.08-.16.66.66,0,0,1,.3-.1l.33.19a.34.34,0,0,1,.13.14.45.45,0,0,1-.27.47.22.22,0,0,1-.24,0A.67.67,0,0,1,4.48,9.81Z"/><path class="cls-10" d="M4,9.32a.63.63,0,0,1,.25-.09l.15.06.34.19a.44.44,0,0,1-.25.55.26.26,0,0,1-.25,0,.66.66,0,0,1-.32-.51A.19.19,0,0,1,4,9.32Z"/><path class="cls-10" d="M1.13,7.66a.69.69,0,0,1,.29-.09.43.43,0,0,1,.12.55.39.39,0,0,1-.22.18.66.66,0,0,1-.27-.47A.19.19,0,0,1,1.13,7.66Z"/><path class="cls-10" d="M.81,8a.66.66,0,0,1-.32-.51.19.19,0,0,1,.08-.17.61.61,0,0,1,.3-.09l.44.25a.44.44,0,0,1-.25.55A.26.26,0,0,1,.81,8Z"/></g></g></g></g></svg>