<svg xmlns="http://www.w3.org/2000/svg" viewBox="0 0 7.86 24.32"><defs><style>.cls-1{isolation:isolate;}.cls-2{fill:#f7e8af;}.cls-12,.cls-2,.cls-5,.cls-8{mix-blend-mode:multiply;}.cls-3{fill:#f8c480;}.cls-4{fill:#fac62c;}.cls-10,.cls-12,.cls-5,.cls-8{fill:#231815;}.cls-5{opacity:0.4;}.cls-6{fill:#7f0000;}.cls-7{fill:#4b0000;}.cls-8{opacity:0.66;}.cls-9{fill:#8c8c8d;}.cls-11{fill:#c30d23;}.cls-12{opacity:0.28;}</style></defs><title>img_huma1</title><g class="cls-1"><g id="レイヤー_2" data-name="レイヤー 2"><g id="レイヤー_3" data-name="レイヤー 3"><path class="cls-2" d="M2.81,11.27a.46.46,0,0,1-.1.18.15.15,0,0,1-.06.05c0,.15.11.17.19,0v0c0-.15,0-.3.06-.44A.66.66,0,0,0,2.81,11.27Z"/><path class="cls-3" d="M2.91,1.13a2.94,2.94,0,0,0,.22,2.32,1.59,1.59,0,0,0,.61,0A1.25,1.25,0,0,1,3.7,4c-.09.1,1.15.19,1.5-.73a1,1,0,0,1,.14-.64C5.53,2.42,5.65.86,4.8.47A1.35,1.35,0,0,0,2.91,1.13Z"/><path class="cls-4" d="M5.2,3.29,3.7,4a1.82,1.82,0,0,0-.67,1s-.81,5.6-.37,7.28c0,0,2.94.86,3.73-1,0,0,0-4.36.12-5.24S6,3.58,5.2,3.29Z"/><path class="cls-4" d="M7.85,7.77S7.3,5.83,7,5A3.93,3.93,0,0,0,5.52,3.48h0a3.54,3.54,0,0,1,1,2.59c0,.14,0,.35,0,.63l.31.75-.35.42c0,.43,0,.88,0,1.32.13-.1,1-.72,1.23-1S7.85,7.77,7.85,7.77Z"/><path class="cls-5" d="M5.75,3.63a2.14,2.14,0,0,1,.1.22,3.69,3.69,0,0,1,.66,2.22c0,.14,0,.35,0,.63L6.58,7a1.64,1.64,0,0,0,.1-.38,5.46,5.46,0,0,0,0-1,1.15,1.15,0,0,1,.23-.81A4,4,0,0,0,5.75,3.63Z"/><path class="cls-5" d="M7.85,7.79c-.22.21-.46.43-.78.32s-.33-.31-.48-.43l-.16.18V8c0,.18,0,.36,0,.54v0c0,.2,0,.4,0,.59v.06c.13-.1,1-.72,1.23-1S7.86,7.84,7.85,7.79Z"/><path class="cls-5" d="M6.39,11.31V10.5a3.4,3.4,0,0,1-2.08,2A2.16,2.16,0,0,0,6.39,11.31Z"/><path class="cls-5" d="M4.41,5.15a1.63,1.63,0,0,1-.5-.27,3.92,3.92,0,0,1,.22,1.57c0,.31,0,.64,0,1a5.64,5.64,0,0,0,.44-1.21A1.53,1.53,0,0,0,4.41,5.15Z"/><path class="cls-6" d="M2.72,1.33c-.1.29.19.75.37,1A1.79,1.79,0,0,1,3,1.63a1.56,1.56,0,0,0,.31.58,1.35,1.35,0,0,1,.35.48.24.24,0,0,1,.43-.2c.12.21-.08.48-.24.61.1.06.15.18.25.23a.78.78,0,0,0,.4,0A2,2,0,0,0,5.15,3c.09-.07.21-.1.28-.19a1,1,0,0,0,.1-.42,6.52,6.52,0,0,0,.07-.88A1.51,1.51,0,0,0,4.85.14,1.6,1.6,0,0,0,3.24.32,1.18,1.18,0,0,0,2.72,1.33Z"/><path class="cls-7" d="M5.76.65c.14.44,0,.87-.31,1S4.77,1.44,4.63,1a.75.75,0,0,1,.31-1C5.26-.07,5.62.21,5.76.65Z"/><path class="cls-4" d="M3.63,4.07A1.77,1.77,0,0,1,4.67,3a4,4,0,0,1,.64-.27c.15,0,.7.09.47.32.13.08.23.11.26.26s0,.12,0,.18.08.1.11.15a1.16,1.16,0,0,1,0,.84c-.05.19-.21.5-.46.46s-.39-.37-.55-.51a1.56,1.56,0,0,0-1.28-.29Z"/><path class="cls-5" d="M6.13,3.63S6,3.54,6,3.48s0-.11,0-.18S5.91,3.12,5.78,3c.23-.23-.32-.35-.47-.32H5.25a2.47,2.47,0,0,1,.26.47,2.13,2.13,0,0,1,.18.41,3.1,3.1,0,0,1,.11.81,1.29,1.29,0,0,1,0,.39.53.53,0,0,1,0,.12c.22,0,.36-.28.41-.46A1.16,1.16,0,0,0,6.13,3.63Z"/><path class="cls-8" d="M3.52,4.17l.11-.1.23.06a1.56,1.56,0,0,1,1.28.29c.16.14.34.47.55.51s.41-.27.46-.46c0,0,0,0,0-.06a.08.08,0,0,0,0,0,.83.83,0,0,1,0,.15l0,.08s0,0,0,.07h0c-.08.18-.22.36-.42.32s-.4-.38-.57-.52a1.6,1.6,0,0,0-1.34-.31l-.24-.06Z"/><path class="cls-9" d="M6.91,22.72a.54.54,0,0,1-.64.23,1.59,1.59,0,0,1-.56-.33,2.92,2.92,0,0,0-.7-.25c-.2-.09-.49-.24-.52-.52v.08c0,.28.32.43.52.52s.49.09.7.25a1.46,1.46,0,0,0,.56.33.54.54,0,0,0,.64-.23A.77.77,0,0,0,7,22.43,1,1,0,0,1,6.91,22.72Z"/><path class="cls-10" d="M6.87,21.84a.76.76,0,0,1-.1.36c-.26.39-.81.23-1-.15a1.24,1.24,0,0,1-.16-.47,1.36,1.36,0,0,1-.29-.06,1.54,1.54,0,0,0-.35-.1.32.32,0,0,0-.31.07.48.48,0,0,0-.12.36c0,.28.32.43.52.52a2.92,2.92,0,0,1,.7.25,1.59,1.59,0,0,0,.56.33.54.54,0,0,0,.64-.23A1.22,1.22,0,0,0,6.87,21.84Z"/><path class="cls-11" d="M4.9,15.19a25.45,25.45,0,0,0,.29-2.81,4.71,4.71,0,0,1-2.31,0,18.12,18.12,0,0,1,0,2.56,9.77,9.77,0,0,0-.05,1.32c0,.4.18.77.25,1.17.15.89.15,1.86.23,2.77a10.24,10.24,0,0,1,.06,1.36,7.25,7.25,0,0,0-.11,1.29c.15.91,1.22.57,1.47-.14a11.47,11.47,0,0,0,.18-2.5,10.91,10.91,0,0,0-.23-2.51A8.59,8.59,0,0,1,4.9,15.19Z"/><path class="cls-5" d="M4.67,17.72a5.49,5.49,0,0,1,0-1.51,1.39,1.39,0,0,1-1,.6A.61.61,0,0,0,4.3,17c0,.17.06.37.06.55a5.25,5.25,0,0,1-.08.68,4,4,0,0,0,0,1.29A7.1,7.1,0,0,1,4.37,22a5.85,5.85,0,0,1-.3,1.33,1.11,1.11,0,0,0,.65-.64,11.47,11.47,0,0,0,.18-2.5A10.91,10.91,0,0,0,4.67,17.72Z"/><path class="cls-11" d="M6.81,20.39a11.14,11.14,0,0,0-.15-3.47,9.67,9.67,0,0,1-.27-3,9.76,9.76,0,0,1,.13-1.44,2.17,2.17,0,0,0-.18-1.07,1.84,1.84,0,0,1-1.15,1,25.45,25.45,0,0,1-.29,2.81l-.09.48c.05.5.06,1,.14,1.48s.25,1,.35,1.51a10.9,10.9,0,0,1,.19,1.73,3.92,3.92,0,0,0,.23,1.66c.24.38.79.54,1,.15S6.81,20.87,6.81,20.39Z"/><path class="cls-5" d="M6.81,20.39a11.14,11.14,0,0,0-.15-3.47,9.67,9.67,0,0,1-.27-3,9.76,9.76,0,0,1,.13-1.44,2.17,2.17,0,0,0-.18-1.07,1.84,1.84,0,0,1-1.15,1,25.45,25.45,0,0,1-.29,2.81l-.09.48c.05.5.06,1,.14,1.48s.25,1,.35,1.51a10.9,10.9,0,0,1,.19,1.73,3.92,3.92,0,0,0,.23,1.66c.24.38.79.54,1,.15S6.81,20.87,6.81,20.39Z"/><path class="cls-9" d="M4.64,24a.63.63,0,0,1-.71.26,1.8,1.8,0,0,1-.62-.37c-.23-.17-.52-.16-.77-.28S2,23.3,2,23v.09c0,.31.35.48.57.58a3.52,3.52,0,0,1,.77.27,1.8,1.8,0,0,0,.62.37A.63.63,0,0,0,4.64,24a.79.79,0,0,0,.07-.41A.71.71,0,0,1,4.64,24Z"/><path class="cls-10" d="M3.25,22.87a.91.91,0,0,1,0-.17,1.85,1.85,0,0,1-.41-.07,2.91,2.91,0,0,0-.39-.12.36.36,0,0,0-.34.09A.5.5,0,0,0,2,23c0,.31.35.47.57.57s.54.11.77.28a1.8,1.8,0,0,0,.62.37A.63.63,0,0,0,4.64,24a1.41,1.41,0,0,0,0-1C4.22,23.5,3.38,23.67,3.25,22.87Z"/><path class="cls-3" d="M.9,4.74c0-.08.1-.22.18-.11a.34.34,0,0,1,0,.2A.92.92,0,0,1,1,5.11a3,3,0,0,0-.24.59c0-.12,0-.25,0-.38A1,1,0,0,1,.83,4.9"/><path class="cls-12" d="M.9,4.74c0-.08.1-.22.18-.11a.34.34,0,0,1,0,.2A.92.92,0,0,1,1,5.11a3,3,0,0,0-.24.59c0-.12,0-.25,0-.38A1,1,0,0,1,.83,4.9"/><path class="cls-4" d="M4.27,5.53c-.12-.93-.78-1.08-1.37-.12A16.93,16.93,0,0,0,1.59,7.48a7.7,7.7,0,0,1-.42-1.26C.63,5.88.09,6.45.09,6.45A5.14,5.14,0,0,0,.38,8.66c.13.32.45,1,1,.92A11.46,11.46,0,0,0,3.75,7,2.08,2.08,0,0,0,4.27,5.53Z"/><path class="cls-5" d="M1.12,8a2.74,2.74,0,0,0,.45-.54,7.1,7.1,0,0,1-.4-1.19.7.7,0,0,0-.53-.09c.83.42.42,1.28,0,1.89A3.26,3.26,0,0,0,1,7.84a1.67,1.67,0,0,0-.37.81A2.88,2.88,0,0,1,1.12,8Z"/><path class="cls-3" d="M.92,5v-.1a1.73,1.73,0,0,0,0-.68c0-.12-.1-.19-.18-.06v0a.31.31,0,0,0,0-.1c0-.12-.1-.19-.18-.06a.43.43,0,0,0-.06.21h0c0-.12-.1-.19-.18-.06a.52.52,0,0,0-.06.29.11.11,0,0,0-.06.06.74.74,0,0,0-.06.37c0,.14,0,.29,0,.39S0,5.74,0,6a.49.49,0,0,0,.15.42A1,1,0,0,1,1,6.14C.72,5.66,1,5.38.92,5Z"/><path class="cls-5" d="M2.66,8.36l.64-.75a8.25,8.25,0,0,0-.22,1.7c0,.44-.09,1.31.32,1.64a12.4,12.4,0,0,0,.46-1.29,1.69,1.69,0,0,1,0,.23c0,.34,0,.67,0,1,0,.54,0,1.1,0,1.65l-.39,0H3.33l-.17,0H3.09l-.18,0H2.83l-.17-.05A14.86,14.86,0,0,1,2.66,8.36Z"/></g></g></g></svg>