<svg xmlns="http://www.w3.org/2000/svg" viewBox="0 0 63.18 82.26"><defs><style>.cls-1{fill:#f8cd6f;}.cls-2{fill:#c69a50;}.cls-3{fill:#937439;}.cls-4{fill:#fadea2;}.cls-5{fill:#eac890;}.cls-6{fill:#7e6337;}.cls-7{fill:#f5d121;}.cls-8{fill:#2eb4ea;}.cls-9{fill:#0068b7;}.cls-10{fill:#cfa914;}.cls-11{fill:#006994;}.cls-12{fill:#dc3b13;}.cls-13{fill:#b6cddc;}.cls-14{fill:#fad3a8;}.cls-15{fill:none;}.cls-16{fill:#939498;}.cls-17{fill:#c1dae9;}.cls-18{fill:#e2bea6;}.cls-19{fill:#e9c3ac;}.cls-20{fill:#050101;}</style></defs><title>img_balloon2</title><g id="レイヤー_2" data-name="レイヤー 2"><g id="tree"><polygon class="cls-1" points="19.47 68.69 31.59 75.66 31.59 82.26 22.43 76.98 19.47 68.69"/><polygon class="cls-2" points="31.59 82.26 31.59 75.66 43.71 68.69 40.75 76.98 31.59 82.26"/><path class="cls-1" d="M31.59,63.38v8.28l2.82,1.7s8.32-4.29,8-4.53S32.32,62.5,32.32,62.5Z"/><polygon class="cls-2" points="31.59 63.38 31.59 71.66 29.69 73.65 21.37 68.15 31.25 62.74 31.59 63.38"/><polygon class="cls-3" points="33.62 72.82 31.59 71.66 29.56 72.82 31.59 73.99 33.62 72.82"/><path class="cls-4" d="M31.59,61.7l-12.12,7,12.12,7,12.12-7Zm-9.21,7,9.21-5.31,9.21,5.31L31.59,74Z"/><polygon class="cls-2" points="31.59 82.26 31.59 75.66 43.71 68.69 40.75 76.98 31.59 82.26"/><polygon class="cls-4" points="39.96 69.17 31.59 73.99 23.22 69.17 20.3 69.17 31.59 75.67 42.87 69.17 39.96 69.17"/><polygon class="cls-5" points="41.5 67.42 38.9 67.42 38.74 67.5 40.8 68.69 35.62 71.67 37.42 71.67 37.83 71.9 38.12 71.9 43.71 68.69 41.5 67.42"/><path class="cls-6" d="M31.59,76.05a.38.38,0,0,1-.38-.38s0-4.59,0-9.09V60.33c0-.9,0-1.59,0-2.07,0-.25,0-.45,0-.58s0-.46.24-.55a.38.38,0,0,1,.52.42c0,.69,0,11.16,0,18.11a.38.38,0,0,1-.38.39Z"/><path class="cls-6" d="M43.71,69.06a.32.32,0,0,1-.13,0,.38.38,0,0,1-.23-.48L50,49a.38.38,0,0,1,.48-.24.38.38,0,0,1,.24.48L44.07,68.8A.38.38,0,0,1,43.71,69.06Z"/><path class="cls-6" d="M19.47,69.06a.38.38,0,0,1-.36-.26L12.45,49.28a.37.37,0,1,1,.71-.24l6.67,19.52a.38.38,0,0,1-.24.48A.25.25,0,0,1,19.47,69.06Z"/><path class="cls-7" d="M63.18,26.88c0,14.27-18.89,32.4-31.54,32.47S0,41.38,0,27.11C0-1.18,26.91,0,31.54,0S63.18-.5,63.18,26.88Z"/><path class="cls-8" d="M31.59,59.35h.05c12.65-.07,31.54-18.2,31.54-32.47C63.18-.41,36.35,0,31.59,0Z"/><path class="cls-9" d="M37.41.41A44.75,44.75,0,0,0,31.54,0a47.51,47.51,0,0,0-6.26.37,25.65,25.65,0,0,1,6.33,9.79A23.65,23.65,0,0,1,37.41.41Z"/><path class="cls-9" d="M61.67,28.28c0,14.27-17.38,31-30,31.07S1.52,42.78,1.52,28.51c0-32.46,26.69-22.53,30-18.38C34.94,5.69,61.67-3.56,61.67,28.28Z"/><path class="cls-7" d="M56.35,31.07c0,14.27-14.3,28.21-24.72,28.28S6.84,45.58,6.84,31.3c0-32.46,24.71-21.17,24.71-21.17S56.35-.77,56.35,31.07Z"/><path class="cls-9" d="M44.19,32.33c0,14.28-7.28,27-12.58,27S19,46.84,19,32.57c0-22.35,12.58-22.44,12.58-22.44S44.19,9.87,44.19,32.33Z"/><path class="cls-10" d="M31.59,0V59.35h.05c12.65-.07,31.54-18.2,31.54-32.47C63.18-.41,36.35,0,31.59,0Z"/><path class="cls-11" d="M31.59,10.07V59.35h.05c12.65-.07,30-16.8,30-31.07C61.67-3.43,35.17,5.61,31.59,10.07Z"/><path class="cls-10" d="M31.59,10.11V59.35h0c10.42-.07,24.72-14,24.72-28.28C56.35,0,32.67,9.66,31.59,10.11Z"/><path class="cls-12" d="M31.59,10.13V59.35h0c5.3-.07,12.58-12.74,12.58-27C44.19,10.38,32.14,10.13,31.59,10.13Z"/><path class="cls-11" d="M31.59,10.12a.12.12,0,0,0,0,.05A23.65,23.65,0,0,1,37.41.41,43.65,43.65,0,0,0,31.59,0Z"/><path class="cls-11" d="M31.59,10.13V59.35h0c5.3-.07,12.58-12.74,12.58-27C44.19,10.38,32.14,10.13,31.59,10.13Z"/><path class="cls-7" d="M36.76,8.31c0,1.18-2.31,2.14-5.16,2.14s-5.17-.95-5.18-2.12,2.31-2.14,5.16-2.14S36.75,7.14,36.76,8.31Z"/><path class="cls-13" d="M38.25,70.2c-.08-.23-1.06-2.61-1.1-2.86a15.44,15.44,0,0,0-.4-2.28c-.23-.71-.73-.74-.9-.62s-.2.33-.1.83.57,1.93.69,2.34,1.33,2.87,1.33,2.87a.76.76,0,0,1,.1.18,2.12,2.12,0,0,1,.48-.25C38.3,70.31,38.26,70.21,38.25,70.2Z"/><path class="cls-14" d="M38.82,71.24c.11,0-.06-.17-.08-.22a2,2,0,0,0-.24-.34,1.63,1.63,0,0,1-.15-.27,2.12,2.12,0,0,0-.48.25A1.74,1.74,0,0,1,38,71c.08.37.27.78.33.76s-.06-.3-.09-.4c.09.22.23.62.32.58s-.1-.39-.2-.6c.1.21.25.6.34.57s-.13-.5-.21-.67c.07.14.28.55.34.51s-.31-.79-.31-.79A.74.74,0,0,0,38.82,71.24Z"/><polygon class="cls-15" points="35.11 71.96 35.13 71.95 35.12 71.87 35.11 71.96"/><polygon class="cls-16" points="35.13 71.95 36.89 70.93 36.9 69.6 35.3 70.19 35.12 71.87 35.13 71.95"/><polygon class="cls-16" points="35.12 71.87 34.97 70.32 35.3 70.19 35.32 70.02 33.38 69.73 33.33 72.99 35.11 71.96 35.12 71.87"/><polygon class="cls-16" points="35.12 71.87 35.3 70.19 34.97 70.32 35.12 71.87"/><path class="cls-17" d="M35.77,64.36a2,2,0,0,1,1,.27c.34.27.24,1.17.26,2.07A24.26,24.26,0,0,1,37,70c-.1.37-1.36.75-2.74.39s-1-.51-.78-2.69c.08-.93-.37-2.47.07-2.81a3.41,3.41,0,0,1,1.18-.49l.72.21Z"/><path class="cls-18" d="M35.68,64.05a.27.27,0,0,0,.1.29s0,.27-.39.35c-.61.11-.77-.25-.77-.25a1,1,0,0,0,0-.78Z"/><path class="cls-19" d="M36.2,62.26s.25,2-.65,2a1,1,0,0,1-1-.55L34,62.45l1-1.09Z"/><path class="cls-20" d="M34.48,63.47a1,1,0,0,0,.43-.94,2.17,2.17,0,0,0,.57.2s-.24-.13-.25-.32a1,1,0,0,0,.93.2,1.89,1.89,0,0,1-.55-.19s.8.33,1.17-.28c0,0-.22.16-.39.08a.57.57,0,0,0,.19-.36s-.14.22-.33.15c0,0,.19-.21.13-.31s-.08.18-.37,0-.45-.47-1.14-.35a1.2,1.2,0,0,0-.81,1.34A1.31,1.31,0,0,0,34.48,63.47Z"/><path class="cls-13" d="M34,71.09c0-.25-.12-2.81-.07-3.07a15.18,15.18,0,0,0,.4-2.28c0-.74-.43-.94-.63-.88s-.31.24-.38.75-.12,2-.15,2.43.27,3.15.27,3.15a.82.82,0,0,1,0,.2,1.94,1.94,0,0,1,.53-.07C34,71.21,34,71.1,34,71.09Z"/><path class="cls-14" d="M34.13,72.26c.1.08,0-.18,0-.23a2.91,2.91,0,0,0-.1-.41,1.13,1.13,0,0,1-.06-.3,1.94,1.94,0,0,0-.53.07,1.75,1.75,0,0,1,0,.39c0,.38,0,.83.06.83s0-.3,0-.41c0,.24,0,.66.1.66s0-.4,0-.63c0,.23,0,.65.12.65s0-.51,0-.71c0,.16.07.62.14.6s0-.84,0-.84A.72.72,0,0,0,34.13,72.26Z"/></g></g></svg>