<svg xmlns="http://www.w3.org/2000/svg" viewBox="0 0 8.63 23.14"><defs><style>.cls-1{isolation:isolate;}.cls-2{fill:#040000;opacity:0.14;}.cls-3{fill:#899c9b;}.cls-21,.cls-4{fill:#fff;}.cls-5{fill:#f5b293;}.cls-6{fill:#4d100c;opacity:0.13;}.cls-23,.cls-25,.cls-6,.cls-8{mix-blend-mode:multiply;}.cls-7{fill:#004b53;}.cls-8{opacity:0.18;}.cls-10,.cls-23,.cls-9{fill:#353433;}.cls-9{opacity:0.55;}.cls-10{opacity:0.2;}.cls-11{fill:#eb6442;}.cls-12,.cls-28,.cls-31{fill:#0e0e0d;}.cls-12{opacity:0.16;}.cls-13{fill:#1f2d42;}.cls-14{fill:#3e4a5f;}.cls-15{fill:#9dd6e4;}.cls-16{fill:#00abcb;}.cls-17{fill:#005476;}.cls-18{fill:#eb6536;}.cls-19{fill:#00a1ce;}.cls-20{fill:#f6ae30;}.cls-21{opacity:0.31;}.cls-22{fill:#f5b49b;}.cls-23,.cls-25{opacity:0.27;}.cls-24{fill:#eb6847;}.cls-25{fill:#d69b7c;}.cls-26{fill:#4e2b13;}.cls-27{fill:#f6c0ab;}.cls-28{opacity:0.22;}.cls-29{fill:#e9503c;}.cls-30{fill:#ec7657;}.cls-31{opacity:0.1;}</style></defs><title>img_human2</title><g class="cls-1"><g id="レイヤー_2" data-name="レイヤー 2"><g id="レイヤー_2-2" data-name="レイヤー 2"><path class="cls-2" d="M5.11,21.15c-.42-.2.82-.17.38-.65a4,4,0,0,0-2-.16c-1.29.16-3.07.77-2.84,1.54s1.48,1.45,4.24,1.22c1.18-.1,2.45-.69,2.32-1.2C7.15,21.6,5.29,21.24,5.11,21.15Z"/><path class="cls-3" d="M2.47,19.76s.16.07.37.19a1.92,1.92,0,0,0,.77.2c.24,0,.64,0,.71.28a1.16,1.16,0,0,1,0,.16c0,.14-.14.2-.29.28a4.21,4.21,0,0,1-.5.2c-.31.1-1,.16-1,.28l-.37.11a.59.59,0,0,1-.71-.3,8.09,8.09,0,0,1,0-1.18c0-.08.24-.06.33-.08Z"/><path class="cls-4" d="M2.88,21a2.28,2.28,0,0,0,.64,0,4.77,4.77,0,0,0,.58-.18c.13-.07.24-.16.24-.25a.28.28,0,0,1,0,.08c0,.14-.14.21-.29.28a3.57,3.57,0,0,1-.5.21c-.31.09-.71.17-1,.28,0,0-.1-.29-.1-.28A1.29,1.29,0,0,1,2.88,21Z"/><path class="cls-4" d="M2.16,21.16l.4-.11s0,.28,0,.31l-.4.11a.56.56,0,0,1-.68-.3v-.33A.62.62,0,0,0,2.16,21.16Z"/><path class="cls-3" d="M4.24,20.9s.16.07.37.19a1.92,1.92,0,0,0,.78.2c.23,0,.64,0,.7.28a1.16,1.16,0,0,1,0,.16c0,.14-.14.2-.29.28a4.21,4.21,0,0,1-.5.2c-.31.1-1,.16-1,.28L4,22.6a.59.59,0,0,1-.71-.3,8.08,8.08,0,0,1,0-1.18c0-.09.24-.06.33-.08Z"/><path class="cls-4" d="M4.66,22.13a2,2,0,0,0,.63-.05,3.9,3.9,0,0,0,.58-.17c.13-.07.24-.16.24-.25a.28.28,0,0,1,0,.08c0,.14-.14.21-.29.28a3.57,3.57,0,0,1-.5.21c-.31.09-.71.17-1,.28,0,0-.1-.29-.1-.28A1.3,1.3,0,0,1,4.66,22.13Z"/><path class="cls-4" d="M3.93,22.3l.4-.11s0,.27,0,.31l-.4.11a.56.56,0,0,1-.68-.3V22A.62.62,0,0,0,3.93,22.3Z"/><path class="cls-5" d="M3,16.1v.13a16.22,16.22,0,0,0-.38,3.82c0,.22-.24.22-.5.21s-.34,0-.34-.13-.11-.85-.12-1a9.55,9.55,0,0,1,.28-3.09c.13.11.29-.52.45-.51S2.79,16.2,3,16.1Z"/><path class="cls-6" d="M2.06,15.65s.53.66.55.66c.22,0,.25-.31.34-.32a1.05,1.05,0,0,1,0,.18,16.72,16.72,0,0,0-.39,3.59,1.92,1.92,0,0,0,0,.24c0,.07,0,.12,0,.17s-.17.1-.41.09l0-.17a16.29,16.29,0,0,1,.32-3.23c0-.09-.69-.08-.67-.16S2,15.74,2.06,15.65Z"/><path class="cls-7" d="M1.65,10.47l1.8.29-.21,5.52a4.12,4.12,0,0,1-.75.18l-.46,0a2,2,0,0,1-.66-.27l.1-.67c.05-.6.2-2.36.16-2.51A6,6,0,0,1,1.65,10.47Z"/><g class="cls-8"><path class="cls-9" d="M2.54,16.47c0-.11,0-.38.07-.46s.08-1.53.08-1.73c0-1.28-.06-2.83-.08-3.56l.84,0-.32,5.52A4.34,4.34,0,0,1,2.54,16.47Z"/></g><path class="cls-5" d="M4,15.7c.3,0,.3,1,.47.91,0,.24,0,.45,0,.59,0,.3-.13,1-.14,1.18-.06.74.06,2.83.06,2.83-.09.18-.89.12-.9-.09a8.37,8.37,0,0,1-.26-3.74,2.59,2.59,0,0,0,.12-.83C3.45,16.63,3.56,15.73,4,15.7Z"/><path class="cls-6" d="M3.94,17.45c0-.07,0-.24,0-.43a1.15,1.15,0,0,1-.6-.08c0-.11-.05-.45-.05-.54s.8.17.91.14a1.31,1.31,0,0,0,.27-.07c0,.23,0,.62,0,.76,0,.3-.13,1-.14,1.18-.06.74,0,1.29,0,1.94,0,.18,0,.77.05.81s-.2.18-.34.2C4.06,20.42,3.83,18.34,3.94,17.45Z"/><path class="cls-7" d="M3,16.59c-.07-.84-.2-1.94-.2-2.34,0-1-.37-.32-.51-1.15a16.9,16.9,0,0,1-.1-2.29l2.87.86s0,2.84-.17,4.86a3.72,3.72,0,0,1-.93.2H3.62A1.89,1.89,0,0,1,3,16.59Z"/><path class="cls-10" d="M4.84,11.6H4.13c.1.93-.22.94,0,2,.17.86.21.94.22,1.06s-.08.3,0,.44a5.7,5.7,0,0,1-.07,1.63,3.53,3.53,0,0,0,.66-.16c.21-2,.17-4.86.17-4.86Z"/><path class="cls-3" d="M4.26,20.84s-.42.63-.15.63a1.86,1.86,0,0,0,.63-.18,6.14,6.14,0,0,1-.38-.51C4.32,20.71,4.3,20.78,4.26,20.84Z"/><path class="cls-3" d="M2.49,19.7s-.42.59-.15.59A2.16,2.16,0,0,0,3,20.15a6.14,6.14,0,0,1-.38-.51C2.55,19.57,2.53,19.64,2.49,19.7Z"/><path class="cls-11" d="M2.19,10c.28.42-.3.65-.3.65C1.67,10.44,0,9,0,7.92a17.45,17.45,0,0,1,.78-3.5C.93,4,1.09,3.08,2.11,3.27c.57.1.19.9.08,1.39A17.06,17.06,0,0,1,1.44,7a3.09,3.09,0,0,0-.23.81A8.5,8.5,0,0,0,2.19,10Z"/><path class="cls-12" d="M1.83,9.34l-.18.06a4.63,4.63,0,0,0-.72-.87c-.16,0-.5-.46-.27-.43s.41,0,.29-.1a2.34,2.34,0,0,0-.33-.07c-.16,0,0-.09.21-.12s.21-.14,0-.26,0-.45.19-.8.55-1.43.55-1.43l.31.35C1.68,6.41,1.44,7,1.44,7a3.09,3.09,0,0,0-.23.81A8,8,0,0,0,1.83,9.34Z"/><path class="cls-5" d="M6.85,7.82s.94-.6,1-.94a3.63,3.63,0,0,0,.07-.65s-.18-.23-.35.19A1.27,1.27,0,0,1,7,7Z"/><path class="cls-13" d="M6.09,6.19s0,0,0,.11l1.15,1s.07.06.11,0L8.61,5.2a.07.07,0,0,0,0-.11l-1.18-1s0,0-.07,0H7.28Z"/><path class="cls-14" d="M6,6.21s0,0,0,.07l1.15,1s.1,0,.12,0L8.54,5.18a.08.08,0,0,0,0-.11L7.33,4a0,0,0,0,0-.08,0Z"/><path class="cls-15" d="M6.18,6.13a0,0,0,0,0,0,0l1,.79a.05.05,0,0,0,.09,0l1.11-1.8a0,0,0,0,0,0,0L7.31,4.24s0,0,0,0Z"/><path class="cls-16" d="M7.32,4.27a0,0,0,0,0,0,0L6.18,6.16h0a0,0,0,0,1,0,0L7.27,4.24s0,0,0,0l1.08.89s0,0,0,0Z"/><path class="cls-17" d="M7.18,5v.2A.58.58,0,0,0,7,5.45l-.14-.09A.9.9,0,0,1,7.18,5Z"/><path class="cls-18" d="M7.59,5.32l-.14.14,0-.53L7.9,5l-.15.15a.71.71,0,0,1-.06.75l-.14-.09A.48.48,0,0,0,7.59,5.32Z"/><path class="cls-19" d="M6.87,5.84l-.18.09a.83.83,0,0,1,.13-.57L7,5.45A.58.58,0,0,0,6.87,5.84Z"/><path class="cls-20" d="M6.69,5.93l.18-.09A.31.31,0,0,0,7,6a.33.33,0,0,0,.33,0,.55.55,0,0,0,.22-.21l.14.09a.88.88,0,0,1-.33.31.46.46,0,0,1-.48,0A.42.42,0,0,1,6.69,5.93Z"/><polygon class="cls-21" points="8.03 5.76 7.74 6.22 7.41 4.32 7.83 4.67 8.03 5.76"/><polygon class="cls-21" points="7.52 6.57 7.16 4.45 7.24 4.31 7.6 6.44 7.52 6.57"/><path class="cls-13" d="M7.86,4.6s0,0,0,0a0,0,0,0,0,0,0s0,0,0,0A0,0,0,0,0,7.86,4.6Z"/><path class="cls-5" d="M7.11,7.64A.5.5,0,0,1,7,6.83c.28-.34.42-.53.42-.53s.18,0,.08.21-.15.41-.06.51.22.05.17.15A.92.92,0,0,1,7.11,7.64Z"/><path class="cls-22" d="M4.21.43l.52.15.41.33a3.11,3.11,0,0,1-.1.72L5,1.86c0,.07-.16.21-.17.25s0,.2,0,.33c-.16.39-.33.73-.39.88s-.28.18-.47.12a1.4,1.4,0,0,1-.6-.35A1.82,1.82,0,0,1,2.83,1.8V.39Z"/><path class="cls-22" d="M1.83,4.14a6.57,6.57,0,0,0,.64-.93A8.59,8.59,0,0,0,2.73,2L4,2.39A9.29,9.29,0,0,1,3.7,3.68c-.07.17.23.41.33.56l.6.66A1.79,1.79,0,0,1,5,6L4.21,9.82l-1.4.58L2.35,5.24C2.48,5.08,1.74,4.37,1.83,4.14Z"/><path class="cls-23" d="M5.06,12.34a2.14,2.14,0,0,1-1.36.25,7,7,0,0,1-2.14-1,4.7,4.7,0,0,1,0-.68l3.1.67.35.11A6.17,6.17,0,0,1,5.06,12.34Z"/><path class="cls-24" d="M5.29,5c.35.28,0,3,0,3.93,0,0,0,1.57,0,2.08,0,.18.11.77-.11.84-.06,0,0,.29-.07.34a3.11,3.11,0,0,1-1.82.09c-.24-.08-1.78-.73-1.78-.92v-.31a1,1,0,0,1-.14-.25A16,16,0,0,1,1.41,8a21.08,21.08,0,0,1-.06-4.32c.1-.67.94-.08.94-.08s.37.57.69.64S3.67,3.81,4,4A6.49,6.49,0,0,1,5.29,5Z"/><path class="cls-25" d="M4.89.72a5.45,5.45,0,0,1-.07,1.1.72.72,0,0,0-.21.55c0,.15-.44.46-.48.77a.4.4,0,0,0,.1.34.5.5,0,0,1-.33,0l-.14,0-.15.34a1,1,0,0,0,0,.34l-1,.09s.5-1,.42-1.16-.39-.19-.43-.48l.19-.46V2C3.24,1.19,4.89.72,4.89.72Z"/><path class="cls-26" d="M5.3.66c.25.24-.16.49-.16.49a.49.49,0,0,1-.16,0,.26.26,0,0,0-.25.07,5.1,5.1,0,0,0-.27,1c0,.08-.14,0-.19-.09s-.21-.2-.54.19c0,0-.2.23-.35.45s-.16.13-.18.12-.51-.08-.55-.31a2.69,2.69,0,0,0-.22-1A1.46,1.46,0,0,1,3,.16c.09,0-.08,0-.06,0A1.92,1.92,0,0,1,4.06.05,2.69,2.69,0,0,1,5.3.66Z"/><path class="cls-5" d="M4.26,2A.36.36,0,0,0,4,2.18a.26.26,0,0,0,0,.29A.27.27,0,0,0,4,2.61s.08-.32.09-.38A1.15,1.15,0,0,1,4.26,2Z"/><path class="cls-27" d="M4.32,2s.09,0,0,.14a.92.92,0,0,0-.16.27c0,.07-.05.29-.05.29S4,2.78,4,2.64A.94.94,0,0,1,4,2.3C4.05,2.24,4.22,2,4.32,2Z"/><path class="cls-28" d="M4.13,12.11c-.71,0-1-.25-.94-.24a1.68,1.68,0,0,0,1.13.06.69.69,0,0,0,.17-.63c0-.33-.12-4.83-.12-4.83l.85.66a16.47,16.47,0,0,0,0,1.79v2.16c0,.18,0,.73-.2.79-.06,0,0,.32-.06.36a1.86,1.86,0,0,1-.85.14C4.15,12.24,4.19,12.12,4.13,12.11Z"/><path class="cls-29" d="M7.3,7.92l.24-.39s.08-.08-.1-.25a.66.66,0,0,0-.59-.16l-.2.27Z"/><path class="cls-24" d="M7.35,7.34A.5.5,0,0,1,7.5,8,7,7,0,0,1,6.27,9.21c-.48.31-1,.25-1.22-.2a14.68,14.68,0,0,1-.78-2.89c-.06-.34-.1-1.31.59-1.29s.77.64.82,1.13c.19,1.9.25,1.59.32,1.87A.62.62,0,0,1,6,8a1.69,1.69,0,0,1,.65-.62A.71.71,0,0,1,7.35,7.34Z"/><path class="cls-12" d="M4.68,6.91C4.92,7.6,5,8,5.24,8.55A2.7,2.7,0,0,0,5.4,9a.56.56,0,0,0,.54.14C6.38,9,7.47,8,7.46,7.57a.43.43,0,0,1,0,.29A5.13,5.13,0,0,1,6.27,9.21.82.82,0,0,1,5,9,7,7,0,0,1,4.3,6.31c0-.19.13-.61.16-.45A4.33,4.33,0,0,0,4.68,6.91Z"/><path class="cls-13" d="M6.59,6.7s0,0,0,0a0,0,0,0,1,0,0,.05.05,0,0,1,.06,0h0a.06.06,0,0,1,0,.09.07.07,0,0,1,0,0Zm0-.07a.06.06,0,0,0,0,0l0,0s0,0,.06,0a0,0,0,0,0,0-.06h0S6.59,6.61,6.59,6.63Z"/><path class="cls-12" d="M1.92,3.57l.43.09c.11.16.38.51.63.56S3.49,4,3.75,4l.56.25.19.14a1.26,1.26,0,0,0-.89.29c-.46.42-1,1.72-1.32,1.71s-.66-.44-.81-1A4.21,4.21,0,0,1,1.92,3.57Z"/><path class="cls-30" d="M2.44,3.22A.5.5,0,0,0,2.07,3a.41.41,0,0,0-.37.2,3.86,3.86,0,0,0-.36,1.61c.08.66.49,1.32,1.16.53,1-1.23,2-1.09,2-1.09S4.39,4.12,4.33,4,4,3.81,3.88,3.81s-.77.06-.81,0A.87.87,0,0,1,2.44,3.22Z"/><path class="cls-31" d="M2.31,4.15c.08,0-.19-.1-.21-.51s0-.47.11-.21c.22.48.46.54.81.41l0,0,.56,0C2.92,4,2,5.09,1.78,4.85s.13-1.24.13-1.24S1.92,4.2,2.31,4.15Z"/><path class="cls-31" d="M1.42,5.23a.6.6,0,0,0,.67.27,4.84,4.84,0,0,0,1-1C3.47,4,3.69,4,4,4a.84.84,0,0,1,.46.21.24.24,0,0,0,0,.08S3.54,4.15,2.5,5.38C2,6,1.59,5.71,1.42,5.23Z"/></g></g></g></svg>