<svg xmlns="http://www.w3.org/2000/svg" viewBox="0 0 18 12.28"><defs><style>.cls-1{fill:#0f0609;}.cls-2{fill:#979faf;}.cls-3{fill:#575f78;}.cls-4{fill:#701419;}.cls-5{fill:#c52125;}.cls-6{fill:#f4b72f;}.cls-7{fill:#d3e9f0;}.cls-8{fill:#e84248;}.cls-9{fill:#26465c;}.cls-10{fill:#a8c0ce;}</style></defs><title>img_car2_1</title><g id="レイヤー_2" data-name="レイヤー 2"><g id="乗り物"><g id="Car_4-2" data-name="Car 4-2"><g id="Wheels"><path class="cls-1" d="M5.75,10.19a2.62,2.62,0,0,1,.86-.86,1,1,0,0,1,.86-.14l.06,0,.56.33L6.25,12.2l-.56-.32a.67.67,0,0,1-.3-.63A2.07,2.07,0,0,1,5.75,10.19Z"/><path class="cls-1" d="M6,11.58a.65.65,0,0,0,.36.65,1,1,0,0,0,.86-.14A2.5,2.5,0,0,0,8,11.24a2.1,2.1,0,0,0,.36-1.07A.65.65,0,0,0,8,9.52a1,1,0,0,0-.86.14,2.5,2.5,0,0,0-.86.85A2.1,2.1,0,0,0,6,11.58Z"/><path class="cls-2" d="M6.39,11.33c0,.43.35.57.78.32A1.59,1.59,0,0,0,8,10.43c0-.43-.35-.58-.78-.33A1.59,1.59,0,0,0,6.39,11.33Z"/><path class="cls-3" d="M6.56,11c0,.22.17.29.39.17a.83.83,0,0,0,.39-.62c0-.21-.18-.29-.39-.16A.79.79,0,0,0,6.56,11Z"/><path class="cls-1" d="M14.18,5.32A2.5,2.5,0,0,1,15,4.47a1,1,0,0,1,.86-.15l.06,0,.56.33L14.68,7.34,14.12,7a.67.67,0,0,1-.3-.62A2.1,2.1,0,0,1,14.18,5.32Z"/><path class="cls-1" d="M14.39,6.71a.66.66,0,0,0,.35.66,1,1,0,0,0,.86-.15,2.5,2.5,0,0,0,.86-.85,2.1,2.1,0,0,0,.36-1.07.65.65,0,0,0-.36-.65,1,1,0,0,0-.86.14,2.68,2.68,0,0,0-.86.85A2.08,2.08,0,0,0,14.39,6.71Z"/><path class="cls-2" d="M14.82,6.46c0,.43.35.58.78.33a1.62,1.62,0,0,0,.78-1.23c0-.43-.35-.58-.78-.33A1.62,1.62,0,0,0,14.82,6.46Z"/><path class="cls-3" d="M15,6.1c0,.22.17.29.39.17a.83.83,0,0,0,.39-.62c0-.21-.18-.29-.39-.16A.79.79,0,0,0,15,6.1Z"/></g><g id="Body"><path class="cls-4" d="M16.52,4.68h0l-.4-.23a.75.75,0,0,1,.45,0,.73.73,0,0,1,.4.73v.11l-.15-.09A.67.67,0,0,0,16.52,4.68Z"/><path class="cls-4" d="M8.09,9.55h0l-.4-.23a.83.83,0,0,1,.45,0,.75.75,0,0,1,.39.74v.11l-.14-.09A.67.67,0,0,0,8.09,9.55Z"/><path class="cls-5" d="M0,8.26V7.65c0-.17,1-2.42,1.24-3a1.73,1.73,0,0,0,0-.41c-.05-.07.22-.21.39-.18A40.86,40.86,0,0,1,8.06.44a8.82,8.82,0,0,1,2.42.07A4.82,4.82,0,0,1,15.15.7c2.54,1.47,2.78,2,2.78,3,0,.72.43.84-.9,1.61l-.06,0V5.22a.73.73,0,0,0-.4-.73,1.12,1.12,0,0,0-1,.15,3,3,0,0,0-1,1,2.31,2.31,0,0,0-.4,1.19v.12L8.6,10.17l-.07,0v-.11a.75.75,0,0,0-.39-.74,1.13,1.13,0,0,0-1,.16,2.84,2.84,0,0,0-1,1,2.4,2.4,0,0,0-.39,1c-.69.4-1.4.3-3.71-1S0,8.58,0,8.26Z"/><path class="cls-6" d="M13.35,5.62l.26-.15a.27.27,0,0,0,.13-.2h0c0-.07-.06-.1-.13-.06l-.26.15a.28.28,0,0,0-.13.21h0C13.22,5.64,13.28,5.66,13.35,5.62Z"/><path class="cls-7" d="M5.43,8.81c-.3,1.32-.77,1.2-1.1,1l-.08,0a.38.38,0,0,1-.2-.45l.18-.68A2,2,0,0,0,5.43,8.81Z"/><path class="cls-7" d="M.46,6.51,1,6.8.8,7.44a.26.26,0,0,1-.38.16L.08,7.41A4.06,4.06,0,0,1,.46,6.51Z"/><path class="cls-8" d="M4.89,9.31,4.41,9a.19.19,0,0,0-.27.11h0a.19.19,0,0,0,.08.22l.48.27A.18.18,0,0,0,5,9.57H5A.19.19,0,0,0,4.89,9.31Z"/><path class="cls-8" d="M.81,7.39.4,7.15a.19.19,0,1,1,.19-.33L.91,7Z"/><path class="cls-8" d="M5.48,10.39c-.13.44.17.56.41.11A2.48,2.48,0,0,1,8.22,9,2,2,0,0,0,5.48,10.39Z"/><path class="cls-8" d="M9.19,7.34l5.28-3a.06.06,0,0,1,.08.1,3.13,3.13,0,0,0-1,2.28L9,9.35v.24l4.91-2.85a3.25,3.25,0,0,1,1.51-2.52A2,2,0,0,1,16.56,4,1.89,1.89,0,0,0,16,3.8h-.21a.13.13,0,0,1-.06-.24c1.37-.84,1.77-1.16,2-.9A7.23,7.23,0,0,0,15.15.7,4.8,4.8,0,0,0,10.49.51a4.5,4.5,0,0,1,.94.4l2.31,1.34s1.37,1.07.6,1.51L8.78,7C4.77,9.29,6.15,9.09,9.19,7.34ZM14.92.71c-1.35,0-2.64.16-3,.2.5-.15,0-.18,0-.18A10.32,10.32,0,0,1,14.92.71ZM14.5,2.78a4.08,4.08,0,0,1,1.67-1.33L14.9,2.68S14.88,2.42,14.5,2.78Z"/><path class="cls-8" d="M1.59,4.07A40.29,40.29,0,0,1,8.06.45l3.7,2.14A16.51,16.51,0,0,0,5.94,6.37a.51.51,0,0,1-.33.15l-.44,0-4-2.3C1.15,4.18,1.42,4,1.59,4.07Z"/><path class="cls-4" d="M.8,7.44,1,6.8,4.23,8.69l-.18.68a.38.38,0,0,0,.2.45L.42,7.6A.26.26,0,0,0,.8,7.44Z"/><path class="cls-8" d="M.08,7.41l.34.19L4.25,9.82l.08,0a.61.61,0,0,0,.56,0c-.79.58-1.1.29-3.13-.88L.31,8.17A.61.61,0,0,1,0,7.65H0A1,1,0,0,1,.08,7.41Z"/></g><g id="Windows"><path class="cls-9" d="M13.15,4.16,6.64,7.92S5.53,6.55,10.71,3.57A1.79,1.79,0,0,1,13.15,4.16Z"/><path class="cls-9" d="M.46,6.51,4.23,8.69a2,2,0,0,0,1.2.12,9.07,9.07,0,0,1,.59-2c-.22.09-.77.42-1.11.21L1.17,4.85Z"/><path class="cls-9" d="M8.42.56a9.66,9.66,0,0,1,2.29.11,2.55,2.55,0,0,1,.85.31l2.1,1.21a.78.78,0,0,1,.39.58l0,.37a.25.25,0,0,1-.36.26L12,2.62Z"/><path class="cls-10" d="M8,6.89a9.7,9.7,0,0,0-.2-1.27L8,5.43a6.54,6.54,0,0,1,.25,1.31l1.92-1.11a6.15,6.15,0,0,0-.29-1.55l.23-.15a5.43,5.43,0,0,1,.38,1.52L12.92,4a2.1,2.1,0,0,0-.58-.57,2.19,2.19,0,0,1,.81.7L6.64,7.92a.5.5,0,0,1-.09-.21Z"/><path class="cls-10" d="M4.59,8.59a1.57,1.57,0,0,0,.85.17v.05a2,2,0,0,1-1.2-.12L.46,6.51l.1-.24Z"/><path class="cls-10" d="M13.79,2.71,10.59.86A9.29,9.29,0,0,0,8.74.74L8.42.56a9.66,9.66,0,0,1,2.29.11,2.55,2.55,0,0,1,.85.31l2.1,1.21a.78.78,0,0,1,.39.58l0,.37a.25.25,0,0,1-.1.23C14,3.13,13.93,2.79,13.79,2.71Z"/></g></g></g></g></svg>