<svg xmlns="http://www.w3.org/2000/svg" xmlns:xlink="http://www.w3.org/1999/xlink" viewBox="0 0 82.03 54.62"><defs><style>.cls-1,.cls-10,.cls-11,.cls-17,.cls-20,.cls-25,.cls-29,.cls-37,.cls-39{fill:none;}.cls-2,.cls-4{fill:#272828;}.cls-3{fill:#4f4f4f;}.cls-4{stroke:#686868;stroke-width:0.15px;}.cls-10,.cls-11,.cls-17,.cls-20,.cls-25,.cls-28,.cls-29,.cls-33,.cls-37,.cls-38,.cls-39,.cls-4{stroke-miterlimit:10;}.cls-5{fill:#6d6d6d;}.cls-6{fill:#858585;}.cls-7{fill:#bcbcbc;}.cls-8{fill:#646464;}.cls-9{fill:#adadad;}.cls-10{stroke:#8c8c8c;}.cls-10,.cls-11,.cls-17,.cls-20,.cls-38{stroke-width:0.1px;}.cls-11{stroke:#b2b2b2;}.cls-12{fill:#363636;}.cls-13{fill:#db6d47;}.cls-14{fill:#c4c4c4;}.cls-15{fill:#aaa;}.cls-16{fill:#4d4d4d;}.cls-17{stroke:#be5a46;}.cls-18,.cls-19{fill:#494949;}.cls-19{opacity:0.5;}.cls-20{stroke:#bcbcbc;}.cls-21{fill:#e35e3b;}.cls-22,.cls-38{fill:#5c5c5c;}.cls-23{fill:#c0bfbf;}.cls-24{clip-path:url(#clip-path);}.cls-25{stroke:#646464;}.cls-25,.cls-28,.cls-37,.cls-39{stroke-width:0.08px;}.cls-26{fill:#4f6647;}.cls-27{fill:#a63833;}.cls-28,.cls-34{fill:#fff;}.cls-28{stroke:#9e9e9e;}.cls-29{stroke:#e8e8e8;}.cls-29,.cls-37,.cls-38,.cls-39{stroke-linecap:round;}.cls-29,.cls-33{stroke-width:0.05px;}.cls-30{fill:url(#名称未設定グラデーション_21);}.cls-31{fill:#a8472d;}.cls-32{fill:#ec7358;}.cls-33{fill:#cfcfcf;stroke:#d26a46;}.cls-35{fill:#a4a4a4;}.cls-36{fill:#ddd;}.cls-37{stroke:#a3a3a3;}.cls-38{stroke:#c0bfbf;}.cls-39{stroke:#b7b7b7;}.cls-40{fill:#f4f4f4;}.cls-41{fill:#a3a3a3;}</style><clipPath id="clip-path" transform="translate(1.06)"><path class="cls-1" d="M.19,36.51,0,44.9a.76.76,0,0,0,0,.15l.91,3.27a.71.71,0,0,0,.37.53l7.35,4.32a.75.75,0,0,0,.87-.08l1.56-1.31a.74.74,0,0,0,.27-.56l.21-9a.78.78,0,0,0-.38-.67L1.33,35.87A.76.76,0,0,0,.19,36.51Z"/></clipPath><linearGradient id="名称未設定グラデーション_21" x1="6.03" y1="40.36" x2="6.65" y2="39.28" gradientUnits="userSpaceOnUse"><stop offset="0" stop-color="#b5543a" stop-opacity="0"/><stop offset="0.07" stop-color="#b5543a" stop-opacity="0.04"/><stop offset="0.18" stop-color="#b5543a" stop-opacity="0.16"/><stop offset="0.32" stop-color="#b5543a" stop-opacity="0.36"/><stop offset="0.48" stop-color="#b5543a" stop-opacity="0.63"/><stop offset="0.65" stop-color="#b5543a" stop-opacity="0.98"/><stop offset="0.66" stop-color="#b5543a"/></linearGradient></defs><title>img_train</title><g id="レイヤー_2" data-name="レイヤー 2"><g id="乗り物"><g id="レイヤー_13" data-name="レイヤー 13"><g id="train"><path class="cls-2" d="M47.9,32.74c0,.84.68,1.29,1.57,1a2.39,2.39,0,0,0,1.65-2c0-.84-.68-1.3-1.57-1A2.37,2.37,0,0,0,47.9,32.74Z" transform="translate(1.06)"/><polygon class="cls-2" points="50.05 34.21 49.36 33.63 50.05 32.72 50.45 33.46 50.05 34.21"/><polygon class="cls-2" points="51.78 30.85 52.51 31.48 52.05 32.34 50.83 31.27 51.78 30.85"/><path class="cls-3" d="M48.58,33.32c0,.83.69,1.29,1.58,1a2.4,2.4,0,0,0,1.65-2c0-.84-.69-1.3-1.57-1A2.39,2.39,0,0,0,48.58,33.32Z" transform="translate(1.06)"/><path class="cls-2" d="M49.31,32.87c0,.35.29.54.66.43a1,1,0,0,0,.7-.85c0-.35-.29-.55-.66-.43A1,1,0,0,0,49.31,32.87Z" transform="translate(1.06)"/><polygon class="cls-2" points="50.44 33.14 50.59 33.41 50.59 33.09 50.44 33.14"/><polygon class="cls-2" points="51.51 32.04 51.81 32.2 51.67 32.26 51.51 32.04"/><path class="cls-4" d="M49.53,33.09c0,.35.29.54.67.43a1,1,0,0,0,.69-.85c0-.35-.29-.55-.66-.43A1,1,0,0,0,49.53,33.09Z" transform="translate(1.06)"/><path class="cls-2" d="M54,29.67c0,.83.69,1.29,1.58,1a2.4,2.4,0,0,0,1.65-2c0-.84-.69-1.3-1.57-1A2.39,2.39,0,0,0,54,29.67Z" transform="translate(1.06)"/><polygon class="cls-2" points="56.19 31.14 55.5 30.56 56.19 29.64 56.59 30.39 56.19 31.14"/><polygon class="cls-2" points="57.93 27.78 58.66 28.41 58.2 29.27 56.98 28.2 57.93 27.78"/><path class="cls-3" d="M54.73,30.25c0,.83.69,1.28,1.57,1a2.38,2.38,0,0,0,1.66-2c0-.84-.69-1.3-1.57-1A2.4,2.4,0,0,0,54.73,30.25Z" transform="translate(1.06)"/><path class="cls-2" d="M55.46,29.8c0,.35.29.54.66.43a1,1,0,0,0,.7-.85c0-.35-.29-.55-.67-.43A1,1,0,0,0,55.46,29.8Z" transform="translate(1.06)"/><polygon class="cls-2" points="56.58 30.07 56.74 30.34 56.74 30.02 56.58 30.07"/><polygon class="cls-2" points="57.66 28.97 57.95 29.13 57.82 29.19 57.66 28.97"/><path class="cls-4" d="M55.68,30c0,.35.29.54.66.42a1,1,0,0,0,.7-.84c0-.36-.29-.55-.66-.43A1,1,0,0,0,55.68,30Z" transform="translate(1.06)"/><path class="cls-5" d="M51.16,32.31l4.12-2.13a1.51,1.51,0,0,1,.77-1.52,1,1,0,0,1,1.14.26s.24.09.27,0-.09-.22-.14-.3a1.25,1.25,0,0,0-1.39-.23,2,2,0,0,0-1,1.67l-3.53,1.86a1.43,1.43,0,0,0-1.71-.31,1.68,1.68,0,0,0-.82,1.56l.09.16.18-.16s0-1,.66-1.29A1,1,0,0,1,51.16,32.31Z" transform="translate(1.06)"/><path class="cls-6" d="M51.29,32.45l4-2.09a.06.06,0,0,0,0-.06,1.46,1.46,0,0,1,.78-1.48,1,1,0,0,1,1.13.26s.32,0,.13-.29A1.22,1.22,0,0,0,56,28.56a1.85,1.85,0,0,0-1,1.54.05.05,0,0,1,0,0l-3.62,1.91a.06.06,0,0,1-.06,0,1.27,1.27,0,0,0-1.58-.27,1.63,1.63,0,0,0-.82,1.55h.27s0-1,.65-1.29a1,1,0,0,1,1.39.39A0,0,0,0,0,51.29,32.45Z" transform="translate(1.06)"/><path class="cls-2" d="M58.69,27.06c0,.84.69,1.29,1.57,1a2.4,2.4,0,0,0,1.66-2c0-.84-.69-1.3-1.58-1A2.39,2.39,0,0,0,58.69,27.06Z" transform="translate(1.06)"/><polygon class="cls-2" points="60.84 28.53 60.15 27.96 60.84 27.04 61.24 27.79 60.84 28.53"/><polygon class="cls-2" points="62.58 25.18 63.3 25.8 62.84 26.66 61.62 25.59 62.58 25.18"/><path class="cls-3" d="M59.38,27.64c0,.84.68,1.29,1.57,1a2.39,2.39,0,0,0,1.65-2c0-.84-.68-1.3-1.57-1A2.37,2.37,0,0,0,59.38,27.64Z" transform="translate(1.06)"/><path class="cls-2" d="M60.1,27.19c0,.35.29.55.66.43a1,1,0,0,0,.7-.85c0-.35-.29-.54-.66-.43A1,1,0,0,0,60.1,27.19Z" transform="translate(1.06)"/><polygon class="cls-2" points="61.23 27.46 61.38 27.73 61.38 27.41 61.23 27.46"/><polygon class="cls-2" points="62.3 26.37 62.6 26.53 62.47 26.58 62.3 26.37"/><path class="cls-4" d="M60.33,27.41c0,.35.29.54.66.43a1,1,0,0,0,.7-.85c0-.35-.29-.55-.67-.43A1,1,0,0,0,60.33,27.41Z" transform="translate(1.06)"/><path class="cls-2" d="M64.84,24c0,.84.68,1.29,1.57,1a2.39,2.39,0,0,0,1.65-2c0-.84-.68-1.3-1.57-1A2.37,2.37,0,0,0,64.84,24Z" transform="translate(1.06)"/><polygon class="cls-2" points="66.99 25.46 66.3 24.88 66.99 23.97 67.39 24.71 66.99 25.46"/><polygon class="cls-2" points="68.72 22.1 69.45 22.73 68.99 23.59 67.77 22.52 68.72 22.1"/><path class="cls-3" d="M65.52,24.57c0,.83.69,1.29,1.58,1a2.4,2.4,0,0,0,1.65-2c0-.84-.69-1.3-1.57-1A2.39,2.39,0,0,0,65.52,24.57Z" transform="translate(1.06)"/><path class="cls-2" d="M66.25,24.12c0,.35.29.54.66.43a1,1,0,0,0,.7-.85c0-.35-.29-.55-.66-.43A1,1,0,0,0,66.25,24.12Z" transform="translate(1.06)"/><polygon class="cls-2" points="67.38 24.39 67.53 24.66 67.53 24.34 67.38 24.39"/><polygon class="cls-2" points="68.45 23.29 68.75 23.45 68.61 23.51 68.45 23.29"/><path class="cls-4" d="M66.47,24.34c0,.35.29.54.67.43a1,1,0,0,0,.69-.85c0-.35-.29-.55-.66-.43A1,1,0,0,0,66.47,24.34Z" transform="translate(1.06)"/><path class="cls-5" d="M62,26.64l4.11-2.14A1.51,1.51,0,0,1,66.85,23a1,1,0,0,1,1.13.26s.24.09.27,0-.08-.22-.14-.29a1.23,1.23,0,0,0-1.39-.24,2,2,0,0,0-1,1.67l-3.53,1.86a1.43,1.43,0,0,0-1.71-.3,1.63,1.63,0,0,0-.82,1.55l.08.16.19-.16s0-1,.65-1.29A1,1,0,0,1,62,26.64Z" transform="translate(1.06)"/><path class="cls-6" d="M62.08,26.78l4-2.1a.06.06,0,0,0,0-.06,1.48,1.48,0,0,1,.78-1.48,1,1,0,0,1,1.13.26s.32,0,.13-.29a1.2,1.2,0,0,0-1.38-.23,1.85,1.85,0,0,0-1,1.55.05.05,0,0,1,0,0l-3.62,1.91a.06.06,0,0,1-.07,0,1.29,1.29,0,0,0-1.58-.27,1.67,1.67,0,0,0-.82,1.55H60s0-1,.65-1.28a1,1,0,0,1,1.39.38A.06.06,0,0,0,62.08,26.78Z" transform="translate(1.06)"/><path class="cls-2" d="M69.52,21.47c0,.84.68,1.29,1.57,1a2.39,2.39,0,0,0,1.65-2c0-.84-.69-1.3-1.57-1A2.39,2.39,0,0,0,69.52,21.47Z" transform="translate(1.06)"/><polygon class="cls-2" points="71.67 22.94 70.97 22.37 71.67 21.45 72.07 22.2 71.67 22.94"/><polygon class="cls-2" points="73.4 19.59 74.13 20.21 73.67 21.07 72.45 20 73.4 19.59"/><path class="cls-3" d="M70.2,22.05c0,.84.69,1.29,1.58,1a2.39,2.39,0,0,0,1.65-2c0-.84-.69-1.3-1.57-1A2.39,2.39,0,0,0,70.2,22.05Z" transform="translate(1.06)"/><path class="cls-2" d="M70.93,21.6c0,.35.29.55.66.43a1,1,0,0,0,.7-.84c0-.36-.29-.55-.66-.44A1,1,0,0,0,70.93,21.6Z" transform="translate(1.06)"/><polygon class="cls-2" points="72.05 21.87 72.21 22.14 72.21 21.82 72.05 21.87"/><polygon class="cls-2" points="73.13 20.78 73.42 20.94 73.29 20.99 73.13 20.78"/><path class="cls-4" d="M71.15,21.82c0,.35.29.54.67.43a1,1,0,0,0,.69-.85c0-.35-.29-.55-.66-.43A1,1,0,0,0,71.15,21.82Z" transform="translate(1.06)"/><path class="cls-2" d="M75.66,18.4c0,.84.69,1.29,1.58,1a2.39,2.39,0,0,0,1.65-2c0-.84-.69-1.3-1.57-1A2.37,2.37,0,0,0,75.66,18.4Z" transform="translate(1.06)"/><polygon class="cls-2" points="77.81 19.87 77.12 19.29 77.81 18.38 78.21 19.12 77.81 19.87"/><polygon class="cls-2" points="79.55 16.52 80.28 17.14 79.82 18 78.6 16.93 79.55 16.52"/><path class="cls-3" d="M76.35,19c0,.83.69,1.29,1.57,1a2.4,2.4,0,0,0,1.66-2c0-.84-.69-1.3-1.57-1A2.37,2.37,0,0,0,76.35,19Z" transform="translate(1.06)"/><path class="cls-2" d="M77.07,18.53c0,.35.29.54.67.43a1,1,0,0,0,.7-.85c0-.35-.29-.55-.67-.43A1,1,0,0,0,77.07,18.53Z" transform="translate(1.06)"/><polygon class="cls-2" points="78.2 18.8 78.36 19.07 78.36 18.75 78.2 18.8"/><polygon class="cls-2" points="79.28 17.7 79.57 17.86 79.44 17.92 79.28 17.7"/><path class="cls-4" d="M77.3,18.75c0,.35.29.54.66.43a1,1,0,0,0,.7-.85c0-.35-.29-.55-.66-.43A1,1,0,0,0,77.3,18.75Z" transform="translate(1.06)"/><path class="cls-5" d="M72.78,21.05l4.12-2.14a1.52,1.52,0,0,1,.77-1.52,1,1,0,0,1,1.14.26s.24.1.27,0-.09-.22-.14-.29a1.24,1.24,0,0,0-1.39-.24,2,2,0,0,0-1,1.67L73,20.65a1.43,1.43,0,0,0-1.71-.3,1.66,1.66,0,0,0-.82,1.55l.08.16.19-.16s0-1,.66-1.29A1,1,0,0,1,72.78,21.05Z" transform="translate(1.06)"/><path class="cls-6" d="M72.91,21.19l4-2.1A.06.06,0,0,0,77,19a1.47,1.47,0,0,1,.78-1.48,1,1,0,0,1,1.13.26s.32,0,.13-.29a1.22,1.22,0,0,0-1.39-.23,1.86,1.86,0,0,0-1,1.55s0,0,0,0L73,20.79s0,0-.06,0a1.31,1.31,0,0,0-1.59-.27,1.67,1.67,0,0,0-.82,1.55h.28s0-1,.65-1.28a1,1,0,0,1,1.39.38A.05.05,0,0,0,72.91,21.19Z" transform="translate(1.06)"/><path class="cls-7" d="M35.31,19.31c.93-2,1.55-2.13,3.92-3.33S69.46.51,69.94.27s.55-.31,1-.24a13.36,13.36,0,0,1,4.32,1.7C77.35,3,80.39,5.07,80.67,5.67a4.07,4.07,0,0,1,.19,1.93l-.3,8.14L46.12,33.54s-.07-6.06,0-7.81a2.84,2.84,0,0,0-1.34-2.88C44.2,22.47,35.31,19.31,35.31,19.31Z" transform="translate(1.06)"/><path class="cls-6" d="M80.68,15.63,81,6.76l-.08-.67c0-.09-.09-.3-.17-.25L46.56,23.63a.11.11,0,0,0-.06.1l-.12,9.49a.13.13,0,0,0,.18.11L80.62,15.74A.11.11,0,0,0,80.68,15.63Z" transform="translate(1.06)"/><polygon class="cls-8" points="45.48 34.99 80.5 16.9 81.74 15.63 47.5 33.23 45.48 34.99"/><path class="cls-9" d="M45.76,22.91a2.11,2.11,0,0,1,.78,1.77L81,6.76A1.71,1.71,0,0,0,80,5Z" transform="translate(1.06)"/><line class="cls-10" x1="47.59" y1="25.07" x2="81.99" y2="7.15"/><line class="cls-11" x1="47.53" y1="24.4" x2="82" y2="6.45"/><line class="cls-11" x1="47.45" y1="24.07" x2="81.97" y2="6.12"/><line class="cls-11" x1="47.37" y1="23.75" x2="81.85" y2="5.79"/><line class="cls-11" x1="47.21" y1="23.46" x2="81.67" y2="5.51"/><path class="cls-12" d="M35.7,19l-.59,7.66a.61.61,0,0,0,0,.14l.9,3.28a.77.77,0,0,0,.38.53l7.35,4.32a.79.79,0,0,0,.87-.08l1.56-1.31a.79.79,0,0,0,.27-.57l.09-8.29a2.14,2.14,0,0,0-.9-1.88,30.47,30.47,0,0,0-5.39-3.56,16.94,16.94,0,0,0-3-1.33C36.44,17.69,35.73,17.88,35.7,19Z" transform="translate(1.06)"/><polygon class="cls-13" points="81.8 13.71 49.31 29.93 49.31 28.2 81.84 11.98 81.8 13.71"/><path class="cls-14" d="M58.27,14.85a30.64,30.64,0,0,0-4-2.52c-1.21-.6-2.49-1.14-2.49-1.14a10.07,10.07,0,0,1,4.1.64,5.63,5.63,0,0,1,2.35,1.73Z" transform="translate(1.06)"/><path class="cls-14" d="M51.82,11.19l-5.88,3a16.15,16.15,0,0,1,4.4,1.48c1.23.86,2,1.34,2,1.34l5.67-2.94a6.72,6.72,0,0,0-2.31-1.68A38.82,38.82,0,0,0,51.82,11.19Z" transform="translate(1.06)"/><polygon class="cls-6" points="53.44 16.57 53.44 17.9 59.31 14.79 59.31 13.48 53.44 16.57"/><path class="cls-15" d="M52.38,17.9a29.31,29.31,0,0,0-4-2.56c-1.21-.6-2.49-1.13-2.49-1.13a6.87,6.87,0,0,1,4.09.63,6.06,6.06,0,0,1,2.35,1.73Z" transform="translate(1.06)"/><polygon class="cls-16" points="53.88 16.77 53.89 16.67 55.19 15.99 55.18 16.09 53.88 16.77"/><polygon class="cls-16" points="53.88 16.93 53.89 16.83 55.19 16.15 55.18 16.26 53.88 16.93"/><polygon class="cls-16" points="53.88 17.1 53.89 16.99 55.19 16.32 55.18 16.42 53.88 17.1"/><polygon class="cls-16" points="53.88 17.26 53.89 17.16 55.19 16.48 55.18 16.58 53.88 17.26"/><path class="cls-14" d="M70.48,8.21a30.64,30.64,0,0,0-4-2.52C65.31,5.09,64,4.56,64,4.56a9.94,9.94,0,0,1,4.09.63,5.74,5.74,0,0,1,2.35,1.73Z" transform="translate(1.06)"/><path class="cls-14" d="M64,4.56l-5.89,3a16.18,16.18,0,0,1,4.41,1.48c1.23.87,2,1.34,2,1.34l5.67-2.94A6.76,6.76,0,0,0,68,5.78,38.82,38.82,0,0,0,64,4.56Z" transform="translate(1.06)"/><polygon class="cls-6" points="65.66 9.94 65.66 11.27 71.53 8.15 71.53 6.84 65.66 9.94"/><path class="cls-15" d="M64.6,11.26a28.36,28.36,0,0,0-4-2.55c-1.21-.6-2.49-1.14-2.49-1.14a7,7,0,0,1,4.1.64A5.94,5.94,0,0,1,64.6,9.94Z" transform="translate(1.06)"/><polygon class="cls-16" points="66.09 10.13 66.1 10.02 67.4 9.34 67.39 9.45 66.09 10.13"/><polygon class="cls-16" points="66.09 10.29 66.1 10.18 67.4 9.51 67.39 9.61 66.09 10.29"/><polygon class="cls-16" points="66.09 10.45 66.1 10.35 67.4 9.67 67.39 9.77 66.09 10.45"/><polygon class="cls-16" points="66.09 10.62 66.1 10.51 67.4 9.83 67.39 9.94 66.09 10.62"/><line class="cls-17" x1="49.48" y1="29.47" x2="81.84" y2="13.24"/><line class="cls-17" x1="49.48" y1="29.02" x2="81.84" y2="12.79"/><line class="cls-17" x1="81.84" y1="12.34" x2="49.48" y2="28.57"/><line class="cls-10" x1="81.84" y1="13.69" x2="49.48" y2="29.92"/><line class="cls-10" x1="49.48" y1="30.37" x2="81.84" y2="14.14"/><line class="cls-10" x1="49.48" y1="30.82" x2="81.84" y2="14.59"/><path class="cls-6" d="M47.4,32s-.07-.06-.07-.12l-.07-6.38a.32.32,0,0,1,.15-.28l2.42-1.26L50,30.47a.32.32,0,0,1-.15.28L47.43,32Z" transform="translate(1.06)"/><path class="cls-18" d="M47.66,28.78s-.06,0-.07-.11l0-3a.31.31,0,0,1,.13-.24l1.85-.91h0c.06,0,.08,0,.08.11l0,3a.25.25,0,0,1-.12.24l-1.85.88Z" transform="translate(1.06)"/><path class="cls-7" d="M49.57,24.55s0,0,0,.07l0,3a.23.23,0,0,1-.1.2l-1.86.88s0,0,0-.07l0-3a.21.21,0,0,1,.1-.2l1.84-.91h0m0-.08h0l-1.84.91a.28.28,0,0,0-.15.27l0,3c0,.09.05.15.11.15h.05l1.84-.88a.29.29,0,0,0,.15-.27l0-3c0-.1,0-.15-.1-.15Z" transform="translate(1.06)"/><path class="cls-19" d="M47.36,25.41l2.36-1.26a.07.07,0,0,1,.08.07l.05,6.42a.38.38,0,0,1,0,.1s.09,0,.13,0,0,0,0-.08l-.07-6.42c0-.12,0-.22-.1-.22l-.1,0L47.3,25.28c-.09,0,0,.17-.07.29h.07C47.31,25.51,47.31,25.43,47.36,25.41Z" transform="translate(1.06)"/><path class="cls-7" d="M49.85,24v0l.08,6.42a.26.26,0,0,1-.11.22l-2.4,1.22s0,0,0-.06l-.07-6.38a.26.26,0,0,1,.11-.22L49.85,24m0-.15H49.8l-2.42,1.25a.37.37,0,0,0-.19.35l.07,6.38c0,.12.06.19.14.19h.06l2.42-1.21a.39.39,0,0,0,.19-.35L50,24c0-.11-.06-.18-.14-.18Z" transform="translate(1.06)"/><path class="cls-6" d="M55.75,27.73s-.07-.07-.07-.12l-.07-6.39a.34.34,0,0,1,.15-.28l2.42-1.25.17,6.54a.34.34,0,0,1-.15.28l-2.42,1.21Z" transform="translate(1.06)"/><path class="cls-18" d="M56,24.54s-.06-.05-.07-.11l0-3a.25.25,0,0,1,.12-.24l1.85-.91h0c.06,0,.08,0,.08.1l0,3a.25.25,0,0,1-.12.24L56,24.53Z" transform="translate(1.06)"/><path class="cls-7" d="M57.92,20.3s0,0,0,.07l0,3a.26.26,0,0,1-.1.21L56,24.5s0,0,0-.07l0-3a.24.24,0,0,1,.1-.21l1.84-.9h0m0-.08h-.05L56,21.14a.29.29,0,0,0-.15.28l0,3c0,.09.05.15.11.15h.05l1.84-.88a.29.29,0,0,0,.15-.28l0-3c0-.09,0-.15-.1-.15Z" transform="translate(1.06)"/><path class="cls-19" d="M55.71,21.17l2.36-1.26c.07,0,.08.05.08.07l.05,6.41a.45.45,0,0,1,0,.11s.09-.06.13,0,0,0,0-.07L58.27,20c0-.11,0-.22-.1-.22a.47.47,0,0,0-.1.05L55.65,21c-.09,0,0,.16-.07.28l.07,0C55.67,21.26,55.66,21.19,55.71,21.17Z" transform="translate(1.06)"/><path class="cls-7" d="M58.2,19.76v0l.08,6.43a.29.29,0,0,1-.11.22l-2.4,1.21s0,0,0-.05l-.07-6.39a.29.29,0,0,1,.11-.22l2.41-1.24m0-.15-.06,0-2.42,1.25a.36.36,0,0,0-.19.34l.07,6.39c0,.11.06.19.14.19l.06,0,2.42-1.21a.38.38,0,0,0,.19-.34l-.07-6.43c0-.12-.06-.19-.14-.19Z" transform="translate(1.06)"/><path class="cls-6" d="M64,23.48s-.06-.06-.06-.12L63.86,17a.34.34,0,0,1,.15-.28l2.43-1.25L66.61,22a.34.34,0,0,1-.15.28L64,23.47Z" transform="translate(1.06)"/><path class="cls-18" d="M64.27,20.29s-.07-.05-.07-.11l0-3a.28.28,0,0,1,.13-.24L66.14,16h0c.06,0,.08,0,.08.1l0,3.05a.27.27,0,0,1-.13.23l-1.84.88Z" transform="translate(1.06)"/><path class="cls-7" d="M66.17,16.05s0,0,0,.07l0,3.05a.24.24,0,0,1-.11.2l-1.85.88s0,0,0-.07l0-3a.24.24,0,0,1,.11-.2l1.84-.91h0m0-.08h0l-1.84.91a.34.34,0,0,0-.15.28l0,3c0,.09,0,.15.11.15h0l1.84-.88a.33.33,0,0,0,.15-.28l0-3c0-.09,0-.15-.11-.15Z" transform="translate(1.06)"/><path class="cls-19" d="M64,16.92l2.35-1.26c.08,0,.08.05.08.07l0,6.41a.23.23,0,0,1,0,.11s.1-.06.14,0,0,0,0-.07l-.08-6.43c0-.11,0-.22-.09-.22l-.11,0L63.9,16.79c-.09,0,0,.16-.07.28l.08,0C63.92,17,63.92,16.94,64,16.92Z" transform="translate(1.06)"/><path class="cls-7" d="M66.45,15.51a.06.06,0,0,1,0,0L66.53,22a.24.24,0,0,1-.11.22L64,23.41a.12.12,0,0,1,0-.05L63.94,17a.24.24,0,0,1,.11-.22l2.4-1.24m0-.15-.06,0L64,16.63a.4.4,0,0,0-.19.34l.08,6.39c0,.12.05.19.13.19l.06,0,2.43-1.2a.43.43,0,0,0,.19-.35l-.08-6.43c0-.11,0-.19-.13-.19Z" transform="translate(1.06)"/><path class="cls-6" d="M72.24,19.3s-.06-.06-.06-.12l-.07-6.39a.3.3,0,0,1,.15-.28l2.42-1.25.17,6.54a.34.34,0,0,1-.15.28l-2.43,1.21Z" transform="translate(1.06)"/><path class="cls-18" d="M72.51,16.11s-.07-.05-.07-.11l0-3a.28.28,0,0,1,.13-.24l1.84-.91h0c.06,0,.08,0,.08.1l0,3a.26.26,0,0,1-.13.24l-1.84.88Z" transform="translate(1.06)"/><path class="cls-7" d="M74.42,11.87s0,0,0,.07l0,3a.26.26,0,0,1-.1.21l-1.86.88s0,0,0-.07l0-3a.27.27,0,0,1,.11-.21l1.84-.9h0m0-.08h0l-1.84.91a.32.32,0,0,0-.16.28l0,3c0,.09,0,.15.11.15h0l1.84-.88a.31.31,0,0,0,.15-.28l0-3c0-.09,0-.15-.1-.15Z" transform="translate(1.06)"/><path class="cls-19" d="M72.21,12.74l2.35-1.26a.07.07,0,0,1,.09.07l0,6.41a.45.45,0,0,1,0,.11s.09-.06.13,0,0,0,0-.07l-.08-6.43c0-.11,0-.22-.09-.22l-.1,0-2.43,1.25c-.08,0,0,.16-.06.28l.07,0C72.16,12.83,72.16,12.76,72.21,12.74Z" transform="translate(1.06)"/><path class="cls-7" d="M74.7,11.33v0l.08,6.43a.29.29,0,0,1-.11.22l-2.41,1.21a.12.12,0,0,1,0-.05l-.07-6.39a.29.29,0,0,1,.11-.22l2.41-1.24m0-.15-.06,0-2.42,1.25a.38.38,0,0,0-.2.34l.08,6.39c0,.11.06.19.13.19l.07,0,2.42-1.21a.38.38,0,0,0,.19-.34l-.07-6.43c0-.11-.06-.19-.14-.19Z" transform="translate(1.06)"/><path class="cls-18" d="M50.58,26.69a.13.13,0,0,1-.13-.13l0-2.77a.13.13,0,0,1,.08-.13L55,21.4h0c.06,0,.1,0,.1.08l0,2.91a.16.16,0,0,1-.08.13l-4.42,2.15Z" transform="translate(1.06)"/><path class="cls-7" d="M55,21.43a.05.05,0,0,1,0,.05l0,2.91a.1.1,0,0,1-.06.09l-4.42,2.16h0a.1.1,0,0,1-.09-.09l0-2.77a.11.11,0,0,1,.06-.1L55,21.44s0,0,0,0m0-.08-.06,0-4.47,2.25a.21.21,0,0,0-.1.17l0,2.77a.17.17,0,0,0,.17.17l.07,0,4.42-2.16a.18.18,0,0,0,.1-.17l0-2.9a.13.13,0,0,0-.13-.13Z" transform="translate(1.06)"/><path class="cls-18" d="M58.92,22.51a.13.13,0,0,1-.13-.12l0-2.78a.16.16,0,0,1,.08-.13l4.47-2.25h0a.09.09,0,0,1,.1.08l0,2.91a.13.13,0,0,1-.08.13L59,22.5Z" transform="translate(1.06)"/><path class="cls-7" d="M63.34,17.26s0,0,0,0l0,2.91a.11.11,0,0,1-.06.1L59,22.46h0a.09.09,0,0,1-.09-.08l0-2.78a.1.1,0,0,1,.06-.09l4.47-2.26h0m0-.08h-.06l-4.47,2.26a.18.18,0,0,0-.1.16l0,2.78a.17.17,0,0,0,.17.16l.07,0,4.42-2.15a.19.19,0,0,0,.1-.17l0-2.91a.12.12,0,0,0-.13-.12Z" transform="translate(1.06)"/><path class="cls-18" d="M67.18,18.37a.14.14,0,0,1-.13-.12l0-2.78a.16.16,0,0,1,.08-.13l4.47-2.26h0c.06,0,.1,0,.1.08l0,2.91a.14.14,0,0,1-.08.13l-4.42,2.16Z" transform="translate(1.06)"/><path class="cls-7" d="M71.6,13.12s.05,0,.05,0l0,2.91a.09.09,0,0,1-.06.09l-4.41,2.16h0a.09.09,0,0,1-.09-.08l0-2.78a.11.11,0,0,1,.06-.09l4.47-2.26h0m0-.08h-.06l-4.47,2.26a.18.18,0,0,0-.1.16l0,2.78a.17.17,0,0,0,.17.16l.07,0,4.42-2.15a.21.21,0,0,0,.1-.17l0-2.91A.12.12,0,0,0,71.6,13Z" transform="translate(1.06)"/><path class="cls-18" d="M75.38,14.28a.12.12,0,0,1-.12-.12l0-2.77a.13.13,0,0,1,.08-.13L79.77,9h0c.07,0,.1,0,.11.08l0,2.9a.13.13,0,0,1-.08.13l-4.42,2.16Z" transform="translate(1.06)"/><path class="cls-7" d="M79.81,9s0,0,0,.05l0,2.9a.11.11,0,0,1-.06.1l-4.42,2.15h0a.08.08,0,0,1-.08-.08l0-2.77a.11.11,0,0,1,.06-.1L79.79,9h0m0-.08h-.06l-4.47,2.26a.19.19,0,0,0-.1.17l0,2.77a.16.16,0,0,0,.16.16h.08l4.41-2.16A.18.18,0,0,0,80,12l0-2.91A.14.14,0,0,0,79.81,9Z" transform="translate(1.06)"/><line class="cls-20" x1="51.51" y1="25.25" x2="56.1" y2="22.91"/><line class="cls-20" x1="54.05" y1="23.92" x2="54.05" y2="25.5"/><line class="cls-20" x1="59.89" y1="21.07" x2="64.48" y2="18.73"/><line class="cls-20" x1="62.43" y1="19.74" x2="62.43" y2="21.32"/><line class="cls-20" x1="68.13" y1="16.98" x2="72.73" y2="14.64"/><line class="cls-20" x1="70.68" y1="15.65" x2="70.68" y2="17.23"/><line class="cls-20" x1="76.34" y1="12.88" x2="80.93" y2="10.54"/><line class="cls-20" x1="78.88" y1="11.55" x2="78.88" y2="13.13"/><path class="cls-2" d="M12.79,51c0,.83.69,1.28,1.57,1A2.39,2.39,0,0,0,16,50c0-.84-.68-1.3-1.57-1A2.39,2.39,0,0,0,12.79,51Z" transform="translate(1.06)"/><polygon class="cls-2" points="14.94 52.45 14.25 51.88 14.94 50.96 15.34 51.71 14.94 52.45"/><polygon class="cls-2" points="16.68 49.1 17.4 49.73 16.94 50.59 15.72 49.51 16.68 49.1"/><path class="cls-3" d="M13.48,51.56c0,.84.68,1.29,1.57,1a2.39,2.39,0,0,0,1.65-2c0-.84-.68-1.3-1.57-1A2.39,2.39,0,0,0,13.48,51.56Z" transform="translate(1.06)"/><path class="cls-2" d="M14.2,51.11c0,.36.29.55.66.43a1,1,0,0,0,.7-.84c0-.36-.29-.55-.66-.43A1,1,0,0,0,14.2,51.11Z" transform="translate(1.06)"/><polygon class="cls-2" points="15.33 51.38 15.48 51.66 15.48 51.33 15.33 51.38"/><polygon class="cls-2" points="16.4 50.29 16.7 50.45 16.57 50.5 16.4 50.29"/><path class="cls-4" d="M14.42,51.33c0,.35.29.54.67.43a1,1,0,0,0,.7-.85c0-.35-.29-.54-.67-.43A1,1,0,0,0,14.42,51.33Z" transform="translate(1.06)"/><path class="cls-2" d="M18.93,47.91c0,.84.69,1.29,1.58,1a2.39,2.39,0,0,0,1.65-2c0-.84-.69-1.3-1.57-1A2.4,2.4,0,0,0,18.93,47.91Z" transform="translate(1.06)"/><polygon class="cls-2" points="21.09 49.38 20.39 48.81 21.09 47.89 21.48 48.63 21.09 49.38"/><polygon class="cls-2" points="22.82 46.03 23.55 46.65 23.09 47.51 21.87 46.44 22.82 46.03"/><path class="cls-3" d="M19.62,48.49c0,.84.69,1.29,1.58,1a2.39,2.39,0,0,0,1.65-2c0-.84-.69-1.3-1.57-1A2.39,2.39,0,0,0,19.62,48.49Z" transform="translate(1.06)"/><path class="cls-2" d="M20.35,48c0,.35.29.55.66.43a1,1,0,0,0,.7-.85c0-.35-.29-.54-.67-.43A1,1,0,0,0,20.35,48Z" transform="translate(1.06)"/><polygon class="cls-2" points="21.47 48.31 21.63 48.59 21.63 48.26 21.47 48.31"/><polygon class="cls-2" points="22.55 47.22 22.84 47.38 22.71 47.43 22.55 47.22"/><path class="cls-4" d="M20.57,48.26c0,.35.29.54.66.43a1,1,0,0,0,.7-.85c0-.35-.29-.55-.66-.43A1,1,0,0,0,20.57,48.26Z" transform="translate(1.06)"/><path class="cls-5" d="M16.05,50.56l4.12-2.14A1.51,1.51,0,0,1,21,46.9a1,1,0,0,1,1.13.26s.24.1.27,0-.08-.22-.14-.29a1.22,1.22,0,0,0-1.39-.23,2,2,0,0,0-1,1.66l-3.53,1.87a1.42,1.42,0,0,0-1.71-.31,1.64,1.64,0,0,0-.82,1.55l.08.17.19-.17s0-1,.65-1.28A1,1,0,0,1,16.05,50.56Z" transform="translate(1.06)"/><path class="cls-6" d="M16.18,50.7l4-2.1a.05.05,0,0,0,0-.05A1.48,1.48,0,0,1,21,47.06a1,1,0,0,1,1.13.26s.32,0,.13-.29a1.23,1.23,0,0,0-1.39-.23,1.86,1.86,0,0,0-1,1.55s0,0,0,0L16.26,50.3s0,0-.06,0A1.29,1.29,0,0,0,14.62,50a1.64,1.64,0,0,0-.82,1.56h.27s0-1,.65-1.29a1,1,0,0,1,1.39.38A.06.06,0,0,0,16.18,50.7Z" transform="translate(1.06)"/><path class="cls-2" d="M23.58,45.31c0,.83.69,1.29,1.57,1a2.41,2.41,0,0,0,1.66-2c0-.84-.69-1.3-1.57-1A2.37,2.37,0,0,0,23.58,45.31Z" transform="translate(1.06)"/><polygon class="cls-2" points="25.73 46.77 25.04 46.2 25.73 45.28 26.13 46.03 25.73 46.77"/><polygon class="cls-2" points="27.47 43.42 28.2 44.05 27.74 44.91 26.51 43.84 27.47 43.42"/><path class="cls-3" d="M24.27,45.89c0,.83.69,1.28,1.57,1a2.4,2.4,0,0,0,1.66-2c0-.84-.69-1.3-1.58-1A2.39,2.39,0,0,0,24.27,45.89Z" transform="translate(1.06)"/><path class="cls-2" d="M25,45.44c0,.35.29.54.67.43a1,1,0,0,0,.69-.85c0-.35-.29-.55-.66-.43A1,1,0,0,0,25,45.44Z" transform="translate(1.06)"/><polygon class="cls-2" points="26.12 45.7 26.27 45.98 26.28 45.65 26.12 45.7"/><polygon class="cls-2" points="27.2 44.61 27.49 44.77 27.36 44.83 27.2 44.61"/><path class="cls-4" d="M25.22,45.65c0,.36.29.55.66.43a1,1,0,0,0,.7-.84c0-.36-.29-.55-.66-.43A1,1,0,0,0,25.22,45.65Z" transform="translate(1.06)"/><path class="cls-2" d="M29.73,42.24c0,.83.69,1.28,1.57,1a2.39,2.39,0,0,0,1.65-2c0-.84-.68-1.3-1.57-1A2.39,2.39,0,0,0,29.73,42.24Z" transform="translate(1.06)"/><polygon class="cls-2" points="31.88 43.7 31.19 43.13 31.88 42.21 32.28 42.96 31.88 43.7"/><polygon class="cls-2" points="33.62 40.35 34.34 40.98 33.88 41.84 32.66 40.76 33.62 40.35"/><path class="cls-3" d="M30.42,42.81c0,.84.68,1.29,1.57,1a2.39,2.39,0,0,0,1.65-2c0-.84-.68-1.3-1.57-1A2.39,2.39,0,0,0,30.42,42.81Z" transform="translate(1.06)"/><path class="cls-2" d="M31.14,42.36c0,.36.29.55.66.43a1,1,0,0,0,.7-.84c0-.36-.29-.55-.66-.43A1,1,0,0,0,31.14,42.36Z" transform="translate(1.06)"/><polygon class="cls-2" points="32.27 42.63 32.42 42.91 32.42 42.58 32.27 42.63"/><polygon class="cls-2" points="33.34 41.54 33.64 41.7 33.51 41.75 33.34 41.54"/><path class="cls-4" d="M31.36,42.58c0,.35.29.54.67.43a1,1,0,0,0,.7-.85c0-.35-.29-.54-.67-.43A1,1,0,0,0,31.36,42.58Z" transform="translate(1.06)"/><path class="cls-5" d="M26.85,44.88,31,42.74a1.51,1.51,0,0,1,.78-1.52,1,1,0,0,1,1.13.26s.24.1.27,0-.08-.22-.14-.29A1.2,1.2,0,0,0,31.62,41a2,2,0,0,0-1.05,1.67L27,44.49a1.42,1.42,0,0,0-1.71-.31,1.68,1.68,0,0,0-.82,1.56l.08.16.19-.16s0-1,.65-1.29A1,1,0,0,1,26.85,44.88Z" transform="translate(1.06)"/><path class="cls-6" d="M27,45l4-2.1a.05.05,0,0,0,0-.05,1.5,1.5,0,0,1,.78-1.48,1,1,0,0,1,1.14.26s.31,0,.12-.3a1.23,1.23,0,0,0-1.38-.23,1.86,1.86,0,0,0-1,1.55,0,0,0,0,1,0,0l-3.62,1.92a.07.07,0,0,1-.07,0,1.29,1.29,0,0,0-1.58-.27,1.68,1.68,0,0,0-.82,1.56h.27s0-1,.65-1.29A1,1,0,0,1,26.9,45,.07.07,0,0,0,27,45Z" transform="translate(1.06)"/><path class="cls-2" d="M34.41,39.72c0,.83.68,1.29,1.57,1a2.41,2.41,0,0,0,1.65-2c0-.84-.68-1.3-1.57-1A2.37,2.37,0,0,0,34.41,39.72Z" transform="translate(1.06)"/><polygon class="cls-2" points="36.56 41.19 35.87 40.61 36.56 39.69 36.96 40.44 36.56 41.19"/><polygon class="cls-2" points="38.29 37.83 39.02 38.46 38.56 39.32 37.34 38.24 38.29 37.83"/><path class="cls-3" d="M35.09,40.3c0,.83.69,1.28,1.58,1a2.39,2.39,0,0,0,1.65-2c0-.84-.69-1.3-1.57-1A2.41,2.41,0,0,0,35.09,40.3Z" transform="translate(1.06)"/><path class="cls-2" d="M35.82,39.85c0,.35.29.54.66.43a1,1,0,0,0,.7-.85c0-.35-.29-.55-.66-.43A1,1,0,0,0,35.82,39.85Z" transform="translate(1.06)"/><polygon class="cls-2" points="36.95 40.12 37.1 40.39 37.1 40.06 36.95 40.12"/><polygon class="cls-2" points="38.02 39.02 38.32 39.18 38.19 39.24 38.02 39.02"/><path class="cls-4" d="M36,40.06c0,.36.29.55.67.43a1,1,0,0,0,.69-.84c0-.36-.29-.55-.66-.43A1,1,0,0,0,36,40.06Z" transform="translate(1.06)"/><path class="cls-2" d="M40.55,36.65c0,.83.69,1.28,1.58,1a2.39,2.39,0,0,0,1.65-2c0-.84-.69-1.3-1.57-1A2.41,2.41,0,0,0,40.55,36.65Z" transform="translate(1.06)"/><polygon class="cls-2" points="42.7 38.11 42.01 37.54 42.7 36.62 43.1 37.37 42.7 38.11"/><polygon class="cls-2" points="44.44 34.76 45.17 35.39 44.71 36.25 43.49 35.17 44.44 34.76"/><path class="cls-3" d="M41.24,37.22c0,.84.69,1.29,1.57,1a2.38,2.38,0,0,0,1.66-2c0-.84-.69-1.3-1.57-1A2.38,2.38,0,0,0,41.24,37.22Z" transform="translate(1.06)"/><path class="cls-2" d="M42,36.77c0,.36.29.55.66.43a1,1,0,0,0,.7-.84c0-.36-.29-.55-.67-.43A1,1,0,0,0,42,36.77Z" transform="translate(1.06)"/><polygon class="cls-2" points="43.09 37.04 43.25 37.32 43.25 36.99 43.09 37.04"/><polygon class="cls-2" points="44.17 35.95 44.46 36.11 44.33 36.16 44.17 35.95"/><path class="cls-4" d="M42.19,37c0,.35.29.54.66.43a1,1,0,0,0,.7-.85c0-.35-.29-.54-.66-.43A1,1,0,0,0,42.19,37Z" transform="translate(1.06)"/><path class="cls-5" d="M37.67,39.29l4.12-2.14a1.51,1.51,0,0,1,.78-1.52,1,1,0,0,1,1.13.26s.24.1.27,0-.08-.22-.14-.29a1.22,1.22,0,0,0-1.39-.23,2,2,0,0,0-1,1.67L37.87,38.9a1.43,1.43,0,0,0-1.72-.31,1.68,1.68,0,0,0-.82,1.56l.09.16.19-.16s0-1,.65-1.29A1,1,0,0,1,37.67,39.29Z" transform="translate(1.06)"/><path class="cls-6" d="M37.8,39.43l4-2.1a.05.05,0,0,0,0,0,1.46,1.46,0,0,1,.78-1.48,1,1,0,0,1,1.13.26s.32-.05.13-.3a1.25,1.25,0,0,0-1.39-.23,1.87,1.87,0,0,0-1,1.55s0,0,0,0L37.88,39s0,0-.06,0a1.29,1.29,0,0,0-1.58-.27,1.64,1.64,0,0,0-.82,1.56h.27s0-1,.65-1.29a1,1,0,0,1,1.39.39A.06.06,0,0,0,37.8,39.43Z" transform="translate(1.06)"/><path class="cls-7" d="M.12,37.56c.38-1.75,1.64-2.13,4-3.33S34.35,18.76,34.84,18.51s.54-.31,1-.24A13.56,13.56,0,0,1,40.13,20c2.11,1.24,5.16,3.33,5.44,3.94a4,4,0,0,1,.18,1.92L45.45,34,11,51.78s-.07-6.06,0-7.81a2.85,2.85,0,0,0-1.34-2.88C9.09,40.71.12,37.56.12,37.56Z" transform="translate(1.06)"/><path class="cls-6" d="M45.58,33.88,45.84,25l-.08-.67c0-.09-.09-.29-.17-.25L11.45,41.87a.11.11,0,0,0-.06.11l-.12,9.48a.13.13,0,0,0,.18.12L45.51,34A.15.15,0,0,0,45.58,33.88Z" transform="translate(1.06)"/><polygon class="cls-8" points="10.37 53.23 45.4 35.15 46.63 33.87 12.39 51.48 10.37 53.23"/><path class="cls-9" d="M10.65,41.15a2.09,2.09,0,0,1,.78,1.78L45.84,25a1.71,1.71,0,0,0-1-1.75Z" transform="translate(1.06)"/><line class="cls-10" x1="12.49" y1="43.31" x2="46.88" y2="25.4"/><line class="cls-11" x1="12.42" y1="42.64" x2="46.9" y2="24.69"/><line class="cls-11" x1="12.34" y1="42.32" x2="46.86" y2="24.36"/><line class="cls-11" x1="12.26" y1="41.99" x2="46.74" y2="24.04"/><line class="cls-11" x1="12.1" y1="41.7" x2="46.56" y2="23.76"/><polygon class="cls-8" points="5.51 52.04 5.51 50.57 9.1 52.42 9.08 52.64 5.51 52.04"/><polygon class="cls-6" points="3.77 48.87 3.76 49.47 5.51 52.04 5.51 50.58 3.77 48.87"/><path class="cls-21" d="M.3,37a2.58,2.58,0,0,1,1.44-1.49A13.82,13.82,0,0,1,6.12,37a18.47,18.47,0,0,1,5.31,3.76A2.65,2.65,0,0,1,12,42.64c0,.9.12,8.12,0,8.56a2.9,2.9,0,0,1-.66,1l-2,1,1.34-2.66-.54-8.87s-3.2-2.89-4.48-3.2S.3,37,.3,37Z" transform="translate(1.06)"/><path class="cls-22" d="M9.73,41a.32.32,0,0,1-.29-.3.36.36,0,0,1,.07-.27.24.24,0,0,1,.17-.1h0a.33.33,0,0,1,.32.3.32.32,0,0,1-.25.37Z" transform="translate(1.06)"/><path class="cls-23" d="M9.71,40.41a.29.29,0,0,1,.25.27.26.26,0,0,1-.23.31.27.27,0,0,1-.24-.26.26.26,0,0,1,.2-.31h0m0-.1h0a.36.36,0,0,0-.29.42.37.37,0,0,0,.34.35h0a.37.37,0,0,0,.29-.43.38.38,0,0,0-.35-.35Z" transform="translate(1.06)"/><path class="cls-21" d="M.18,37.56,0,44.9a.76.76,0,0,0,0,.15l.91,3.27a.71.71,0,0,0,.37.53l7.35,4.32a.75.75,0,0,0,.87-.08l1.56-1.31a.74.74,0,0,0,.27-.56l.09-8.29a2.14,2.14,0,0,0-.9-1.89,30.66,30.66,0,0,0-5.39-3.56A17.94,17.94,0,0,0,2,36.3,1.32,1.32,0,0,0,.18,37.56Z" transform="translate(1.06)"/><g class="cls-24"><polygon class="cls-15" points="0 42.58 13.04 49.67 13.04 54.62 5.76 54.15 0.81 48.97 0 42.58"/><line class="cls-25" x1="1.01" y1="43.19" x2="12.56" y2="49.45"/></g><path class="cls-16" d="M4.74,44.32a.13.13,0,0,1-.08,0L1.43,42.55a.48.48,0,0,1-.25-.42v-3A.17.17,0,0,1,1.35,39l3.31,1.76a.49.49,0,0,1,.26.43v3A.17.17,0,0,1,4.74,44.32Z" transform="translate(1.06)"/><path class="cls-23" d="M1.35,39h.06L4.64,40.8a.43.43,0,0,1,.23.38v3a.12.12,0,0,1-.13.12h0L1.46,42.51a.44.44,0,0,1-.23-.38v-3A.12.12,0,0,1,1.35,39m0-.1a.22.22,0,0,0-.22.22v3a.53.53,0,0,0,.28.47l3.23,1.75.1,0A.22.22,0,0,0,5,44.15v-3a.53.53,0,0,0-.28-.47L1.46,39a.22.22,0,0,0-.11,0Z" transform="translate(1.06)"/><path class="cls-16" d="M9.5,46.91l-.08,0-3.74-2a.48.48,0,0,1-.25-.42v-3a.17.17,0,0,1,.17-.17l3.82,2.06a.48.48,0,0,1,.25.43v3A.18.18,0,0,1,9.5,46.91Z" transform="translate(1.06)"/><path class="cls-23" d="M5.6,41.33h.06l3.74,2a.42.42,0,0,1,.22.38v3a.12.12,0,0,1-.12.12l-.06,0-3.73-2a.44.44,0,0,1-.23-.38v-3a.12.12,0,0,1,.12-.12m0-.1a.22.22,0,0,0-.22.22v3a.56.56,0,0,0,.28.47l3.73,2,.11,0a.22.22,0,0,0,.22-.22v-3a.52.52,0,0,0-.27-.47l-3.74-2a.22.22,0,0,0-.11,0Z" transform="translate(1.06)"/><path class="cls-15" d="M9.82,41.25a.48.48,0,0,1-.5-.42.51.51,0,0,1,.07-.4.43.43,0,0,1,.27-.19h0a.5.5,0,0,1,.54.41.58.58,0,0,1-.07.41.49.49,0,0,1-.28.19Z" transform="translate(1.06)"/><ellipse class="cls-26" cx="9.72" cy="40.75" rx="0.33" ry="0.39" transform="translate(-6.78 2.71) rotate(-11.36)"/><path class="cls-15" d="M2.43,37.26A.49.49,0,0,1,2,36.82a.56.56,0,0,1,.09-.4.43.43,0,0,1,.28-.18h0a.5.5,0,0,1,.52.44.56.56,0,0,1-.09.4.43.43,0,0,1-.28.18Z" transform="translate(1.06)"/><ellipse class="cls-27" cx="2.36" cy="36.75" rx="0.33" ry="0.39" transform="translate(-4.57 0.8) rotate(-8.86)"/><ellipse class="cls-28" cx="8.17" cy="50.84" rx="0.35" ry="0.43" transform="translate(-12.06 3.95) rotate(-15.29)"/><ellipse class="cls-28" cx="1.69" cy="47.23" rx="0.35" ry="0.43" transform="matrix(0.96, -0.26, 0.26, 0.96, -11.34, 2.12)"/><line class="cls-29" x1="2.27" y1="47.78" x2="2.71" y2="48.03"/><line class="cls-29" x1="2.28" y1="48.01" x2="2.72" y2="48.26"/><line class="cls-29" x1="2.29" y1="48.24" x2="2.73" y2="48.49"/><line class="cls-29" x1="2.87" y1="48.13" x2="3.31" y2="48.37"/><line class="cls-29" x1="2.89" y1="48.35" x2="3.32" y2="48.6"/><line class="cls-29" x1="2.9" y1="48.58" x2="3.34" y2="48.83"/><line class="cls-29" x1="3.48" y1="48.47" x2="3.92" y2="48.72"/><line class="cls-29" x1="3.49" y1="48.7" x2="3.93" y2="48.94"/><line class="cls-29" x1="3.5" y1="48.92" x2="3.94" y2="49.17"/><line class="cls-29" x1="4.08" y1="48.81" x2="4.52" y2="49.06"/><line class="cls-29" x1="4.1" y1="49.04" x2="4.54" y2="49.29"/><line class="cls-29" x1="4.11" y1="49.27" x2="4.55" y2="49.51"/><line class="cls-29" x1="7.02" y1="50.4" x2="7.46" y2="50.66"/><line class="cls-29" x1="7.03" y1="50.63" x2="7.47" y2="50.88"/><line class="cls-29" x1="7.04" y1="50.86" x2="7.47" y2="51.11"/><line class="cls-29" x1="7.62" y1="50.75" x2="8.06" y2="51.01"/><line class="cls-29" x1="7.63" y1="50.98" x2="8.07" y2="51.24"/><line class="cls-29" x1="7.64" y1="51.21" x2="8.08" y2="51.46"/><line class="cls-29" x1="8.22" y1="51.1" x2="8.66" y2="51.36"/><line class="cls-29" x1="8.23" y1="51.33" x2="8.67" y2="51.59"/><line class="cls-29" x1="8.24" y1="51.56" x2="8.68" y2="51.81"/><line class="cls-29" x1="8.82" y1="51.45" x2="9.26" y2="51.71"/><line class="cls-29" x1="8.83" y1="51.68" x2="9.27" y2="51.94"/><line class="cls-29" x1="8.84" y1="51.91" x2="9.28" y2="52.16"/><polygon class="cls-30" points="5.09 38.61 4.5 39.47 7.61 41.15 8.06 40.09 5.09 38.61"/><polygon class="cls-31" points="7.94 40.34 8.9 38.73 7.84 38.61 7.94 40.34"/><path class="cls-32" d="M4,37.18A3,3,0,0,1,4.89,37l3,1.73a3.41,3.41,0,0,0-.92.08Z" transform="translate(1.06)"/><path class="cls-33" d="M6.77,40.32,4.09,38.83A.28.28,0,0,1,4,38.58L4,37.29c0-.1.08-.14.16-.09l2.68,1.49a.26.26,0,0,1,.14.25l-.08,1.29A.1.1,0,0,1,6.77,40.32Z" transform="translate(1.06)"/><ellipse class="cls-34" cx="6.16" cy="39.14" rx="0.54" ry="0.86" transform="translate(-17.4 8.09) rotate(-29.47)"/><ellipse class="cls-34" cx="4.82" cy="38.39" rx="0.54" ry="0.86" transform="translate(-17.2 7.34) rotate(-29.47)"/><ellipse class="cls-35" cx="4.82" cy="38.39" rx="0.26" ry="0.42" transform="translate(-17.2 7.34) rotate(-29.47)"/><ellipse class="cls-35" cx="6.16" cy="39.14" rx="0.26" ry="0.42" transform="translate(-17.4 8.09) rotate(-29.47)"/><ellipse class="cls-36" cx="5.06" cy="38.34" rx="0.26" ry="0.42" transform="translate(-17.15 7.45) rotate(-29.47)"/><ellipse class="cls-36" cx="6.39" cy="39.04" rx="0.26" ry="0.42" transform="translate(-17.32 8.19) rotate(-29.47)"/><line class="cls-37" x1="7.77" y1="41.06" x2="7.49" y2="41.23"/><line class="cls-37" x1="7.77" y1="41.51" x2="7.49" y2="41.67"/><line class="cls-38" x1="7.49" y1="42.21" x2="7.49" y2="40.09"/><polygon class="cls-21" points="46.7 31.95 14.2 48.17 14.2 46.44 46.74 30.22 46.7 31.95"/><line class="cls-39" x1="5.55" y1="50.7" x2="5.55" y2="48.19"/><path class="cls-8" d="M3.74,45.88c-.07,0-.12,0-.12.07v1.86a.24.24,0,0,0,.12.2l1.88,1c.07,0,.13,0,.13-.07V47.11a.25.25,0,0,0-.13-.21Z" transform="translate(1.06)"/><polygon class="cls-8" points="4.73 45.91 4.61 46.03 4.79 46.03 4.82 45.96 4.73 45.91"/><polygon class="cls-8" points="6.73 48.98 6.59 49.04 6.58 48.97 6.73 48.92 6.73 48.98"/><path class="cls-40" d="M3.76,48.06a.42.42,0,0,1-.2-.34l0-1.59c0-.13.09-.13.2-.07L5.4,47a.43.43,0,0,1,.19.34l0,1.47c0,.13-.1.18-.21.12Z" transform="translate(1.06)"/><path class="cls-41" d="M3.65,46.12,5.3,47a.42.42,0,0,1,.2.33v1.34c0,.13-.09.18-.2.12L3.86,48a.43.43,0,0,1-.21-.34V46.12M3.73,46c-.11-.06-.2,0-.2.12v1.65a.42.42,0,0,0,.2.34l1.69.9c.12.06.21,0,.21-.12V47.27a.42.42,0,0,0-.2-.34Z" transform="translate(1.06)"/><polygon class="cls-8" points="12.44 49.46 12.44 49.33 13.08 49.12 13.08 49.24 12.44 49.46"/><path class="cls-14" d="M23.16,33.09a30.64,30.64,0,0,0-4-2.52c-1.21-.6-2.49-1.13-2.49-1.13a10,10,0,0,1,4.1.63,5.74,5.74,0,0,1,2.35,1.73Z" transform="translate(1.06)"/><path class="cls-14" d="M16.71,29.44l-5.88,3a16.05,16.05,0,0,1,4.41,1.47c1.23.87,2,1.34,2,1.34L23,32.33a6.76,6.76,0,0,0-2.31-1.67A38.7,38.7,0,0,0,16.71,29.44Z" transform="translate(1.06)"/><polygon class="cls-6" points="18.34 34.82 18.34 36.15 24.2 33.03 24.2 31.72 18.34 34.82"/><path class="cls-15" d="M17.28,36.15a29,29,0,0,0-4-2.56c-1.21-.6-2.49-1.13-2.49-1.13a6.86,6.86,0,0,1,4.09.63,6.05,6.05,0,0,1,2.36,1.73Z" transform="translate(1.06)"/><polygon class="cls-16" points="18.77 35.01 18.78 34.91 20.08 34.23 20.07 34.33 18.77 35.01"/><polygon class="cls-16" points="18.77 35.17 18.78 35.07 20.08 34.39 20.07 34.5 18.77 35.17"/><polygon class="cls-16" points="18.77 35.34 18.78 35.23 20.08 34.55 20.07 34.66 18.77 35.34"/><polygon class="cls-16" points="18.77 35.5 18.78 35.4 20.08 34.72 20.07 34.82 18.77 35.5"/><path class="cls-14" d="M35.37,26.45a31,31,0,0,0-3.95-2.52c-1.21-.6-2.49-1.13-2.49-1.13a10.13,10.13,0,0,1,4.09.63,5.74,5.74,0,0,1,2.35,1.73Z" transform="translate(1.06)"/><path class="cls-14" d="M28.93,22.8l-5.89,3a15.83,15.83,0,0,1,4.41,1.48c1.23.86,2,1.33,2,1.33l5.67-2.93A6.72,6.72,0,0,0,32.85,24,38.82,38.82,0,0,0,28.93,22.8Z" transform="translate(1.06)"/><polygon class="cls-6" points="30.55 28.18 30.55 29.51 36.42 26.39 36.42 25.08 30.55 28.18"/><path class="cls-15" d="M29.49,29.51a29,29,0,0,0-4-2.56c-1.21-.6-2.49-1.13-2.49-1.13a6.9,6.9,0,0,1,4.1.63,6.06,6.06,0,0,1,2.35,1.73Z" transform="translate(1.06)"/><polygon class="cls-16" points="30.98 28.37 30.99 28.27 32.29 27.59 32.28 27.7 30.98 28.37"/><polygon class="cls-16" points="30.98 28.54 30.99 28.43 32.29 27.75 32.28 27.86 30.98 28.54"/><polygon class="cls-16" points="30.98 28.7 30.99 28.59 32.29 27.92 32.28 28.02 30.98 28.7"/><polygon class="cls-16" points="30.98 28.86 30.99 28.76 32.29 28.08 32.28 28.18 30.98 28.86"/><line class="cls-17" x1="14.37" y1="47.72" x2="46.74" y2="31.49"/><line class="cls-17" x1="14.37" y1="47.27" x2="46.74" y2="31.04"/><line class="cls-17" x1="46.74" y1="30.59" x2="14.37" y2="46.82"/><line class="cls-10" x1="46.74" y1="31.94" x2="14.37" y2="48.17"/><line class="cls-10" x1="14.37" y1="48.61" x2="46.74" y2="32.38"/><line class="cls-10" x1="14.37" y1="49.06" x2="46.74" y2="32.83"/><path class="cls-6" d="M12.29,50.21s-.07-.06-.07-.11l-.07-6.39a.34.34,0,0,1,.15-.28l2.43-1.25.16,6.54a.34.34,0,0,1-.15.28l-2.42,1.21Z" transform="translate(1.06)"/><path class="cls-18" d="M12.55,47s-.06-.05-.06-.11l0-3a.27.27,0,0,1,.12-.24l1.85-.91h0c.06,0,.08,0,.09.1l0,3a.28.28,0,0,1-.13.24L12.59,47Z" transform="translate(1.06)"/><path class="cls-7" d="M14.46,42.79s0,0,0,.07l0,3a.27.27,0,0,1-.11.21L12.55,47s0,0,0-.07l0-3a.26.26,0,0,1,.1-.21l1.84-.9h0m0-.08h-.05l-1.84.91a.31.31,0,0,0-.15.28l0,3c0,.09,0,.15.1.15h0l1.84-.88a.32.32,0,0,0,.16-.28l0-3c0-.09-.05-.15-.11-.15Z" transform="translate(1.06)"/><path class="cls-19" d="M12.25,43.66l2.36-1.26c.07,0,.08.05.08.07l.05,6.41a.23.23,0,0,1,0,.11s.09-.06.13,0,0,0,0-.07l-.07-6.43c0-.11,0-.22-.1-.22l-.1.05-2.42,1.25c-.09,0,0,.16-.07.28l.07,0C12.21,43.75,12.21,43.68,12.25,43.66Z" transform="translate(1.06)"/><path class="cls-7" d="M14.74,42.25s0,0,0,0l.07,6.43a.26.26,0,0,1-.11.21l-2.4,1.22s0,0,0,0l-.08-6.39a.29.29,0,0,1,.11-.22l2.41-1.24m0-.15-.06,0-2.42,1.24a.4.4,0,0,0-.19.35l.07,6.39c0,.11.06.19.14.19l.06,0,2.42-1.21a.36.36,0,0,0,.19-.34l-.07-6.43c0-.12-.06-.19-.14-.19Z" transform="translate(1.06)"/><path class="cls-6" d="M20.64,46s-.07-.06-.07-.12l-.07-6.38a.32.32,0,0,1,.15-.28l2.43-1.26.16,6.54a.32.32,0,0,1-.15.28L20.67,46Z" transform="translate(1.06)"/><path class="cls-18" d="M20.9,42.78s-.06,0-.06-.11l0-3a.27.27,0,0,1,.13-.24l1.84-.91h0c.06,0,.09.05.09.11l0,3a.28.28,0,0,1-.13.24l-1.84.87Z" transform="translate(1.06)"/><path class="cls-7" d="M22.81,38.55s0,0,0,.07l0,3a.24.24,0,0,1-.11.2l-1.86.88s0,0,0-.07l0-3a.23.23,0,0,1,.1-.2l1.84-.91h0m0-.08h0l-1.84.91a.3.3,0,0,0-.15.27l0,3c0,.09,0,.15.1.15H21l1.84-.88a.3.3,0,0,0,.16-.27l0-3c0-.1-.05-.15-.11-.15Z" transform="translate(1.06)"/><path class="cls-19" d="M20.6,39.41,23,38.15a.06.06,0,0,1,.08.07l.05,6.42a.19.19,0,0,1,0,.1c.05,0,.09-.05.13,0s0,0,0-.08l-.07-6.42c0-.12,0-.22-.1-.22L23,38l-2.42,1.25c-.09,0-.05.17-.07.29h.07C20.56,39.51,20.56,39.43,20.6,39.41Z" transform="translate(1.06)"/><path class="cls-7" d="M23.09,38s0,0,0,0l.07,6.42a.26.26,0,0,1-.11.22l-2.4,1.22s0,0,0-.06l-.08-6.38a.26.26,0,0,1,.11-.22L23.09,38m0-.15H23l-2.42,1.25a.39.39,0,0,0-.19.35l.07,6.38c0,.12.06.19.14.19h.06l2.42-1.21a.37.37,0,0,0,.19-.35L23.24,38c0-.11-.06-.18-.14-.18Z" transform="translate(1.06)"/><path class="cls-6" d="M28.89,41.72s-.06-.06-.06-.12l-.07-6.38a.29.29,0,0,1,.14-.28l2.43-1.25.17,6.53a.32.32,0,0,1-.15.28l-2.43,1.21Z" transform="translate(1.06)"/><path class="cls-18" d="M29.16,38.53s-.07,0-.07-.11l0-3a.31.31,0,0,1,.13-.24L31,34.26h0c.06,0,.08.05.08.11l0,3a.28.28,0,0,1-.13.24l-1.84.88Z" transform="translate(1.06)"/><path class="cls-7" d="M31.06,34.3s0,0,0,.07l0,3a.22.22,0,0,1-.11.2l-1.85.88s0,0,0-.07l0-3a.24.24,0,0,1,.11-.2l1.84-.91h0m0-.08h0l-1.85.91a.32.32,0,0,0-.15.27l0,3c0,.1.05.15.11.15h.05l1.84-.88a.31.31,0,0,0,.15-.27l0-3c0-.1,0-.15-.11-.15Z" transform="translate(1.06)"/><path class="cls-19" d="M28.86,35.16l2.35-1.26c.08,0,.08.06.08.08l.05,6.41a.36.36,0,0,1,0,.1s.09-.05.13,0,0,0,0-.07L31.41,34c0-.12,0-.22-.09-.22l-.1,0L28.79,35c-.09,0,0,.17-.06.29l.07,0C28.81,35.26,28.81,35.18,28.86,35.16Z" transform="translate(1.06)"/><path class="cls-7" d="M31.35,33.76v0l.08,6.42a.24.24,0,0,1-.12.22l-2.4,1.22a.22.22,0,0,1,0-.06l-.07-6.38a.24.24,0,0,1,.11-.22l2.41-1.24m0-.15H31.3l-2.43,1.25a.41.41,0,0,0-.19.35l.08,6.38c0,.12.06.19.13.19H29l2.43-1.21a.39.39,0,0,0,.19-.35L31.5,33.8c0-.12-.06-.19-.14-.19Z" transform="translate(1.06)"/><path class="cls-6" d="M37.14,37.54s-.07-.06-.07-.12L37,31a.32.32,0,0,1,.15-.28l2.42-1.26L39.74,36a.32.32,0,0,1-.15.28l-2.42,1.21Z" transform="translate(1.06)"/><path class="cls-18" d="M37.4,34.35s-.06,0-.07-.11l0-3a.26.26,0,0,1,.12-.24l1.85-.91h0c.06,0,.08.05.08.11l0,3a.25.25,0,0,1-.12.24l-1.85.88Z" transform="translate(1.06)"/><path class="cls-7" d="M39.31,30.12s0,0,0,.07l0,3a.21.21,0,0,1-.1.2l-1.86.88s0,0,0-.07l0-3a.21.21,0,0,1,.1-.2l1.84-.91h0m0-.08h-.05L37.42,31a.28.28,0,0,0-.15.27l0,3c0,.09.05.15.11.15h.05l1.84-.88a.27.27,0,0,0,.15-.27l0-3c0-.1,0-.15-.1-.15Z" transform="translate(1.06)"/><path class="cls-19" d="M37.1,31l2.36-1.26a.07.07,0,0,1,.08.07l.05,6.42a.38.38,0,0,1,0,.1s.09-.05.13,0,0,0,0-.08l-.07-6.42c0-.12,0-.22-.1-.22l-.1,0L37,30.85c-.09,0,0,.17-.07.29H37C37.06,31.08,37.06,31,37.1,31Z" transform="translate(1.06)"/><path class="cls-7" d="M39.59,29.58v0L39.67,36a.26.26,0,0,1-.11.22l-2.4,1.22s0,0,0-.06L37.07,31a.26.26,0,0,1,.11-.22l2.41-1.24m0-.15h-.06l-2.42,1.25a.37.37,0,0,0-.19.35L37,37.42c0,.12.06.19.14.19h.06l2.42-1.21a.39.39,0,0,0,.19-.35l-.07-6.43c0-.11-.06-.18-.14-.18Z" transform="translate(1.06)"/><path class="cls-18" d="M15.47,44.93a.12.12,0,0,1-.13-.12l0-2.78a.16.16,0,0,1,.08-.13l4.47-2.25h0a.09.09,0,0,1,.1.08l0,2.91a.13.13,0,0,1-.08.13l-4.42,2.16Z" transform="translate(1.06)"/><path class="cls-7" d="M19.89,39.68s.05,0,.05,0l0,2.91a.11.11,0,0,1-.06.1L15.5,44.88h0a.09.09,0,0,1-.09-.08l0-2.78a.1.1,0,0,1,.06-.09l4.47-2.26h0m0-.08h-.06l-4.47,2.26a.18.18,0,0,0-.1.17l0,2.77a.17.17,0,0,0,.17.16l.07,0L20,42.8a.19.19,0,0,0,.1-.17l0-2.91a.12.12,0,0,0-.13-.12Z" transform="translate(1.06)"/><path class="cls-18" d="M23.81,40.75a.12.12,0,0,1-.12-.12l-.05-2.77a.13.13,0,0,1,.08-.13l4.47-2.26h0c.06,0,.1,0,.1.08l0,2.9a.16.16,0,0,1-.08.14l-4.42,2.15Z" transform="translate(1.06)"/><path class="cls-7" d="M28.23,35.5a.05.05,0,0,1,.05,0l0,2.9a.11.11,0,0,1-.06.1l-4.41,2.16h0a.08.08,0,0,1-.08-.08l-.05-2.77a.13.13,0,0,1,.06-.1l4.47-2.25h0m0-.08h-.06L23.7,37.69a.19.19,0,0,0-.1.17l0,2.77a.15.15,0,0,0,.16.16h.07l4.42-2.16a.19.19,0,0,0,.1-.17l0-2.9a.13.13,0,0,0-.13-.13Z" transform="translate(1.06)"/><path class="cls-18" d="M32.07,36.61a.12.12,0,0,1-.12-.12l-.05-2.77a.15.15,0,0,1,.08-.13l4.47-2.26h0c.06,0,.1,0,.1.08l0,2.9a.16.16,0,0,1-.08.14L32.12,36.6Z" transform="translate(1.06)"/><path class="cls-7" d="M36.49,31.36a0,0,0,0,1,0,.05l0,2.9a.11.11,0,0,1-.06.1l-4.41,2.15h0a.08.08,0,0,1-.08-.08l0-2.77a.13.13,0,0,1,.06-.1l4.47-2.26h0m0-.08h-.06L32,33.55a.18.18,0,0,0-.11.17l.05,2.77a.16.16,0,0,0,.16.16h.07l4.42-2.16a.19.19,0,0,0,.1-.17l0-2.9a.13.13,0,0,0-.13-.13Z" transform="translate(1.06)"/><path class="cls-18" d="M40.28,32.53a.13.13,0,0,1-.13-.13l0-2.77a.14.14,0,0,1,.08-.13l4.47-2.26h0c.06,0,.1,0,.1.08l0,2.91a.16.16,0,0,1-.08.13l-4.42,2.15Z" transform="translate(1.06)"/><path class="cls-7" d="M44.7,27.27a.05.05,0,0,1,0,.05l0,2.91a.1.1,0,0,1-.06.09l-4.42,2.16h0a.1.1,0,0,1-.09-.09l0-2.77a.09.09,0,0,1,.06-.09l4.47-2.26s0,0,0,0m0-.08-.06,0-4.47,2.25a.21.21,0,0,0-.1.17l0,2.77a.17.17,0,0,0,.17.17l.07,0,4.42-2.16a.18.18,0,0,0,.1-.16l0-2.91a.13.13,0,0,0-.13-.13Z" transform="translate(1.06)"/><line class="cls-20" x1="16.4" y1="43.5" x2="21" y2="41.16"/><line class="cls-20" x1="18.95" y1="42.17" x2="18.95" y2="43.75"/><line class="cls-20" x1="24.78" y1="39.32" x2="29.37" y2="36.97"/><line class="cls-20" x1="27.32" y1="37.98" x2="27.32" y2="39.57"/><line class="cls-20" x1="33.03" y1="35.22" x2="37.62" y2="32.88"/><line class="cls-20" x1="35.57" y1="33.89" x2="35.57" y2="35.47"/><line class="cls-20" x1="41.23" y1="31.12" x2="45.82" y2="28.78"/><line class="cls-20" x1="43.77" y1="29.79" x2="43.77" y2="31.37"/></g></g></g></g></svg>