<svg xmlns="http://www.w3.org/2000/svg" viewBox="0 0 63.18 82.26"><defs><style>.cls-1{fill:#f8cd6f;}.cls-2{fill:#c69a50;}.cls-3{fill:#937439;}.cls-4{fill:#fadea2;}.cls-5{fill:#eac890;}.cls-6{fill:#7e6337;}.cls-7{fill:#f5d121;}.cls-8{fill:#2eb4ea;}.cls-9{fill:#00afec;}.cls-10{fill:#cfa914;}.cls-11{fill:#00a7d3;}.cls-12{fill:#dc3b13;}.cls-13{fill:#b84d93;}.cls-14{fill:#fad3a8;}.cls-15{fill:#939498;}.cls-16{fill:#de82ac;}.cls-17{fill:#e2bea6;}.cls-18{fill:#e9c3ac;}.cls-19{fill:#050101;}</style></defs><title>img_balloon1</title><g id="レイヤー_2" data-name="レイヤー 2"><g id="tree"><polygon class="cls-1" points="19.47 68.69 31.59 75.66 31.59 82.26 22.43 76.98 19.47 68.69"/><polygon class="cls-2" points="31.59 82.26 31.59 75.66 43.71 68.69 40.75 76.98 31.59 82.26"/><path class="cls-1" d="M31.59,63.38v8.28l2.82,1.7s8.32-4.29,8-4.53S32.32,62.5,32.32,62.5Z"/><polygon class="cls-2" points="31.59 63.38 31.59 71.66 29.69 73.65 21.37 68.15 31.25 62.74 31.59 63.38"/><polygon class="cls-3" points="33.62 72.82 31.59 71.66 29.56 72.82 31.59 73.99 33.62 72.82"/><path class="cls-4" d="M31.59,61.7l-12.12,7,12.12,7,12.12-7Zm-9.21,7,9.21-5.31,9.21,5.31L31.59,74Z"/><polygon class="cls-2" points="31.59 82.26 31.59 75.66 43.71 68.69 40.75 76.98 31.59 82.26"/><polygon class="cls-4" points="39.96 69.17 31.59 73.99 23.22 69.17 20.3 69.17 31.59 75.67 42.87 69.17 39.96 69.17"/><polygon class="cls-5" points="41.5 67.42 38.9 67.42 38.74 67.5 40.8 68.69 35.62 71.67 37.42 71.67 37.83 71.9 38.12 71.9 43.71 68.69 41.5 67.42"/><path class="cls-6" d="M31.59,76.05a.38.38,0,0,1-.38-.38s0-4.59,0-9.09V60.33c0-.9,0-1.59,0-2.07,0-.25,0-.45,0-.58s0-.46.24-.55a.38.38,0,0,1,.52.42c0,.69,0,11.16,0,18.11a.38.38,0,0,1-.38.39Z"/><path class="cls-6" d="M43.71,69.06a.32.32,0,0,1-.13,0,.38.38,0,0,1-.23-.48L50,49a.38.38,0,0,1,.48-.24.38.38,0,0,1,.24.48L44.07,68.8A.38.38,0,0,1,43.71,69.06Z"/><path class="cls-6" d="M19.47,69.06a.38.38,0,0,1-.36-.26L12.45,49.28a.37.37,0,1,1,.71-.24l6.67,19.52a.38.38,0,0,1-.24.48A.25.25,0,0,1,19.47,69.06Z"/><path class="cls-7" d="M63.18,26.88c0,14.27-18.89,32.4-31.54,32.47S0,41.38,0,27.11C0-1.18,26.91,0,31.54,0S63.18-.5,63.18,26.88Z"/><path class="cls-8" d="M31.59,59.35h.05c12.65-.07,31.54-18.2,31.54-32.47C63.18-.41,36.35,0,31.59,0Z"/><path class="cls-9" d="M37.41.41A44.75,44.75,0,0,0,31.54,0a47.51,47.51,0,0,0-6.26.37,25.65,25.65,0,0,1,6.33,9.79A23.65,23.65,0,0,1,37.41.41Z"/><path class="cls-9" d="M61.67,28.28c0,14.27-17.38,31-30,31.07S1.52,42.78,1.52,28.51c0-32.46,26.69-22.53,30-18.38C34.94,5.69,61.67-3.56,61.67,28.28Z"/><path class="cls-7" d="M56.35,31.07c0,14.27-14.3,28.21-24.72,28.28S6.84,45.58,6.84,31.3c0-32.46,24.71-21.17,24.71-21.17S56.35-.77,56.35,31.07Z"/><path class="cls-9" d="M44.19,32.33c0,14.28-7.28,27-12.58,27S19,46.84,19,32.57c0-22.35,12.58-22.44,12.58-22.44S44.19,9.87,44.19,32.33Z"/><path class="cls-10" d="M31.59,0V59.35h.05c12.65-.07,31.54-18.2,31.54-32.47C63.18-.41,36.35,0,31.59,0Z"/><path class="cls-11" d="M31.59,10.07V59.35h.05c12.65-.07,30-16.8,30-31.07C61.67-3.43,35.17,5.61,31.59,10.07Z"/><path class="cls-10" d="M31.59,10.11V59.35h0c10.42-.07,24.72-14,24.72-28.28C56.35,0,32.67,9.66,31.59,10.11Z"/><path class="cls-12" d="M31.59,10.13V59.35h0c5.3-.07,12.58-12.74,12.58-27C44.19,10.38,32.14,10.13,31.59,10.13Z"/><path class="cls-11" d="M31.59,10.12a.12.12,0,0,0,0,.05A23.65,23.65,0,0,1,37.41.41,43.65,43.65,0,0,0,31.59,0Z"/><path class="cls-11" d="M31.59,10.13V59.35h0c5.3-.07,12.58-12.74,12.58-27C44.19,10.38,32.14,10.13,31.59,10.13Z"/><path class="cls-7" d="M36.76,8.31c0,1.18-2.31,2.14-5.16,2.14s-5.17-.95-5.18-2.12,2.31-2.14,5.16-2.14S36.75,7.14,36.76,8.31Z"/><path class="cls-13" d="M39,70.64c-.09-.24-1.11-2.71-1.15-3a16.15,16.15,0,0,0-.42-2.37c-.23-.74-.75-.77-.93-.64s-.21.34-.1.86.59,2,.71,2.43,1.38,3,1.38,3a1.55,1.55,0,0,1,.11.19,1.78,1.78,0,0,1,.5-.26A1.28,1.28,0,0,1,39,70.64Z"/><path class="cls-14" d="M39.55,71.72c.12,0,0-.17-.08-.22a2,2,0,0,0-.24-.37,1.6,1.6,0,0,1-.16-.27,1.78,1.78,0,0,0-.5.26,1.53,1.53,0,0,1,.13.38c.09.39.28.82.34.79s0-.31-.09-.41c.1.22.24.64.34.6s-.11-.41-.21-.63c.11.22.26.63.35.6s-.14-.52-.22-.7c.08.14.29.57.35.53s-.32-.82-.32-.82A.79.79,0,0,0,39.55,71.72Z"/><polygon class="cls-15" points="37.13 70.81 37.13 69.89 35.47 70.5 35.32 71.85 37.13 70.81"/><polygon class="cls-15" points="35.13 70.63 35.47 70.5 35.49 70.32 33.47 70.03 33.43 72.94 35.25 71.89 35.13 70.63"/><polygon class="cls-15" points="35.25 71.89 35.32 71.85 35.47 70.5 35.13 70.63 35.25 71.89"/><path class="cls-16" d="M36,64.45a2,2,0,0,1,1.06.27c.34.28.24,1.22.26,2.15a24.72,24.72,0,0,1-.07,3.46c-.11.39-1.42.79-2.85.41s-1-.53-.81-2.8c.08-1-.39-2.56.07-2.92a3.54,3.54,0,0,1,1.23-.5l.74.21Z"/><path class="cls-17" d="M35.87,64.12s0,.21.1.3,0,.28-.41.36c-.63.12-.8-.25-.8-.25a1.05,1.05,0,0,0,0-.82Z"/><path class="cls-18" d="M36.41,62.26s.25,2.07-.68,2.06a1,1,0,0,1-1-.57l-.57-1.29,1.09-1.13Z"/><path class="cls-19" d="M34.62,63.52a1.07,1.07,0,0,0,.45-1,2.16,2.16,0,0,0,.59.21s-.25-.13-.27-.34a1.07,1.07,0,0,0,1,.22,2,2,0,0,1-.56-.2s.82.34,1.21-.29a.5.5,0,0,1-.41.08.57.57,0,0,0,.2-.37s-.15.23-.35.16c0,0,.2-.22.14-.33s-.08.18-.38,0-.48-.49-1.19-.36-.91,1-.84,1.39A1.39,1.39,0,0,0,34.62,63.52Z"/><path class="cls-13" d="M34.07,71.44c0-.26-.11-2.93-.07-3.19a14.59,14.59,0,0,0,.42-2.37c0-.77-.45-1-.66-.92s-.32.25-.39.78-.12,2.08-.15,2.52.28,3.28.28,3.28,0,.08,0,.21a1.71,1.71,0,0,1,.55-.07C34.08,71.55,34.07,71.45,34.07,71.44Z"/><path class="cls-14" d="M34.25,72.65c.1.08,0-.18,0-.24a1.45,1.45,0,0,0-.1-.42,1.31,1.31,0,0,1-.06-.31,1.71,1.71,0,0,0-.55.07,1.94,1.94,0,0,1,0,.41c-.05.39,0,.86,0,.85s.06-.3.06-.42c0,.25,0,.69.11.68s0-.42,0-.66c0,.25,0,.68.12.68s0-.53,0-.73c0,.16.07.64.14.62s0-.88,0-.88A.8.8,0,0,0,34.25,72.65Z"/></g></g></svg>