<svg xmlns="http://www.w3.org/2000/svg" viewBox="0 0 30.69 19.25"><defs><style>.cls-1{fill:#f2f2f2;}</style></defs><title>img_cloud1</title><g id="レイヤー_2" data-name="レイヤー 2"><g id="billding"><path class="cls-1" d="M16.21,13.24a6,6,0,1,1-6-6A6,6,0,0,1,16.21,13.24Z"/><path class="cls-1" d="M14.31,5.17A4.51,4.51,0,1,1,9.8.66,4.5,4.5,0,0,1,14.31,5.17Z"/><path class="cls-1" d="M24.67,13.88a6,6,0,1,0-6-6A6,6,0,0,0,24.67,13.88Z"/><path class="cls-1" d="M18.5,17.89a6,6,0,1,0-6-6A6,6,0,0,0,18.5,17.89Z"/><path class="cls-1" d="M16.65,12a6,6,0,1,0-6-6A6,6,0,0,0,16.65,12Z"/><path class="cls-1" d="M4.51,14A4.51,4.51,0,1,0,0,9.47,4.51,4.51,0,0,0,4.51,14Z"/></g></g></svg>