<svg xmlns="http://www.w3.org/2000/svg" xmlns:xlink="http://www.w3.org/1999/xlink" viewBox="0 0 9.89 22.66"><defs><style>.cls-1,.cls-13,.cls-14,.cls-15{fill:none;}.cls-2{fill:#f5b293;}.cls-3{fill:#d69b7c;opacity:0.27;}.cls-10,.cls-12,.cls-16,.cls-22,.cls-3,.cls-31,.cls-33,.cls-34,.cls-40,.cls-45,.cls-51,.cls-6{isolation:isolate;}.cls-4{fill:#002b2a;}.cls-5{fill:#f6c0ab;}.cls-6{fill:#040000;opacity:0.14;}.cls-7{fill:#e9e9e9;}.cls-8{fill:#7ecad6;}.cls-12,.cls-16,.cls-9{fill:#353433;}.cls-10{fill:#4d100c;opacity:0.13;}.cls-11,.cls-51{opacity:0.18;}.cls-12{opacity:0.55;}.cls-13{stroke:#e7f4f7;}.cls-13,.cls-14,.cls-15,.cls-36,.cls-37{stroke-linecap:round;stroke-linejoin:round;}.cls-13,.cls-14,.cls-15,.cls-36{stroke-width:0.1px;}.cls-14,.cls-15{stroke:#64aeb0;}.cls-15{stroke-dasharray:0.19 0.19;}.cls-16,.cls-31{opacity:0.2;}.cls-17{fill:#1f2d42;}.cls-18{fill:#4d668b;}.cls-19{fill:#003245;}.cls-20{fill:#00abcb;}.cls-21{fill:#bce2ef;}.cls-22{fill:#fff;opacity:0.1;}.cls-23{fill:#3e4a5f;}.cls-24{fill:#354864;}.cls-25{fill:#4f5050;}.cls-26{fill:#5c5f60;}.cls-27{fill:#a7a9aa;}.cls-28{fill:#e5e5e4;}.cls-29{fill:#e74353;}.cls-30{fill:#349e38;}.cls-31,.cls-33,.cls-34{fill:#0e0e0d;}.cls-32{fill:#50ad47;}.cls-33{opacity:0.32;}.cls-34{opacity:0.15;}.cls-35{fill:#58b44f;}.cls-36,.cls-37{fill:#86cdd8;stroke:#5eb4bc;}.cls-37{stroke-width:0.09px;}.cls-38{fill:#004d6b;}.cls-39,.cls-40,.cls-51{fill:#002e44;}.cls-40{opacity:0.3;}.cls-41{fill:#7e5c2f;}.cls-42{fill:#00425c;}.cls-43{fill:#1e6680;}.cls-44{fill:#3e859d;}.cls-46{clip-path:url(#clip-path);}.cls-47{fill:#d6d6d7;}.cls-48{fill:#978b47;}.cls-49{fill:#d4c77b;}.cls-50{fill:#7aabbb;}</style><clipPath id="clip-path"><path class="cls-1" d="M9.14,9.6Z"/></clipPath></defs><title>img_human2</title><g id="レイヤー_2" data-name="レイヤー 2"><g id="レイヤー_3" data-name="レイヤー 3"><path class="cls-2" d="M5.34.7h-.5l-.4.2v.9a1,1,0,0,1,.1.3c0,.1-.1.3,0,.4.2.6.1.6.2.8s.2.2.4.2a1.07,1.07,0,0,0,.6-.2,1.74,1.74,0,0,0,.7-1.1L6.74.8Z"/><path class="cls-2" d="M6.94,5l-.5-1.4-.2-1.2-1.3.4s.2,1,.3,1.3a.85.85,0,0,1-.3.5l-.6.6a1.93,1.93,0,0,0-.4,1.1v3.8l2.5.8V5.7C6.54,5.5,7,5.2,6.94,5Z"/><path class="cls-3" d="M4.64,1.1s-.2.7-.1.8.1.2,0,.5a3,3,0,0,1,.3,1c0,.2-.1.3-.2.3.1.1.2,0,.3,0H5a2.27,2.27,0,0,1,.1.4.31.31,0,0,1-.2.4l.5-.2s-.1-.5.1-.7.6-.2.7-.6V2.7h0C6.14,1.7,4.64,1.1,4.64,1.1Z"/><path class="cls-4" d="M4.34.6a.42.42,0,0,0,.1.7h.1c.2,0,.2.1.2.1s.1,1,.1,1,.1.1.2,0,.2-.1.5.3a4.71,4.71,0,0,0,.2.5c.1.1.1.2.1.1a.78.78,0,0,0,.5-.2,9.24,9.24,0,0,0,.5-.9A1.4,1.4,0,0,0,6.54.7c-.1-.1.3,0,.2,0s-.4-.5-.6-.5a1.55,1.55,0,0,0-.8.2s0-.2.3-.4c-.4,0-.9.5-.7.1A1.33,1.33,0,0,0,4.34.6Z"/><path class="cls-2" d="M5,2.3a.36.36,0,0,1,.3.2c.1.2,0,.3,0,.3l-.1.1V2.5C5,2.4,5,2.3,5,2.3Z"/><path class="cls-5" d="M4.94,2.2s-.1,0,0,.1a.37.37,0,0,1,.1.3v.3s.1.1.1,0V2.6C5.14,2.5,5,2.2,4.94,2.2Z"/><path class="cls-6" d="M3.74,20.7c.4-.2-.8-.2-.4-.7a5.29,5.29,0,0,1,2-.2c1.3.2,3.1.8,2.9,1.6s-1.5,1.5-4.3,1.2c-1.2-.1-2.5-.7-2.3-1.2C1.74,21.1,3.54,20.8,3.74,20.7Z"/><path class="cls-7" d="M6.44,19.3l-.4.2a1.88,1.88,0,0,1-.8.2c-.2,0-.6,0-.7.3v.2q0,.15.3.3a4.71,4.71,0,0,1,.5.2c.3.1,1,.2,1,.3a2.27,2.27,0,0,0,.4.1.59.59,0,0,0,.7-.3V19.6c0-.1-.2-.1-.3-.1A4.08,4.08,0,0,0,6.44,19.3Z"/><path class="cls-8" d="M5,20.2a9.68,9.68,0,0,1,1.1.3,2.25,2.25,0,0,0,.7.1c.1,0,.1-.3.1-.3C6.64,20.3,5,20.2,5,20.2Z"/><path class="cls-9" d="M6,20.5h-.6l-.6-.2-.2-.2v.1q0,.15.3.3a4.71,4.71,0,0,1,.5.2c.3.1.7.2,1,.3l.1-.3A.76.76,0,0,0,6,20.5Z"/><path class="cls-9" d="M6.74,20.7l-.4-.1v.3l.4.1a.59.59,0,0,0,.7-.3v-.3A.84.84,0,0,1,6.74,20.7Z"/><path class="cls-7" d="M4.64,20.4l-.4.2a1.88,1.88,0,0,1-.8.2c-.2,0-.6,0-.7.3v.2q0,.15.3.3a4.71,4.71,0,0,1,.5.2c.3.1,1,.2,1,.3a2.27,2.27,0,0,0,.4.1.59.59,0,0,0,.7-.3V20.7c0-.1-.2-.1-.3-.1A4.08,4.08,0,0,0,4.64,20.4Z"/><path class="cls-9" d="M4.24,21.7h-.6L3,21.5l-.2-.2v.1q0,.15.3.3a4.71,4.71,0,0,1,.5.2c.3.1.7.2,1,.3l.1-.3A.76.76,0,0,0,4.24,21.7Z"/><path class="cls-9" d="M4.94,21.8l-.4-.1V22l.4.1a.59.59,0,0,0,.7-.3v-.3C5.64,21.6,5.44,21.9,4.94,21.8Z"/><path class="cls-2" d="M5.94,15.5v.1a15.2,15.2,0,0,1,.4,3.9c0,.2.3.2.5.2s.3,0,.4-.1.1-.9.1-1A7.93,7.93,0,0,0,7,15.5c-.1.1-.3-.5-.5-.5S6.14,15.7,5.94,15.5Z"/><path class="cls-10" d="M6.84,15.1s-.5.7-.6.7-.2-.3-.3-.3v.2a13.7,13.7,0,0,1,.4,3.6v.4c0,.1.2.1.4.1v-.2a14.28,14.28,0,0,0-.3-3.3c0-.1.7-.1.7-.2S6.84,15.2,6.84,15.1Z"/><path class="cls-8" d="M7.44,10.1l-2,.1.3,5.6a1.42,1.42,0,0,0,.6.2c.1,0,.2-.4.2-.4s.1.4.2.4a1.07,1.07,0,0,0,.6-.2c0-.1-.1-.7-.1-.8a5.19,5.19,0,0,1,0-1.3A12.41,12.41,0,0,0,7.44,10.1Z"/><g class="cls-11"><path class="cls-12" d="M6.34,15.9c0-.1-.1-.4-.1-.5a10.87,10.87,0,0,1-.1-1.8c0-1.3.1-2.9.1-3.6h-.9l.3,5.6A2.79,2.79,0,0,0,6.34,15.9Z"/></g><path class="cls-13" d="M5.74,15.7a1.38,1.38,0,0,0,.7.2c.1,0,.1-.5.2-.5l.2.4a.44.44,0,0,0,.3-.1l.3-.1"/><path class="cls-2" d="M4.94,15.1c-.3,0-.3,1-.5.9v.6c0,.3.1,1,.1,1.2a21.92,21.92,0,0,1-.1,2.9c.1.2.9.1.9-.1a10.14,10.14,0,0,0,.1-3.9V16C5.44,16.1,5.34,15.2,4.94,15.1Z"/><path class="cls-10" d="M4.94,16.9v-.4c.3,0,.6,0,.6-.1a4.33,4.33,0,0,1,.1-.5c-.1,0-.8.2-.9.1a.37.37,0,0,1-.3-.1v.8c0,.3.1,1,.1,1.2a13.35,13.35,0,0,1,0,2v.7c0-.1.2.4.3.4C4.84,19.9,5,17.8,4.94,16.9Z"/><path class="cls-8" d="M5.94,16c.1-.8-.1-2.1.2-2.4a1.74,1.74,0,0,0,.5-1.2c.1-.8.1-2.3.1-2.3l-2.9.9s0,2.9.2,4.9a2.39,2.39,0,0,0,.9.2c.1,0,.1-.3.2-.3s.1.3.2.3A.61.61,0,0,0,5.94,16Z"/><path class="cls-14" d="M4.24,11.8h0"/><path class="cls-15" d="M4.24,12.1c0,.4-.1,1.2-.1,1.5,0,.5.1,1.7.1,2.1"/><path class="cls-14" d="M4.24,15.9h0"/><path class="cls-16" d="M4,11h.7c-.1.9.2.9,0,2a5.42,5.42,0,0,0-.2,1.1c0,.2.1.3,0,.4a9.15,9.15,0,0,0,.1,1.7,1.45,1.45,0,0,1-.7-.2c-.2-2-.2-4.9-.2-4.9Z"/><path class="cls-2" d="M2.24,7.5s-.9-.4-1-.7a6.66,6.66,0,0,0-.3-.7s.1-.2.4.2a1.89,1.89,0,0,0,.8.5Z"/><path class="cls-17" d="M3.54,6.1,1.74,4.7l-1.4.7.2.1,1.2-.6,1.7,1.3Z"/><path class="cls-18" d="M.84,5.1h0c.1.1.1,0,.1,0s0-.1-.1,0C.94,5,.84,5,.84,5.1Z"/><path class="cls-19" d="M.94,5.1Z"/><polygon class="cls-20" points="0.34 5.5 2.14 6.8 3.44 6.1 1.64 4.9 0.34 5.5"/><polygon class="cls-21" points="0.44 5.5 2.14 6.7 3.44 6.1 1.74 4.9 0.44 5.5"/><polygon class="cls-22" points="2.74 6.6 2.54 6.7 2.64 5.5 2.84 5.7 2.74 6.6"/><polygon class="cls-22" points="1.24 6.3 1.24 6.3 1.34 5 1.44 5 1.24 6.3"/><path class="cls-23" d="M1.54,4.7h.2l2,1.4c.1,0,0,.1,0,.1l-1.5.7H2L0,5.5c-.1,0,0-.1,0-.1Zm.6,2,1.3-.6L1.64,4.8l-1.3.6,1.8,1.3ZM.94,5.1Z"/><path class="cls-17" d="M3.74,6.2l-1.5.7H2L0,5.5v.1L2,7h.2l1.5-.8Z"/><polygon class="cls-18" points="3.14 6.5 3.14 6.5 2.94 6.6 2.94 6.6 3.14 6.5"/><polygon class="cls-24" points="3.14 6.5 3.14 6.5 2.94 6.6 2.94 6.6 3.14 6.5"/><polygon class="cls-25" points="0.24 5.6 0.34 5.7 0.34 5.7 0.34 5.7 0.24 5.7 0.24 5.7 0.24 5.6"/><polygon class="cls-26" points="0.34 5.7 0.34 5.7 0.24 5.6 0.24 5.7 0.34 5.7"/><polygon class="cls-27" points="0.24 5.6 0.24 5.6 0.24 5.6 0.24 5.6 0.24 5.7 0.24 5.7 0.24 5.7 0.24 5.7 0.24 5.7 0.24 5.6"/><polygon class="cls-28" points="0.24 5.6 0.24 5.7 0.24 5.7 0.24 5.7 0.24 5.7 0.24 5.6"/><polygon class="cls-29" points="0.24 5.6 0.24 5.7 0.34 5.7 0.34 5.7 0.34 5.7 0.24 5.6"/><path class="cls-17" d="M2.94,6.5h-.1v.1a.1.1,0,0,0,.1-.1Zm0,0h-.1V6.4a.1.1,0,0,1,.1.1Z"/><path class="cls-2" d="M7,6.3c0,.1.2.8.2.8L5.74,8.5s-.7.6-.4.8a4.57,4.57,0,0,0,.6.4C6.34,9.6,8,8,8,7.4A9.32,9.32,0,0,0,7.84,6Z"/><path class="cls-28" d="M7.74,4.9A1,1,0,0,0,6.54,4c-.6,0-.5.6-.5,1.1V6.4a4.35,4.35,0,0,0,1.3.5,1.36,1.36,0,0,0,.9-.5A12.61,12.61,0,0,1,7.74,4.9Z"/><path class="cls-28" d="M8.14,6.2c.1-.1.2.3.2.4a2.1,2.1,0,0,1-.7.5c-.2.1-.5.2-.6.1s-.1-.2-.1-.3.1,0,.1-.1a1.23,1.23,0,0,0,.5-.2A3.11,3.11,0,0,0,8.14,6.2Z"/><path class="cls-30" d="M4.24,5.2A27.7,27.7,0,0,0,3.64,9v2.6a2,2,0,0,0,1.1.4,7.88,7.88,0,0,0,2-.2c1-.3,1.1-.7,1.1-.8a9.51,9.51,0,0,0-.2-1.9c0-.1.1-.1.2-.1V7.7a5.78,5.78,0,0,0,.1-2c-.1-.7-.2-1.7-1.1-1.9A2.75,2.75,0,0,0,5,4.3C4.84,4.5,4.34,4.9,4.24,5.2Z"/><path class="cls-31" d="M3.64,11.6V9c0-.4.1-1.2.2-2a4.42,4.42,0,0,1,.8-.3s.2,3.8.3,4.3a3.87,3.87,0,0,1,.1.9h-.3A1.94,1.94,0,0,1,3.64,11.6Z"/><path class="cls-2" d="M2.34,7.3s.3-.2-.2-.6l-.5-.4s-.2,0-.1.2.2.3.1.4-.2.1-.2.2A1.24,1.24,0,0,0,2.34,7.3Z"/><path class="cls-2" d="M3.94,5.9c0,.3-.1.5-.1.8a6.37,6.37,0,0,1-.2.9.35.35,0,0,1-.1.2L2.34,7,2,7.2a.31.31,0,0,0-.1.2S3.24,8.9,3.34,9c.5.3.9.3,1.1-.2s.5-1.8.7-2.3a1.45,1.45,0,0,1-.7-.2A1.08,1.08,0,0,1,3.94,5.9Z"/><path class="cls-32" d="M4.64,5c-.5,0-.6.4-.8,1,0,.1-.2.6-.2.8a1.54,1.54,0,0,0,.6.4,2.39,2.39,0,0,0,.9.2,3.65,3.65,0,0,0,.3-1.3C5.44,5.8,5.44,5,4.64,5Z"/><path class="cls-7" d="M4.64,20.4s.4.6.1.6a2.18,2.18,0,0,1-.6-.1s.3-.4.4-.5S4.64,20.3,4.64,20.4Z"/><path class="cls-7" d="M6.44,19.2s.4.6.1.6a2.18,2.18,0,0,1-.6-.1s.3-.4.4-.5S6.34,19.1,6.44,19.2Z"/><polygon class="cls-33" points="6.14 9.2 7.74 9.1 7.74 9.4 6.14 9.2"/><path class="cls-33" d="M5.24,7.4a2.55,2.55,0,0,0,1.3.9H7c0,.1-.5.3-1,.1A1.76,1.76,0,0,1,5.24,7.4Z"/><path class="cls-34" d="M3.74,6.5c-.1.2.8.4,1.1.4a3.23,3.23,0,0,1-1-.4.1.1,0,0,1-.1-.1Z"/><path class="cls-35" d="M3.74,6.5c-.1-.1-.2.3-.1.4a2.1,2.1,0,0,0,.7.5c.2.1.6.2.7.1s.1-.3.1-.3A.1.1,0,0,0,5,7.1c-.2.1-.7-.1-.8-.1S3.84,6.7,3.74,6.5Z"/><path class="cls-36" d="M6,13.6a.76.76,0,0,1-.2.4l-.2.1a.3.3,0,0,1-.4,0L5,14a.52.52,0,0,1-.2-.4l.1-.5v-.6h.6a1.45,1.45,0,0,0,.6-.1v.7Z"/><path class="cls-37" d="M7.44,13.1a.76.76,0,0,1-.2.4l-.1.1a.19.19,0,0,1-.3,0l-.1-.1a.52.52,0,0,1-.2-.4l.1-.5V12l.5-.1.4-.2v.8Z"/><path class="cls-13" d="M4,16a1.75,1.75,0,0,0,1,.1c.1,0,.1-.3.1-.3l.1.3a2.44,2.44,0,0,0,.7-.1"/><polyline class="cls-36" points="4.94 13.2 5.34 13.2 5.64 12.9 5.74 13.2 6.04 13.2"/><polyline class="cls-37" points="6.54 12.9 6.94 12.8 7.14 12.5 7.24 12.8 7.54 12.8"/><path class="cls-8" d="M3.34,21.2a9.68,9.68,0,0,1,1.1.3,2.25,2.25,0,0,0,.7.1c.1,0,.1-.3.1-.3A10.32,10.32,0,0,1,3.34,21.2Z"/><path class="cls-38" d="M6.64,6.2a4.51,4.51,0,0,0-.9-1.7.61.61,0,0,0-.6-.2s-.4.1-.4.2v.1s.2-.2.6,0,.9,2.3.9,2.3Z"/><path class="cls-38" d="M8.14,5a6.31,6.31,0,0,0-.7-1,.31.31,0,0,0-.2-.1,1.75,1.75,0,0,1-.5-.1l-.1.1a.36.36,0,0,1,.3.2,4.11,4.11,0,0,1,.7,1.2Z"/><path class="cls-38" d="M5.54,10.7a5.1,5.1,0,0,0,1.4.5,3.33,3.33,0,0,0,2.7-1.6,10.06,10.06,0,0,0-.9-3.7c-.4-.4-.5-.6-3,.4C5.34,6.5,5,10.9,5.54,10.7Z"/><path class="cls-39" d="M6.94,9.7c-.2-2.2,0-2.8-.2-3.2s-.3-.3-.6-.3a.77.77,0,0,0-.3.1c-.4.2-.5,4.1-.2,4.3,0,0,.5-.2.6,0a3.17,3.17,0,0,1,.6.5C7.14,11.3,6.94,10.3,6.94,9.7Z"/><path class="cls-40" d="M6.34,6.3l-.1,2.8a13.61,13.61,0,0,0-.1-1.6c0-.2-.2-.1-.3.8V7.5c-.1.1-.1,1-.3.9a15.17,15.17,0,0,1,.3-2.1Z"/><polygon class="cls-41" points="9.34 8.8 9.44 9.2 9.84 9 9.64 8.8 9.34 8.8"/><path class="cls-42" d="M7.44,9.9a1,1,0,0,0,.4.1,5.56,5.56,0,0,0,1.7-.9c.5-.3-.2-.3-.2-.3l.1-.1a.77.77,0,0,1,.3.1c.2.1.1.7,0,1.1a2.92,2.92,0,0,1-2.3,1.3c-.5-.1-.1-.1,0-1.3Z"/><path class="cls-43" d="M9.84,8.9c0-.1,0-.1-.1-.1a.77.77,0,0,0-.3-.1l-.1.1s.6,0,.2.3a7.54,7.54,0,0,1-1.7,1,1,1,0,0,1-.4-.1h-.1l.1.1c.1,0,.3.1.5,0A6.89,6.89,0,0,0,9.84,8.9Z"/><path class="cls-43" d="M7.84,10.6v-.3c0-.4-.5-.4-.5-.5V9.7l2.2-1.2c-.1.2.2.3.3.4s0,.6,0,.6A3.13,3.13,0,0,1,7.84,10.6Z"/><path class="cls-44" d="M9.54,8.6h0L7.34,9.8a.49.49,0,0,1,.3.1Z"/><path class="cls-39" d="M7.94,10.6a1.1,1.1,0,0,0-.1-.7.6.6,0,0,0-.4-.1V9.7h0v.1c0,.1.5,0,.5.5q-.15.3,0,.3Z"/><polygon class="cls-39" points="7.34 9.6 9.54 8.4 9.44 8.4 7.34 9.6 7.34 9.7 7.34 9.6"/><path class="cls-39" d="M9.24,10.7h-.1a.6.6,0,0,1-.1-.4V10c0-.1,0-.1-.1-.3A.35.35,0,0,1,9,9.5c.1,0,.1,0,.1.1s0,.2.1.3v.6c.1,0,.1.1,0,.2Z"/><path class="cls-44" d="M9.24,10.7h-.1a.6.6,0,0,1-.1-.4V10c0-.1,0-.1-.1-.3s0-.2.1-.2.1,0,.2.1,0,.2.1.3v.6c.1,0,.1.1-.1.2Z"/><g class="cls-45"><g class="cls-45"><g class="cls-46"><g class="cls-45"><path class="cls-47" d="M9.14,9.6Z"/></g></g></g><g class="cls-45"><path id="SVGID" class="cls-48" d="M9.14,9.8h0A.1.1,0,0,1,9,9.7c0-.1,0-.1.1-.1h0v.2Z"/></g><path class="cls-49" d="M9.14,9.6h0c.1.2,0,.2,0,.2A.1.1,0,0,1,9,9.7.1.1,0,0,0,9.14,9.6Z"/></g><path class="cls-43" d="M8.94,10.3H9l.3-.2v.1s-.2.2-.3.2h-.1Z"/><path class="cls-50" d="M8.94,10.3h0a1.47,1.47,0,0,0,.4-.2h0a.7.7,0,0,1-.4.2Z"/><path class="cls-44" d="M9.54,8.6l-1.4.9,1.6-.8C9.64,8.7,9.64,8.7,9.54,8.6Z"/><polygon class="cls-40" points="6.44 6.6 6.54 8.5 6.64 6.6 6.44 6.6"/><path class="cls-40" d="M6.14,6.3s.7,0,1.2,1.8c0,.2.1.4.4.2.6-.3,1.2-.7,1.6-.9.1-.1-.3-.8-.3-.8Z"/><path class="cls-43" d="M9,7.3a.55.55,0,0,0,.3-.5C9,4.6,7.84,5.1,7.84,5.1l-2,1.2-.1.1s1.1-.5,1.7,1.6c.1.2.2.2.4.2Z"/><path class="cls-44" d="M9.44,6.7c-.2-1.2-.7-1.7-1.1-1.8a1.42,1.42,0,0,0-.6.2h0a2.27,2.27,0,0,1,.4-.1c.3,0,.9.3,1.2,1.8a.76.76,0,0,1-.2.5l-1.3.8h-.1a.22.22,0,0,1-.2-.2c-.4-1.3-1-1.8-1.7-1.7l-.2.1h0c.1,0,.3-.1.4-.1.4,0,.9.3,1.3,1.6,0,.1.2.2.3.2h.2l1.3-.8C9.34,7.2,9.44,7,9.44,6.7Z"/><path class="cls-39" d="M7.34,7.9c0,.1.2.2.3.2h.2s-.1.1-.3,0l-.2-.2A1.6,1.6,0,0,0,7,7.1a1.87,1.87,0,0,0-.6-.7A.76.76,0,0,0,6,6.3a.44.44,0,0,0-.3.1h0c.1,0,.3-.1.4-.1S6.94,6.6,7.34,7.9Z"/><path class="cls-51" d="M8.54,6.5,8,6C8,5.8,8.34,5.9,8.54,6.5Z"/><path class="cls-51" d="M8.54,6.4s-.2-.9-.2-1.1.3.2.3.5a1.49,1.49,0,0,0-.1.6Z"/></g></g></svg>