<svg xmlns="http://www.w3.org/2000/svg" xmlns:xlink="http://www.w3.org/1999/xlink" viewBox="0 0 30.44 23.71"><defs><style>.cls-1,.cls-45,.cls-52,.cls-64{fill:none;}.cls-2{fill:#5b3b41;}.cls-3{fill:#312324;}.cls-4{fill:#735356;}.cls-5{isolation:isolate;}.cls-6{fill:#cec5c6;}.cls-7{fill:#566664;}.cls-8{fill:#484747;}.cls-9{fill:#1e1f1f;}.cls-10{fill:#394847;}.cls-11{fill:#353636;}.cls-12{fill:#a5040e;}.cls-13{fill:#2a4020;}.cls-14{fill:#254322;}.cls-15{fill:#3f3e41;}.cls-16{fill:#616165;}.cls-17{fill:#151418;}.cls-18{fill:#4d7033;}.cls-19{fill:#0b120e;}.cls-20{fill:#7e8664;}.cls-21{clip-path:url(#clip-path);}.cls-22{fill:#392e30;}.cls-23{fill:#223129;}.cls-24{fill:#040000;}.cls-25{clip-path:url(#clip-path-2);}.cls-26{clip-path:url(#clip-path-3);}.cls-27{fill:#0f1010;}.cls-28{clip-path:url(#clip-path-4);}.cls-29{fill:#80686b;}.cls-30{fill:#303036;}.cls-31{fill:#4f4f52;}.cls-32{fill:#86858c;}.cls-33{fill:#bab8c1;}.cls-34{fill:#464251;}.cls-35{fill:#c7000b;}.cls-36{fill:#454545;}.cls-37{fill:#d7000f;}.cls-38{clip-path:url(#clip-path-5);}.cls-39{fill:#f7f2e7;}.cls-40{clip-path:url(#clip-path-6);}.cls-41{fill:#99777d;}.cls-42{clip-path:url(#clip-path-7);}.cls-43{fill:#362d30;mix-blend-mode:screen;}.cls-44{fill:#442a2f;}.cls-45{stroke:#f18d20;stroke-width:0.05px;}.cls-45,.cls-52,.cls-64{stroke-miterlimit:10;}.cls-46{clip-path:url(#clip-path-8);}.cls-47{fill:#e3d4bc;}.cls-48{fill:#f18d20;}.cls-49{fill:#fdf9f0;}.cls-50{fill:#fff;}.cls-51{fill:#79545b;}.cls-52{stroke:#442a2f;stroke-width:0.08px;}.cls-53{fill:#277338;}.cls-54{fill:#e83532;}.cls-55{fill:#b61d22;}.cls-56{fill:#851b20;}.cls-57{fill:#221417;}.cls-58{fill:#2f3036;}.cls-59{fill:#fffef4;}.cls-60{fill:#e99915;}.cls-61{fill:#cecec5;}.cls-62{fill:#406b49;}.cls-63{fill:#d1a949;}.cls-64{stroke:#d1a949;stroke-width:0.06px;}</style><clipPath id="clip-path"><polygon class="cls-3" points="18.27 7.97 22.86 5.56 22.94 2.08 18.35 4.49 18.27 7.97"/></clipPath><clipPath id="clip-path-2"><polygon class="cls-1" points="16.02 9.7 17.39 8.98 17.47 5.29 16.1 6.01 16.02 9.7"/></clipPath><clipPath id="clip-path-3"><polygon class="cls-1" points="14.11 10.71 15.47 9.99 15.56 6.3 14.19 7.01 14.11 10.71"/></clipPath><clipPath id="clip-path-4"><polygon class="cls-4" points="1.75 16.72 8.51 13.17 8.59 9.69 1.83 13.24 1.75 16.72"/></clipPath><clipPath id="clip-path-5"><path class="cls-1" d="M1.06,11.9.88,20l6.47,3.75.15-8.06ZM1.31,14c0-.18.13-.25.29-.16L7,17a.61.61,0,0,1,.28.49L7.16,20.6c0,.18-.14.25-.3.16L1.52,17.65a.59.59,0,0,1-.28-.49Z"/></clipPath><clipPath id="clip-path-6"><path class="cls-2" d="M1.52,17.65l5.34,3.11c.16.09.29,0,.3-.16l.07-3.16A.61.61,0,0,0,7,17L1.6,13.84c-.16-.09-.29,0-.29.16l-.07,3.16A.59.59,0,0,0,1.52,17.65Z"/></clipPath><clipPath id="clip-path-7"><path class="cls-1" d="M1.52,17.65l5.34,3.11c.16.09.29,0,.3-.16l.07-3.16A.61.61,0,0,0,7,17L1.6,13.84c-.16-.09-.29,0-.29.16l-.07,3.16A.59.59,0,0,0,1.52,17.65Z"/></clipPath><clipPath id="clip-path-8"><path class="cls-1" d="M30.14,3.74,30,11.81,27.63,13s0,0,0,0c0-.87-.62-1.24-1.41-.82a3,3,0,0,0-1.48,2.34v.05l-9.33,4.9a.09.09,0,0,1,0-.05c0-.87-.62-1.24-1.42-.82a3,3,0,0,0-1.48,2.34.43.43,0,0,1,0,0L7.33,23.71l.17-8.07Z"/></clipPath></defs><title>img_bus2-2</title><g class="cls-5"><g id="レイヤー_2" data-name="レイヤー 2"><g id="乗り物"><polygon class="cls-6" points="25.52 15.13 23.02 15.08 23.97 14.03 25.7 13.83 25.52 15.13"/><path class="cls-7" d="M0,13a.18.18,0,0,1,.07-.15H.24a.16.16,0,0,1,.16,0l.48.27a.51.51,0,0,1,.22.39l0,1.26a.15.15,0,0,1-.07.14H.86a.16.16,0,0,1-.16,0l-.48-.27A.51.51,0,0,1,0,14.24Z"/><path class="cls-8" d="M.53,12.81a.13.13,0,0,1,.21-.11l.61.35v.08l-.6-.35a.09.09,0,0,0-.14.07v.08l-.07,0Z"/><path class="cls-8" d="M.59,13.28l0,1.46A.3.3,0,0,0,.69,15l.61.35v.08l-.61-.35a.46.46,0,0,1-.2-.35l0-1.44Z"/><polygon class="cls-8" points="1.35 13.05 1.26 13.1 0.65 12.76 0.6 12.76 0.6 12.94 0.52 12.98 0.47 12.88 0.56 12.78 0.68 12.71 1.35 13.05"/><path class="cls-9" d="M.45,12.86c0-.13.1-.18.21-.11l.61.35v.08l-.6-.35c-.07-.05-.13,0-.14.07V13l-.07-.05Z"/><polygon class="cls-8" points="1.3 15.32 1.22 15.37 0.74 15.12 0.51 14.97 0.48 14.87 0.48 14.74 0.59 14.91 0.91 15.12 1.3 15.32"/><path class="cls-9" d="M.51,13.32l0,1.47A.29.29,0,0,0,.61,15l.61.36v.08l-.61-.36a.44.44,0,0,1-.2-.35l0-1.44Z"/><path class="cls-10" d="M.22,14.63l.48.27c.12.08.23,0,.23-.12l0-1.26a.49.49,0,0,0-.23-.39l-.47-.27c-.12-.08-.23,0-.23.12l0,1.26A.51.51,0,0,0,.22,14.63Z"/><polygon class="cls-11" points="1.3 15.32 1.22 15.37 1.22 15.45 1.3 15.4 1.3 15.32"/><polygon class="cls-6" points="13.53 21.51 10.57 21.44 11.32 20.27 13.36 20.01 13.53 21.51"/><path class="cls-12" d="M27.63,13l-.78-.42.37-.47.64-.08.23.2-.45.76Z"/><polygon class="cls-12" points="15.42 19.45 14.57 19.04 14.72 18.24 15.46 18.19 15.72 18.54 15.42 19.45"/><path class="cls-13" d="M12.75,19.37c-.08,0-5.07,2.17-5.07,2.17L4.42,19.78.93,18.17l3-1.55L8,15l1.61,1.16Z"/><path class="cls-14" d="M9.55,14.27l-2,2.13-1.94.51a6.48,6.48,0,0,1,1.5-2.2A3,3,0,0,1,9.55,14.27Z"/><path class="cls-14" d="M21.85,7.8l-2,2.13-1.94.51a6.65,6.65,0,0,1,1.5-2.2A3,3,0,0,1,21.85,7.8Z"/><path class="cls-15" d="M6.78,16.8c0,.45.32.65.73.43A1.58,1.58,0,0,0,8.29,16c0-.45-.32-.64-.74-.42A1.53,1.53,0,0,0,6.78,16.8Z"/><path class="cls-16" d="M7,16.7c0,.35.24.5.56.33a1.2,1.2,0,0,0,.59-.93c0-.35-.25-.5-.56-.33A1.19,1.19,0,0,0,7,16.7Z"/><path class="cls-16" d="M7.13,16.61c0,.25.18.35.41.23A.86.86,0,0,0,8,16.17c0-.25-.18-.35-.4-.23A.88.88,0,0,0,7.13,16.61Z"/><path class="cls-17" d="M7.62,16.89s-.07,0-.08,0a.17.17,0,0,1,.07-.15s.1,0,.11,0a.18.18,0,0,1-.07.15ZM7.28,17a.07.07,0,0,1-.06,0s0-.07,0-.13a.13.13,0,0,1,.13-.09s0,.07,0,.14A.23.23,0,0,1,7.28,17Zm.63-.49h0s-.06-.05,0-.11.08-.11.13-.11.06,0,0,.11A.18.18,0,0,1,7.91,16.49Zm-.78.22A.06.06,0,0,1,7,16.66H7a.19.19,0,0,1,.09-.15c.06,0,.09,0,.09.06A.19.19,0,0,1,7.13,16.71Zm.79-.61a.05.05,0,0,1-.08,0s0-.1,0-.15.1-.06.12,0a.16.16,0,0,1,0,.16Zm-.62.17a.11.11,0,0,1-.08,0s0-.1,0-.15.1-.08.13-.05,0,.09,0,.15A.12.12,0,0,1,7.3,16.27ZM7.65,16h0s-.08,0-.07-.09a.17.17,0,0,1,.11-.13s.08,0,.07.08A.18.18,0,0,1,7.65,16Z"/><path class="cls-18" d="M23.69,0l-.17,8.07L21.19,9.29v0c0-.87-.61-1.24-1.41-.82a3,3,0,0,0-1.48,2.34v.05L9,15.71v-.05c0-.88-.61-1.24-1.41-.82a3,3,0,0,0-1.48,2.34v.05L.88,20l.18-8.06Z"/><polygon class="cls-19" points="9.56 12.67 9.72 12.59 9.8 8.94 9.64 9.03 9.56 12.67"/><polygon class="cls-19" points="13.63 12.83 17.77 10.66 17.9 4.57 13.77 6.75 13.63 12.83"/><polygon class="cls-18" points="13.92 12.44 17.49 10.56 17.61 4.97 14.04 6.84 13.92 12.44"/><polygon class="cls-19" points="15.58 11.62 15.83 11.49 15.95 5.79 15.71 5.92 15.58 11.62"/><polygon class="cls-3" points="16.02 9.7 17.39 8.98 17.47 5.29 16.1 6.01 16.02 9.7"/><polygon class="cls-3" points="14.11 10.71 15.47 9.99 15.56 6.3 14.19 7.01 14.11 10.71"/><polygon class="cls-20" points="13.66 13.04 17.76 10.88 17.77 10.66 13.66 12.81 13.66 13.04"/><polygon class="cls-19" points="23.01 5.67 18.14 8.23 18.23 4.4 23.09 1.84 23.01 5.67"/><polygon class="cls-3" points="18.27 7.97 22.86 5.56 22.94 2.08 18.35 4.49 18.27 7.97"/><g class="cls-21"><polygon class="cls-22" points="25.51 7.52 25.74 7.15 17.48 2.35 17.25 2.72 25.51 7.52"/><polygon class="cls-22" points="23.46 9 24.36 7.58 16.61 3.07 15.71 4.5 23.46 9"/></g><polygon class="cls-19" points="18.26 5.36 23.05 2.84 23.06 2.71 18.26 5.24 18.26 5.36"/><path class="cls-23" d="M19.45,3.49l2.28-1.2A.44.44,0,0,0,22,2V1.49c0-.13-.09-.18-.21-.12l-2.28,1.2a.43.43,0,0,0-.21.33v.47A.13.13,0,0,0,19.45,3.49Z"/><path class="cls-24" d="M19.57,3.3l2.05-1.08a.44.44,0,0,0,.22-.33V1.67c0-.12-.09-.18-.2-.11L19.58,2.63a.45.45,0,0,0-.21.34v.21C19.36,3.31,19.45,3.36,19.57,3.3Z"/><polygon class="cls-23" points="19.35 3 21.88 1.67 21.88 1.54 19.35 2.87 19.35 3"/><polygon class="cls-23" points="19.35 3.27 21.89 1.94 21.89 1.81 19.36 3.14 19.35 3.27"/><path class="cls-23" d="M8.78,9.1l2.28-1.2a.43.43,0,0,0,.21-.34V7.1c0-.13-.09-.18-.2-.12L8.8,8.18a.44.44,0,0,0-.22.34V9C8.57,9.11,8.66,9.16,8.78,9.1Z"/><path class="cls-24" d="M8.89,8.91,11,7.83a.43.43,0,0,0,.21-.33V7.29c0-.13-.08-.18-.2-.12L8.91,8.25a.44.44,0,0,0-.22.33V8.8C8.69,8.92,8.78,9,8.89,8.91Z"/><polygon class="cls-23" points="8.67 8.61 11.21 7.28 11.21 7.15 8.68 8.48 8.67 8.61"/><polygon class="cls-23" points="8.68 8.88 11.21 7.55 11.21 7.42 8.68 8.75 8.68 8.88"/><polygon class="cls-22" points="7.96 16.09 8.47 15.28 2.1 11.58 1.59 12.39 7.96 16.09"/><g class="cls-25"><polygon class="cls-22" points="19.18 9.73 19.58 9.1 13.53 5.58 13.13 6.22 19.18 9.73"/><polygon class="cls-22" points="19.06 10.41 19.18 10.22 12.9 6.57 12.78 6.76 19.06 10.41"/></g><g class="cls-26"><polygon class="cls-22" points="19.18 9.73 19.58 9.1 13.53 5.58 13.13 6.22 19.18 9.73"/><polygon class="cls-22" points="19.06 10.41 19.18 10.22 12.9 6.57 12.78 6.76 19.06 10.41"/></g><path class="cls-27" d="M18.58,10.61c0,.7.5,1,1.14.66a2.41,2.41,0,0,0,1.19-1.88c0-.71-.49-1-1.13-.67A2.44,2.44,0,0,0,18.58,10.61Z"/><ellipse class="cls-15" cx="19.76" cy="9.99" rx="1.02" ry="0.6" transform="translate(0.53 20.97) rotate(-56.54)"/><ellipse class="cls-16" cx="19.76" cy="9.99" rx="0.78" ry="0.46" transform="translate(0.53 20.97) rotate(-56.54)"/><path class="cls-16" d="M19.36,10.2c0,.25.18.35.4.23a.88.88,0,0,0,.43-.67c0-.25-.18-.35-.41-.23A.84.84,0,0,0,19.36,10.2Z"/><path class="cls-17" d="M19.85,10.48a.06.06,0,0,1-.09,0,.18.18,0,0,1,.08-.15c.05,0,.1,0,.11,0a.19.19,0,0,1-.08.15Zm-.35.09s0,0-.05,0-.05-.07,0-.13a.13.13,0,0,1,.13-.09s0,.07,0,.14A.18.18,0,0,1,19.5,10.57Zm.64-.49h0S20,10,20.06,10a.16.16,0,0,1,.13-.11s.06.05,0,.11A.15.15,0,0,1,20.14,10.08Zm-.78.22a.06.06,0,0,1-.09-.05h0a.19.19,0,0,1,.09-.15c.05,0,.09,0,.09.06A.19.19,0,0,1,19.36,10.3Zm.79-.61a.06.06,0,0,1-.08,0,.16.16,0,0,1,.05-.16s.1-.06.12,0a.16.16,0,0,1,0,.16Zm-.63.17h-.07s0-.1,0-.15.1-.08.13-.05,0,.09,0,.15Zm.36-.27h0c-.05,0-.08,0-.07-.09a.17.17,0,0,1,.11-.13c.05,0,.08,0,.07.08A.18.18,0,0,1,19.88,9.59Z"/><polygon class="cls-19" points="8.73 13.24 1.56 17.01 1.64 13.19 8.81 9.42 8.73 13.24"/><polygon class="cls-4" points="1.75 16.72 8.51 13.17 8.59 9.69 1.83 13.24 1.75 16.72"/><g class="cls-28"><polygon class="cls-29" points="10 14.63 10.93 13.17 4.07 9.19 3.15 10.65 10 14.63"/><polygon class="cls-29" points="9.11 15.53 9.26 15.3 2.65 11.47 2.51 11.7 9.11 15.53"/><polygon class="cls-22" points="7.29 18.81 7.8 18 1.43 14.3 0.92 15.11 7.29 18.81"/></g><polygon class="cls-19" points="1.7 14.14 8.77 10.42 8.77 10.29 1.7 14.01 1.7 14.14"/><path class="cls-12" d="M16,18l-2,2.13L12,20.65a6.48,6.48,0,0,1,1.5-2.2A2.94,2.94,0,0,1,16,18Z"/><path class="cls-12" d="M28.29,11.55l-2,2.13-1.94.5a6.48,6.48,0,0,1,1.5-2.2A2.88,2.88,0,0,1,28.29,11.55Z"/><path class="cls-30" d="M13.43,18.38c.65-.34,1.16,0,1.14.66a2.4,2.4,0,0,1-1.19,1.88c-.64.34-1.15,0-1.14-.66A2.44,2.44,0,0,1,13.43,18.38Z"/><polygon class="cls-30" points="14.99 18.74 14.22 18.3 12.59 21 13.38 21.46 14.99 18.74"/><path class="cls-31" d="M13,20.72c0,.7.49,1,1.14.66a2.45,2.45,0,0,0,1.19-1.89c0-.7-.5-1-1.14-.66A2.41,2.41,0,0,0,13,20.72Z"/><ellipse class="cls-32" cx="14.21" cy="20.1" rx="1.02" ry="0.6" transform="translate(-10.39 20.87) rotate(-56.53)"/><path class="cls-33" d="M13.63,20.4c0,.35.24.49.56.33a1.21,1.21,0,0,0,.59-.94c0-.34-.24-.49-.56-.32A1.18,1.18,0,0,0,13.63,20.4Z"/><path class="cls-33" d="M13.8,20.3c0,.25.18.36.41.24a.84.84,0,0,0,.42-.67c0-.25-.17-.36-.4-.24A.88.88,0,0,0,13.8,20.3Z"/><path class="cls-34" d="M14.3,20.58s-.08,0-.09,0a.18.18,0,0,1,.07-.16c.05,0,.1,0,.11,0a.18.18,0,0,1-.07.16Zm-.35.1h-.06s0-.08,0-.14.09-.1.13-.08.05.07,0,.13A.19.19,0,0,1,14,20.68Zm.64-.49h0c-.05,0-.07-.05,0-.11a.16.16,0,0,1,.12-.11s.06.05,0,.11A.27.27,0,0,1,14.59,20.19Zm-.79.22c-.05,0-.09,0-.09-.06h0a.18.18,0,0,1,.1-.15s.09,0,.09.06A.25.25,0,0,1,13.8,20.41Zm.8-.62s-.07,0-.09,0a.16.16,0,0,1,.05-.16s.1-.05.12,0a.15.15,0,0,1,0,.15ZM14,20s-.05,0-.07,0,0-.09,0-.15.1-.08.13,0,0,.1,0,.15Zm.35-.27h0c-.05,0-.08,0-.06-.08a.17.17,0,0,1,.11-.13c.05,0,.08,0,.06.08A.19.19,0,0,1,14.32,19.69Z"/><path class="cls-30" d="M25.43,12c.64-.34,1.15,0,1.14.66a2.42,2.42,0,0,1-1.2,1.88c-.64.34-1.15,0-1.13-.66A2.4,2.4,0,0,1,25.43,12Z"/><polygon class="cls-30" points="26.98 12.38 26.22 11.94 24.58 14.64 25.38 15.09 26.98 12.38"/><path class="cls-31" d="M25,14.35c0,.71.5,1,1.14.66a2.41,2.41,0,0,0,1.19-1.88c0-.71-.49-1-1.13-.66A2.42,2.42,0,0,0,25,14.35Z"/><ellipse class="cls-32" cx="26.2" cy="13.73" rx="1.02" ry="0.6" transform="translate(0.3 28.02) rotate(-56.54)"/><ellipse class="cls-33" cx="26.2" cy="13.73" rx="0.78" ry="0.46" transform="translate(0.3 28.02) rotate(-56.54)"/><path class="cls-33" d="M25.8,13.94c0,.25.18.36.4.24a.89.89,0,0,0,.43-.68c0-.25-.18-.35-.41-.23A.89.89,0,0,0,25.8,13.94Z"/><path class="cls-34" d="M26.29,14.22s-.08,0-.08,0a.18.18,0,0,1,.07-.16s.1,0,.11,0a.19.19,0,0,1-.08.16Zm-.34.09s-.05,0-.06,0-.05-.07,0-.13.09-.1.13-.09,0,.08,0,.14Zm.63-.48h0s-.06-.05,0-.12.08-.11.13-.11.06.05,0,.12A.22.22,0,0,1,26.58,13.83ZM25.8,14a.06.06,0,0,1-.09,0h0a.2.2,0,0,1,.09-.15c.05,0,.09,0,.09.06A.19.19,0,0,1,25.8,14Zm.79-.61a.05.05,0,0,1-.08,0,.16.16,0,0,1,0-.16s.1,0,.12,0a.16.16,0,0,1-.05.16ZM26,13.6s-.05,0-.07,0,0-.1,0-.15.1-.08.13,0,0,.09,0,.15A.15.15,0,0,1,26,13.6Zm.36-.27h0c-.05,0-.08,0-.07-.09a.17.17,0,0,1,.11-.13c.05,0,.08,0,.07.09A.19.19,0,0,1,26.32,13.33Z"/><path class="cls-35" d="M30.14,3.74,30,11.81,27.63,13s0,0,0,0c0-.87-.62-1.24-1.41-.82a3,3,0,0,0-1.48,2.34v.05l-9.33,4.9a.09.09,0,0,1,0-.05c0-.87-.62-1.24-1.42-.82a3,3,0,0,0-1.48,2.34.43.43,0,0,1,0,0L7.33,23.71l.17-8.07Z"/><path class="cls-36" d="M25,14.35c0,.7.49,1,1.13.66a2.42,2.42,0,0,0,1.2-1.88c0-.71-.5-1-1.14-.66A2.4,2.4,0,0,0,25,14.35Z"/><ellipse class="cls-32" cx="26.2" cy="13.73" rx="1.02" ry="0.6" transform="translate(0.3 28.02) rotate(-56.53)"/><path class="cls-33" d="M25.63,14c0,.34.24.49.56.32a1.18,1.18,0,0,0,.59-.93c0-.35-.24-.49-.56-.33A1.19,1.19,0,0,0,25.63,14Z"/><path class="cls-33" d="M25.8,13.94c0,.25.18.36.41.24a.87.87,0,0,0,.42-.68c0-.25-.17-.35-.4-.23A.88.88,0,0,0,25.8,13.94Z"/><path class="cls-34" d="M26.3,14.22q-.07,0-.09,0a.18.18,0,0,1,.07-.16s.1,0,.11,0a.16.16,0,0,1-.07.15Zm-.35.09a.07.07,0,0,1-.06,0s0-.07,0-.13.09-.1.13-.09,0,.08,0,.14Zm.63-.49,0,0s-.06-.05,0-.12.08-.11.13-.11.06.05,0,.11A.15.15,0,0,1,26.58,13.82ZM25.8,14a.06.06,0,0,1-.09,0h0a.19.19,0,0,1,.1-.15c.05,0,.09,0,.08.06A.19.19,0,0,1,25.8,14Zm.79-.61a.06.06,0,0,1-.08,0,.16.16,0,0,1,0-.16c.05,0,.1-.06.12,0a.16.16,0,0,1-.05.16ZM26,13.6h-.08s0-.1,0-.15.1-.08.13,0,0,.09,0,.15A.12.12,0,0,1,26,13.6Zm.35-.27h0c-.05,0-.08,0-.07-.09a.2.2,0,0,1,.12-.13s.07,0,.06.09A.19.19,0,0,1,26.32,13.33Z"/><path class="cls-37" d="M1.06,11.9.88,20l6.45,3.75.17-8.06ZM1.31,14c0-.18.13-.25.29-.16L7,17a.61.61,0,0,1,.28.49L7.16,20.6c0,.18-.14.25-.3.16L1.52,17.65a.59.59,0,0,1-.28-.49Z"/><g class="cls-38"><polygon class="cls-39" points="0.76 17.39 7.53 21.34 7.63 15.37 0.89 11.34 0.76 17.39"/></g><path class="cls-2" d="M1.52,17.65l5.34,3.11c.16.09.29,0,.3-.16l.07-3.16A.61.61,0,0,0,7,17L1.6,13.84c-.16-.09-.29,0-.29.16l-.07,3.16A.59.59,0,0,0,1.52,17.65Z"/><g class="cls-40"><polygon class="cls-41" points="1.75 16.72 8.51 13.17 8.59 9.69 1.83 13.24 1.75 16.72"/></g><g class="cls-42"><path class="cls-43" d="M1.6,18.07s.95-.93,4.62-2.24S.52,13.26.52,13.26L.29,17Z"/></g><path class="cls-44" d="M1.19,17.14,1.26,14c0-.2.16-.28.34-.18L7,16.9a.7.7,0,0,1,.32.56L7.2,20.63c0,.2-.15.28-.34.18L1.52,17.7A.71.71,0,0,1,1.19,17.14Zm.41-3.25c-.13-.07-.24,0-.25.13l-.07,3.17a.51.51,0,0,0,.24.41l5.34,3.11c.14.07.25,0,.25-.13l.07-3.17A.5.5,0,0,0,7,17Z"/><polygon class="cls-30" points="1.51 13.53 6.99 16.71 7.02 15.65 1.54 12.47 1.51 13.53"/><path class="cls-45" d="M5.5,15.75l1.11.64c.07,0,.12,0,.12-.06l0-.56a.3.3,0,0,0-.12-.21l-1.11-.64c-.07,0-.13,0-.13.07v.55A.26.26,0,0,0,5.5,15.75Z"/><g class="cls-46"><polygon class="cls-47" points="30.44 3.43 30.44 7.71 29.04 8.42 29.04 9.29 7.39 21.12 7.39 15.42 30.44 3.43"/></g><path class="cls-48" d="M6.15,16V16l.27.16,0-.08a1.11,1.11,0,0,1-.2-.48c0-.09.06-.16.19-.09a.55.55,0,0,1,.17.17l0,0a.4.4,0,0,0-.13-.13c-.09-.05-.12,0-.12.06a1.17,1.17,0,0,0,.22.48l.06.11v.05Z"/><path class="cls-48" d="M5.88,15.18a.53.53,0,0,1,.2.47c0,.22-.09.3-.21.23a.53.53,0,0,1-.2-.48C5.68,15.19,5.75,15.11,5.88,15.18Zm0,.07c-.08-.05-.12,0-.13.21a.41.41,0,0,0,.12.35c.07,0,.12,0,.13-.21A.41.41,0,0,0,5.88,15.25Z"/><polygon class="cls-48" points="2.49 13.49 5.2 15.07 5.21 14.88 2.5 13.3 2.49 13.49"/><polygon class="cls-48" points="3.97 14.68 5.2 15.39 5.2 15.2 3.97 14.49 3.97 14.68"/><polygon class="cls-49" points="30.14 3.74 23.69 0 1.06 11.9 7.5 15.65 30.14 3.74"/><polygon class="cls-47" points="9.78 11.95 8.4 11.93 6.37 10.79 9.65 10.14 9.78 11.95"/><path class="cls-50" d="M9.58,9.26l2.07,1.2-.85.41-1,.24s-1.09-.25-1.12-.27S8,10.05,8,10.05l.51-.49Z"/><path class="cls-47" d="M9.81,10.7s2.06-.86,2,.17L9.78,12Z"/><path class="cls-50" d="M7.78,9.52s2.06-.86,2,.18L7.75,10.78Z"/><polygon class="cls-39" points="7.75 10.78 9.78 11.95 9.81 10.7 7.78 9.52 7.75 10.78"/><polygon class="cls-47" points="7.86 10.11 9.67 11.17 9.57 10.74 7.97 9.81 7.86 10.11"/><polygon class="cls-47" points="7.85 10.56 9.66 11.62 9.56 11.27 7.96 10.34 7.85 10.56"/><polygon class="cls-50" points="7.97 9.81 8.02 9.84 7.93 10.07 9.65 11.07 9.67 11.17 7.86 10.11 7.97 9.81"/><polygon class="cls-50" points="7.96 10.34 8.01 10.37 7.92 10.52 9.63 11.52 9.66 11.62 7.85 10.56 7.96 10.34"/><polygon class="cls-47" points="22.86 4.9 21.49 4.87 19.46 3.73 22.74 3.09 22.86 4.9"/><path class="cls-50" d="M22.67,2.2l2.06,1.2-.84.41-1,.24s-1.08-.25-1.12-.27S21.07,3,21.07,3l.51-.49Z"/><path class="cls-47" d="M22.89,3.64s2.06-.86,2,.18L22.86,4.9Z"/><path class="cls-50" d="M20.86,2.46s2.07-.86,2,.18L20.84,3.72Z"/><polygon class="cls-39" points="20.84 3.72 22.86 4.9 22.89 3.64 20.86 2.46 20.84 3.72"/><polygon class="cls-47" points="20.94 3.06 22.75 4.11 22.66 3.68 21.06 2.75 20.94 3.06"/><polygon class="cls-47" points="20.93 3.51 22.75 4.56 22.65 4.21 21.05 3.29 20.93 3.51"/><polygon class="cls-50" points="21.06 2.75 21.11 2.78 21.02 3.02 22.73 4.01 22.75 4.11 20.94 3.06 21.06 2.75"/><polygon class="cls-50" points="21.05 3.29 21.09 3.31 21.01 3.46 22.72 4.46 22.75 4.56 20.93 3.51 21.05 3.29"/><polygon class="cls-44" points="29.41 8.79 29.49 5.21 8.04 16.54 7.96 20.51 29.41 8.79"/><polygon class="cls-51" points="29.31 5.58 8.27 16.68 8.2 20.11 29.23 8.62 29.31 5.58"/><polygon class="cls-44" points="29.33 6.61 8.1 17.72 8.1 17.6 29.33 6.49 29.33 6.61"/><line class="cls-52" x1="14.23" y1="13.42" x2="14.23" y2="16.94"/><line class="cls-52" x1="19.75" y1="10.47" x2="19.75" y2="13.98"/><line class="cls-52" x1="24.73" y1="7.86" x2="24.73" y2="11.28"/><polygon class="cls-53" points="4.38 21.99 4.38 21.36 3.05 20.58 3.05 21.22 4.38 21.99"/><polygon class="cls-54" points="7.36 22.89 0.9 19.14 0.89 19.31 7.36 23.07 7.36 22.89"/><polygon class="cls-55" points="7.37 21.93 0.91 18.18 0.9 19.14 7.37 22.9 7.37 21.93"/><polygon class="cls-56" points="7.38 21.9 0.91 18.15 0.91 18.24 7.38 22 7.38 21.9"/><polygon class="cls-44" points="7.39 21.05 0.94 17.3 0.93 17.51 7.39 21.26 7.39 21.05"/><polygon class="cls-57" points="5.51 21.66 6.41 22.18 6.42 21.61 5.52 21.08 5.51 21.66"/><path class="cls-58" d="M5.5,21.05l.94.55v.62l-.94-.55Zm.9.57-.86-.5v.53l.86.5Z"/><path class="cls-59" d="M5.73,21.5a.52.52,0,0,0,.23.4c.13.07.24,0,.24-.13a.49.49,0,0,0-.23-.4C5.84,21.29,5.73,21.35,5.73,21.5Z"/><polygon class="cls-60" points="6.87 22.46 6.49 22.23 6.5 21.66 6.74 21.79 6.87 22.46"/><path class="cls-58" d="M6.48,21.62l.27.16.15.72-.43-.25Zm.24.19-.2-.12v.53l.33.2Z"/><polygon class="cls-57" points="2.42 19.85 1.52 19.33 1.53 18.75 2.44 19.28 2.42 19.85"/><path class="cls-58" d="M2.44,19.89l-.94-.55v-.62l1,.55Zm-.9-.57.86.5,0-.53-.87-.5Z"/><path class="cls-59" d="M2.21,19.44c0,.15-.11.2-.24.13a.52.52,0,0,1-.23-.4c0-.15.11-.21.24-.13A.5.5,0,0,1,2.21,19.44Z"/><polygon class="cls-60" points="1.06 19.07 1.45 19.29 1.46 18.71 1.22 18.57 1.06 19.07"/><path class="cls-58" d="M1.46,19.33,1,19.08l.17-.54.28.16Zm-.37-.27.34.2v-.54l-.21-.11Z"/><path class="cls-61" d="M6.6,22.86a.17.17,0,0,1,.08.13s0,.06-.08,0l-.24-.14a.16.16,0,0,1-.07-.13s0-.06.07,0Z"/><path class="cls-61" d="M1.38,19.83a.14.14,0,0,1,.08.13s0,.06-.08,0l-.23-.14a.17.17,0,0,1-.08-.13c0-.05,0-.06.08,0Z"/><path class="cls-44" d="M7.21,20.45v.6L7,20.85s.22.07.19-.43Z"/><path class="cls-44" d="M1.19,17.14v.39l.19.11v-.08s0,0-.1-.17a.64.64,0,0,1,0-.23Z"/><path class="cls-8" d="M7.74,18.77l.61.36c.07,0,.14,0,.14-.07l0-1.28h.07l0,1.33c0,.12-.1.17-.21.11l-.61-.36Z"/><path class="cls-7" d="M8,17.31a.22.22,0,0,1,.08-.15h.14a.14.14,0,0,1,.16,0l.47.27a.49.49,0,0,1,.23.39L9,19a.14.14,0,0,1-.08.14H8.83a.18.18,0,0,1-.17,0L8.19,19A.47.47,0,0,1,8,18.57Z"/><path class="cls-8" d="M8.5,17.19A.32.32,0,0,0,8.37,17l-.61-.35v-.08l.6.35a.47.47,0,0,1,.2.35v0l-.07,0Z"/><polygon class="cls-8" points="7.77 16.53 7.7 16.57 8.03 16.77 8.38 17.01 8.47 17.17 8.5 17.3 8.57 17.27 8.54 17.16 8.48 17.03 8.39 16.95 7.77 16.53"/><path class="cls-9" d="M8.43,17.23A.25.25,0,0,0,8.3,17l-.6-.35v-.08l.6.35a.41.41,0,0,1,.2.35v0l-.07,0Z"/><path class="cls-8" d="M7.74,18.77l-.08,0,.4.27.29.13,0,.06h0s.08,0,.09-.06,0,0,0,0H8.44l-.09,0Z"/><path class="cls-8" d="M7.74,18.77l-.08,0,.4.27.29.13,0,.06h0s.08,0,.09-.06,0,0,0,0H8.44l-.09,0Z"/><path class="cls-9" d="M7.66,18.81l.61.36a.09.09,0,0,0,.14-.07l0-1.28h.08l0,1.32a.13.13,0,0,1-.21.11l-.61-.36Z"/><path class="cls-10" d="M8.19,19l.47.27c.13.08.23,0,.24-.12l0-1.26a.46.46,0,0,0-.22-.39l-.47-.27c-.13-.08-.23,0-.24.12l0,1.26A.47.47,0,0,0,8.19,19Z"/><polygon class="cls-62" points="29.45 5.03 29.47 4.37 8.04 15.61 8.02 16.34 29.45 5.03"/><g class="cls-46"><path class="cls-63" d="M19,17.24c0-.12-.08-.19-.16-.15h0l-.06-1.8h0a.3.3,0,0,0,.1-.29v0l4.82-2.57v0c0,.12.08.19.16.15h0l.06,1.8h0a.3.3,0,0,0-.1.29v0L19,17.26Zm4.92-2.89-.05-1.72c-.08,0-.15,0-.18-.17L18.94,15a.38.38,0,0,1-.12.32l.05,1.72c.08,0,.15,0,.18.16l4.77-2.55A.35.35,0,0,1,23.94,14.35Z"/><path class="cls-63" d="M24.33,14.4c0-.12-.09-.18-.16-.14h0l-.06-1.8h0a.3.3,0,0,0,.11-.29v0L29,9.57v0c0,.12.09.19.17.15h0l.05,1.81h0a.3.3,0,0,0-.1.29v0l-4.83,2.57Zm4.91-2.89,0-1.72c-.08,0-.16,0-.18-.16l-4.77,2.54a.36.36,0,0,1-.12.32l.05,1.72c.08,0,.15,0,.17.16l4.78-2.55A.37.37,0,0,1,29.24,11.51Z"/><path class="cls-63" d="M13.71,20.15c0-.12-.09-.19-.17-.15h0l0-1.8h0a.3.3,0,0,0,.1-.29v0l4.83-2.57v0c0,.12.09.18.16.15h0l.06,1.8h0a.3.3,0,0,0-.11.29v0l-4.82,2.57Zm4.91-2.9-.05-1.72c-.08,0-.15,0-.17-.16l-4.78,2.55a.37.37,0,0,1-.11.31l0,1.72c.08,0,.16,0,.18.16l4.77-2.54A.36.36,0,0,1,18.62,17.25Z"/><path class="cls-63" d="M8.44,22.93c0-.12-.09-.18-.16-.15h0L8.21,21.1h0a.33.33,0,0,0,.11-.29v0l4.83-2.61v0c0,.12.09.19.16.15h0l.06,1.74h0a.33.33,0,0,0-.11.29v0L8.44,23ZM13.35,20l0-1.65c-.07,0-.15,0-.17-.17L8.35,20.81a.36.36,0,0,1-.11.32l0,1.61c.07,0,.15,0,.17.16l4.78-2.55A.34.34,0,0,1,13.35,20Z"/></g><polygon class="cls-44" points="28.08 10.62 29.39 9.91 29.38 9.83 28.07 10.55 28.08 10.62"/><polygon class="cls-44" points="28.09 10.91 29.39 10.17 29.38 10.1 28.07 10.84 28.09 10.91"/><polygon class="cls-44" points="28.09 11.21 29.39 10.47 29.38 10.39 28.07 11.14 28.09 11.21"/><polygon class="cls-44" points="28.09 11.5 29.39 10.76 29.38 10.69 28.07 11.43 28.09 11.5"/><polygon class="cls-63" points="22.56 14.05 22.7 14 22.69 13.84 22.56 13.89 22.56 14.05"/><polygon class="cls-63" points="28.3 11.78 28.43 11.73 28.43 11.57 28.29 11.62 28.3 11.78"/><polygon class="cls-63" points="24.52 12.65 24.65 12.6 24.65 12.44 24.51 12.49 24.52 12.65"/><polygon class="cls-63" points="23.02 14.29 23.16 14.24 23.16 14.08 23.02 14.13 23.02 14.29"/><polygon class="cls-63" points="27.61 11.27 27.75 11.21 27.74 11.05 27.61 11.11 27.61 11.27"/><polygon class="cls-63" points="27.06 11.61 27.2 11.56 27.19 11.4 27.05 11.45 27.06 11.61"/><polygon class="cls-63" points="25.03 12.58 25.17 12.53 25.16 12.37 25.03 12.42 25.03 12.58"/><polygon class="cls-63" points="24.66 13.49 24.8 13.44 24.8 13.28 24.66 13.33 24.66 13.49"/><polygon class="cls-63" points="22.16 15.05 22.3 15 22.3 14.84 22.16 14.89 22.16 15.05"/><polygon class="cls-63" points="20.65 15.13 20.79 15.08 20.78 14.92 20.65 14.97 20.65 15.13"/><polygon class="cls-63" points="19.91 15.89 20.04 15.84 20.04 15.68 19.9 15.73 19.91 15.89"/><polygon class="cls-63" points="19.2 16.64 19.34 16.59 19.33 16.43 19.2 16.48 19.2 16.64"/><polygon class="cls-63" points="17.39 16.82 17.53 16.77 17.53 16.61 17.39 16.66 17.39 16.82"/><polygon class="cls-63" points="17.7 17.26 17.84 17.21 17.84 17.05 17.7 17.1 17.7 17.26"/><polygon class="cls-63" points="16.61 17.49 16.75 17.44 16.74 17.28 16.61 17.33 16.61 17.49"/><polygon class="cls-63" points="15.29 17.6 15.43 17.55 15.43 17.39 15.29 17.44 15.29 17.6"/><polygon class="cls-63" points="15.89 18.41 16.02 18.36 16.02 18.2 15.88 18.25 15.89 18.41"/><polygon class="cls-63" points="15.22 18.3 15.36 18.25 15.35 18.09 15.22 18.14 15.22 18.3"/><polygon class="cls-63" points="12.22 19.34 12.36 19.29 12.36 19.13 12.22 19.18 12.22 19.34"/><polygon class="cls-63" points="12.15 19.99 12.29 19.94 12.29 19.78 12.15 19.83 12.15 19.99"/><polygon class="cls-63" points="11.29 20.21 11.43 20.16 11.42 20 11.29 20.05 11.29 20.21"/><polygon class="cls-63" points="10.23 21.22 10.37 21.17 10.36 21.01 10.23 21.06 10.23 21.22"/><polygon class="cls-63" points="11.31 21.03 11.45 20.98 11.45 20.82 11.31 20.87 11.31 21.03"/><polygon class="cls-63" points="9.16 21.22 9.3 21.17 9.29 21.01 9.16 21.06 9.16 21.22"/><polygon class="cls-63" points="18.07 16.5 18.21 16.44 18.21 16.28 18.07 16.34 18.07 16.5"/><polygon class="cls-64" points="29.34 4.96 29.35 4.56 8.15 15.68 8.14 16.15 29.34 4.96"/></g></g></g></svg>