<svg xmlns="http://www.w3.org/2000/svg" xmlns:xlink="http://www.w3.org/1999/xlink" viewBox="0 0 30.43 23.47"><defs><style>.cls-1{fill:#5b3b41;}.cls-2,.cls-45{fill:none;}.cls-3{fill:#312324;}.cls-4{fill:#735356;}.cls-5{isolation:isolate;}.cls-6{fill:#cec5c6;}.cls-7{fill:#566664;}.cls-8{fill:#484747;}.cls-9{fill:#1e1f1f;}.cls-10{fill:#394847;}.cls-11{fill:#353636;}.cls-12{fill:#a5040e;}.cls-13{fill:#2a4020;}.cls-14{fill:#254322;}.cls-15{fill:#3f3e41;}.cls-16{fill:#616165;}.cls-17{fill:#151418;}.cls-18{fill:#4d7033;}.cls-19{fill:#0b120e;}.cls-20{fill:#7e8664;}.cls-21{clip-path:url(#clip-path);}.cls-22{fill:#392e30;}.cls-23{fill:#223129;}.cls-24{fill:#040000;}.cls-25{clip-path:url(#clip-path-2);}.cls-26{clip-path:url(#clip-path-3);}.cls-27{fill:#0f1010;}.cls-28{clip-path:url(#clip-path-4);}.cls-29{fill:#80686b;}.cls-30{fill:#303036;}.cls-31{fill:#4f4f52;}.cls-32{fill:#86858c;}.cls-33{fill:#bab8c1;}.cls-34{fill:#464251;}.cls-35{fill:#c7000b;}.cls-36{fill:#454545;}.cls-37{fill:#d7000f;}.cls-38{clip-path:url(#clip-path-5);}.cls-39{fill:#99777d;}.cls-40{clip-path:url(#clip-path-6);}.cls-41{fill:#f7f2e7;}.cls-42{clip-path:url(#clip-path-7);}.cls-43{fill:#362d30;mix-blend-mode:screen;}.cls-44{fill:#442a2f;}.cls-45{stroke:#f18d20;stroke-miterlimit:10;stroke-width:0.05px;}.cls-46{fill:#f18d20;}.cls-47{fill:#fdf9f0;}.cls-48{fill:#277338;}.cls-49{clip-path:url(#clip-path-8);}.cls-50{fill:#e3d4bc;}.cls-51{fill:#a89171;}.cls-52{fill:#fffef4;}.cls-53{fill:#e99915;}.cls-54{fill:#fff;}.cls-55{fill:#79545b;}</style><clipPath id="clip-path" transform="translate(0.58)"><polygon class="cls-3" points="17.22 7.89 21.76 5.5 21.84 2.06 17.3 4.45 17.22 7.89"/></clipPath><clipPath id="clip-path-2" transform="translate(0.58)"><polygon class="cls-2" points="14.99 9.6 16.34 8.89 16.43 5.24 15.07 5.95 14.99 9.6"/></clipPath><clipPath id="clip-path-3" transform="translate(0.58)"><polygon class="cls-2" points="13.1 10.6 14.45 9.89 14.53 6.23 13.18 6.95 13.1 10.6"/></clipPath><clipPath id="clip-path-4" transform="translate(0.58)"><polygon class="cls-4" points="0.87 16.56 7.56 13.04 7.63 9.6 0.94 13.11 0.87 16.56"/></clipPath><clipPath id="clip-path-5" transform="translate(0.58)"><path class="cls-1" d="M.63,16.47l5.29,3.07c.16.09.29,0,.3-.15l.06-3.13A.62.62,0,0,0,6,15.77L.71,12.7a.18.18,0,0,0-.29.15L.35,16A.63.63,0,0,0,.63,16.47Z"/></clipPath><clipPath id="clip-path-6" transform="translate(0.58)"><path class="cls-2" d="M.18,11.78l-.18,8,6.38,3.71.18-8Zm.24,1.07c0-.18.14-.24.29-.15L6,15.77a.6.6,0,0,1,.27.49l-.06,3.13c0,.17-.14.24-.3.15L.63,16.47A.63.63,0,0,1,.35,16Z"/></clipPath><clipPath id="clip-path-7" transform="translate(0.58)"><path class="cls-2" d="M.63,16.47l5.29,3.07c.16.09.29,0,.3-.15l.06-3.13A.62.62,0,0,0,6,15.77L.71,12.7a.18.18,0,0,0-.29.15L.35,16A.63.63,0,0,0,.63,16.47Z"/></clipPath><clipPath id="clip-path-8" transform="translate(0.58)"><path class="cls-2" d="M29,3.7l-.18,8-2.3,1.21v-.05c0-.86-.61-1.23-1.4-.81a3,3,0,0,0-1.46,2.31v.05L14.4,19.26v-.05c0-.87-.61-1.23-1.4-.82a3,3,0,0,0-1.46,2.32v.05L6.38,23.47l.18-8Z"/></clipPath></defs><title>img_bus3</title><g class="cls-5"><g id="レイヤー_2" data-name="レイヤー 2"><g id="乗り物"><polygon class="cls-6" points="24.97 14.98 22.5 14.93 23.44 13.88 25.16 13.69 24.97 14.98"/><path class="cls-7" d="M20.48.94A.14.14,0,0,1,20.56.8h.13a.18.18,0,0,1,.17,0l.46.27a.47.47,0,0,1,.22.39l0,1.25c0,.07,0,.12-.08.14h-.13a.21.21,0,0,1-.17,0l-.46-.27a.47.47,0,0,1-.22-.39Z" transform="translate(0.58)"/><path class="cls-8" d="M21,.78c0-.13.1-.18.21-.11l.6.34v.08l-.6-.34c-.07-.05-.13,0-.14.07V.89L21,.85Z" transform="translate(0.58)"/><path class="cls-8" d="M21,1.24l0,1.45a.29.29,0,0,0,.13.22l.61.35v.08L21.14,3a.44.44,0,0,1-.2-.34l0-1.43Z" transform="translate(0.58)"/><polygon class="cls-8" points="22.37 1.01 22.29 1.06 21.68 0.73 21.63 0.73 21.63 0.9 21.55 0.94 21.5 0.84 21.59 0.75 21.71 0.68 22.37 1.01"/><path class="cls-9" d="M20.9.82a.13.13,0,0,1,.21-.11l.6.35v.08l-.6-.35A.09.09,0,0,0,21,.86V.94L20.9.9Z" transform="translate(0.58)"/><polygon class="cls-8" points="22.33 3.26 22.25 3.31 21.77 3.06 21.54 2.92 21.51 2.81 21.51 2.68 21.63 2.86 21.93 3.06 22.33 3.26"/><path class="cls-9" d="M21,1.28l0,1.45a.32.32,0,0,0,.13.23l.61.35v.08L21.06,3a.44.44,0,0,1-.2-.34l0-1.43Z" transform="translate(0.58)"/><path class="cls-10" d="M20.68,2.58l.46.27c.13.07.23,0,.24-.12l0-1.25a.47.47,0,0,0-.22-.39L20.71.82c-.12-.07-.22,0-.23.12l0,1.25A.47.47,0,0,0,20.68,2.58Z" transform="translate(0.58)"/><polygon class="cls-11" points="22.33 3.26 22.25 3.31 22.25 3.39 22.32 3.34 22.33 3.26"/><polygon class="cls-6" points="13.11 21.29 10.18 21.23 10.92 20.06 12.94 19.82 13.11 21.29"/><path class="cls-12" d="M26.49,12.9l-.77-.42.36-.46.63-.08.23.2-.45.75Z" transform="translate(0.58)"/><polygon class="cls-12" points="14.98 19.26 14.14 18.85 14.28 18.05 15.01 18.01 15.27 18.36 14.98 19.26"/><path class="cls-13" d="M11.75,19.18c-.07,0-5,2.14-5,2.14L3.51,19.58.05,18l3-1.54,4-1.61L8.64,16Z" transform="translate(0.58)"/><path class="cls-14" d="M8.58,14.13l-2,2.11-1.92.5a6.36,6.36,0,0,1,1.48-2.18A2.88,2.88,0,0,1,8.58,14.13Z" transform="translate(0.58)"/><path class="cls-14" d="M20.76,7.73l-2,2.11-1.92.5a6.36,6.36,0,0,1,1.48-2.18A2.88,2.88,0,0,1,20.76,7.73Z" transform="translate(0.58)"/><path class="cls-15" d="M5.84,16.63c0,.45.32.64.73.42a1.53,1.53,0,0,0,.76-1.21c0-.45-.31-.64-.73-.42A1.56,1.56,0,0,0,5.84,16.63Z" transform="translate(0.58)"/><path class="cls-16" d="M6,16.54c0,.34.24.49.55.32a1.18,1.18,0,0,0,.59-.92c0-.35-.24-.49-.56-.33A1.16,1.16,0,0,0,6,16.54Z" transform="translate(0.58)"/><path class="cls-16" d="M6.19,16.44c0,.25.17.35.4.24A.84.84,0,0,0,7,16c0-.25-.17-.35-.4-.23A.82.82,0,0,0,6.19,16.44Z" transform="translate(0.58)"/><path class="cls-17" d="M6.68,16.72s-.08,0-.09,0a.18.18,0,0,1,.07-.16s.1,0,.11,0a.16.16,0,0,1-.07.15Zm-.35.09s0,0,0,0,0-.07,0-.13.09-.1.12-.09.05.08,0,.14A.12.12,0,0,1,6.33,16.81ZM7,16.33h0s-.06-.05,0-.11.08-.11.13-.11.06.05,0,.11A.22.22,0,0,1,7,16.33Zm-.77.21c-.05,0-.09,0-.09-.05h0a.17.17,0,0,1,.09-.14s.09,0,.09.05A.17.17,0,0,1,6.19,16.54Zm.78-.6a.05.05,0,0,1-.08,0s0-.1.05-.15.1-.06.12,0a.16.16,0,0,1,0,.16Zm-.62.16a0,0,0,0,1-.07,0s0-.09,0-.14.1-.08.13-.05,0,.09,0,.14A.13.13,0,0,1,6.35,16.1Zm.35-.26h0s-.08,0-.06-.09a.17.17,0,0,1,.11-.13s.08,0,.06.09A.19.19,0,0,1,6.7,15.84Z" transform="translate(0.58)"/><path class="cls-18" d="M22.59,0l-.18,8L20.11,9.2v0c0-.87-.6-1.23-1.39-.82a3,3,0,0,0-1.47,2.32v0L8,15.55V15.5c0-.86-.6-1.23-1.39-.81A3,3,0,0,0,5.16,17v.05L0,19.76l.18-8Z" transform="translate(0.58)"/><polygon class="cls-19" points="9.18 12.54 9.33 12.46 9.41 8.86 9.26 8.94 9.18 12.54"/><polygon class="cls-19" points="13.21 12.7 17.3 10.55 17.43 4.53 13.34 6.68 13.21 12.7"/><polygon class="cls-18" points="13.49 12.31 17.02 10.46 17.15 4.92 13.62 6.77 13.49 12.31"/><polygon class="cls-19" points="15.14 11.5 15.38 11.37 15.5 5.73 15.26 5.86 15.14 11.5"/><polygon class="cls-3" points="15.57 9.6 16.93 8.89 17.01 5.24 15.65 5.95 15.57 9.6"/><polygon class="cls-3" points="13.68 10.6 15.03 9.89 15.11 6.23 13.76 6.95 13.68 10.6"/><polygon class="cls-20" points="13.23 12.91 17.3 10.78 17.3 10.55 13.24 12.69 13.23 12.91"/><polygon class="cls-19" points="22.49 5.61 17.67 8.14 17.75 4.36 22.57 1.83 22.49 5.61"/><polygon class="cls-3" points="17.8 7.89 22.34 5.5 22.42 2.06 17.88 4.45 17.8 7.89"/><g class="cls-21"><polygon class="cls-22" points="24.96 7.44 25.2 7.08 17.02 2.32 16.78 2.69 24.96 7.44"/><polygon class="cls-22" points="22.94 8.91 23.83 7.5 16.15 3.04 15.26 4.45 22.94 8.91"/></g><polygon class="cls-19" points="17.79 5.31 22.53 2.81 22.54 2.69 17.79 5.18 17.79 5.31"/><path class="cls-23" d="M18.39,3.45l2.25-1.18a.44.44,0,0,0,.22-.34V1.47c0-.12-.09-.17-.21-.11L18.41,2.54a.43.43,0,0,0-.21.34v.46C18.19,3.46,18.28,3.51,18.39,3.45Z" transform="translate(0.58)"/><path class="cls-24" d="M18.5,3.27l2-1.07a.46.46,0,0,0,.21-.33V1.66c0-.13-.09-.18-.2-.12l-2,1.07a.41.41,0,0,0-.21.33v.21C18.3,3.28,18.39,3.33,18.5,3.27Z" transform="translate(0.58)"/><polygon class="cls-23" points="18.87 2.97 21.37 1.65 21.38 1.52 18.87 2.84 18.87 2.97"/><polygon class="cls-23" points="18.87 3.24 21.38 1.92 21.38 1.79 18.87 3.11 18.87 3.24"/><path class="cls-23" d="M7.82,9l2.25-1.19a.44.44,0,0,0,.22-.33V7c0-.13-.09-.18-.21-.12L7.84,8.1a.43.43,0,0,0-.21.33v.46C7.62,9,7.71,9.07,7.82,9Z" transform="translate(0.58)"/><path class="cls-24" d="M7.93,8.82l2-1.06a.46.46,0,0,0,.21-.34V7.21c0-.12-.09-.17-.2-.11L8,8.16a.41.41,0,0,0-.21.34v.21C7.73,8.83,7.82,8.88,7.93,8.82Z" transform="translate(0.58)"/><polygon class="cls-23" points="8.3 8.53 10.8 7.21 10.81 7.08 8.3 8.39 8.3 8.53"/><polygon class="cls-23" points="8.3 8.79 10.81 7.48 10.81 7.35 8.3 8.66 8.3 8.79"/><polygon class="cls-22" points="7.59 15.93 8.1 15.13 1.79 11.46 1.29 12.27 7.59 15.93"/><g class="cls-25"><polygon class="cls-22" points="18.7 9.64 19.1 9.01 13.11 5.53 12.71 6.16 18.7 9.64"/><polygon class="cls-22" points="18.58 10.3 18.7 10.11 12.48 6.5 12.36 6.69 18.58 10.3"/></g><g class="cls-26"><polygon class="cls-22" points="18.7 9.64 19.1 9.01 13.11 5.53 12.71 6.16 18.7 9.64"/><polygon class="cls-22" points="18.58 10.3 18.7 10.11 12.48 6.5 12.36 6.69 18.58 10.3"/></g><path class="cls-27" d="M17.53,10.5c0,.7.49,1,1.12.66a2.38,2.38,0,0,0,1.18-1.87c0-.69-.48-1-1.12-.65A2.37,2.37,0,0,0,17.53,10.5Z" transform="translate(0.58)"/><ellipse class="cls-15" cx="18.69" cy="9.89" rx="1.01" ry="0.6" transform="matrix(0.55, -0.83, 0.83, 0.55, 0.71, 20.03)"/><ellipse class="cls-16" cx="18.69" cy="9.89" rx="0.77" ry="0.46" transform="translate(0.71 20.03) rotate(-56.54)"/><path class="cls-16" d="M18.3,10.1c0,.24.17.35.4.23a.89.89,0,0,0,.42-.67c0-.24-.18-.35-.4-.23A.84.84,0,0,0,18.3,10.1Z" transform="translate(0.58)"/><path class="cls-17" d="M18.78,10.37s-.07,0-.08,0a.18.18,0,0,1,.07-.16c.05,0,.1,0,.11,0a.19.19,0,0,1-.08.16Zm-.34.1h-.06s0-.07,0-.13.09-.1.13-.08,0,.07,0,.13A.27.27,0,0,1,18.44,10.47Zm.63-.49h0c-.05,0-.06-.05,0-.11a.16.16,0,0,1,.12-.11c.05,0,.07.05,0,.11A.16.16,0,0,1,19.07,10Zm-.78.22c-.05,0-.09,0-.09-.06h0a.23.23,0,0,1,.1-.15c.05,0,.09,0,.09.06A.22.22,0,0,1,18.29,10.2Zm.79-.61s-.07,0-.08,0a.17.17,0,0,1,0-.16c.05,0,.11-.05.13,0s0,.1-.05.15A.05.05,0,0,1,19.08,9.59Zm-.62.17h-.07s0-.1,0-.15.09-.08.12,0a.12.12,0,0,1,0,.15Zm.35-.27h0c-.05,0-.08,0-.07-.08a.17.17,0,0,1,.11-.13c.05,0,.08,0,.07.08A.19.19,0,0,1,18.81,9.49Z" transform="translate(0.58)"/><polygon class="cls-19" points="8.35 13.11 1.25 16.84 1.34 13.06 8.44 9.33 8.35 13.11"/><polygon class="cls-4" points="1.45 16.56 8.14 13.04 8.21 9.6 1.52 13.11 1.45 16.56"/><g class="cls-28"><polygon class="cls-29" points="9.61 14.48 10.53 13.04 3.74 9.1 2.82 10.54 9.61 14.48"/><polygon class="cls-29" points="8.73 15.38 8.87 15.15 2.34 11.36 2.19 11.58 8.73 15.38"/><polygon class="cls-22" points="6.92 18.62 7.43 17.82 1.13 14.15 0.62 14.96 6.92 18.62"/></g><polygon class="cls-19" points="1.39 13.99 8.39 10.32 8.4 10.19 1.4 13.87 1.39 13.99"/><path class="cls-12" d="M15,17.83l-2,2.11-1.91.5a6.46,6.46,0,0,1,1.48-2.18A2.91,2.91,0,0,1,15,17.83Z" transform="translate(0.58)"/><path class="cls-12" d="M27.14,11.43l-2,2.11-1.92.5a6.46,6.46,0,0,1,1.49-2.18A2.91,2.91,0,0,1,27.14,11.43Z" transform="translate(0.58)"/><path class="cls-30" d="M12.43,18.2c.64-.34,1.14-.05,1.13.65a2.43,2.43,0,0,1-1.18,1.87c-.64.33-1.15,0-1.13-.66A2.37,2.37,0,0,1,12.43,18.2Z" transform="translate(0.58)"/><polygon class="cls-30" points="14.55 18.55 13.79 18.12 12.17 20.79 12.96 21.24 14.55 18.55"/><path class="cls-31" d="M12,20.51c0,.7.49,1,1.12.65a2.37,2.37,0,0,0,1.18-1.86c0-.7-.48-1-1.12-.66A2.38,2.38,0,0,0,12,20.51Z" transform="translate(0.58)"/><ellipse class="cls-32" cx="13.19" cy="19.9" rx="1.01" ry="0.6" transform="translate(-10.1 19.93) rotate(-56.53)"/><path class="cls-33" d="M12.62,20.2c0,.34.24.49.56.32a1.16,1.16,0,0,0,.58-.92c0-.35-.24-.49-.55-.33A1.2,1.2,0,0,0,12.62,20.2Z" transform="translate(0.58)"/><path class="cls-33" d="M12.8,20.1c0,.25.17.35.4.23a.86.86,0,0,0,.42-.66c0-.25-.18-.35-.4-.23A.82.82,0,0,0,12.8,20.1Z" transform="translate(0.58)"/><path class="cls-34" d="M13.29,20.38s-.08,0-.09,0a.18.18,0,0,1,.07-.16c.05,0,.1,0,.11,0a.17.17,0,0,1-.07.15Zm-.35.09a.07.07,0,0,1-.06,0s0-.07,0-.13.09-.1.13-.09.05.08,0,.14A.16.16,0,0,1,12.94,20.47Zm.63-.48h0s-.06-.05,0-.11a.16.16,0,0,1,.12-.11c.05,0,.07,0,0,.11A.2.2,0,0,1,13.57,20Zm-.78.21a.06.06,0,0,1-.09-.05h0a.21.21,0,0,1,.1-.14s.09,0,.09.05A.2.2,0,0,1,12.79,20.2Zm.79-.6a.05.05,0,0,1-.08,0s0-.1.05-.15.1-.06.12,0a.16.16,0,0,1-.05.16Zm-.62.16s-.05,0-.07,0,0-.09,0-.15.09-.07.12-.05,0,.1,0,.15A.13.13,0,0,1,13,19.76Zm.35-.26h0s-.08,0-.07-.09a.21.21,0,0,1,.11-.13c.05,0,.08,0,.07.09A.19.19,0,0,1,13.31,19.5Z" transform="translate(0.58)"/><path class="cls-30" d="M24.31,11.9c.63-.34,1.14-.05,1.12.65a2.38,2.38,0,0,1-1.18,1.87c-.64.33-1.14,0-1.12-.66A2.37,2.37,0,0,1,24.31,11.9Z" transform="translate(0.58)"/><polygon class="cls-30" points="26.42 12.25 25.67 11.82 24.05 14.49 24.84 14.94 26.42 12.25"/><path class="cls-31" d="M23.9,14.21c0,.7.49,1,1.13.65A2.39,2.39,0,0,0,26.21,13c0-.7-.49-1-1.13-.66A2.43,2.43,0,0,0,23.9,14.21Z" transform="translate(0.58)"/><ellipse class="cls-32" cx="25.07" cy="13.6" rx="1.01" ry="0.6" transform="translate(0.48 27.01) rotate(-56.54)"/><ellipse class="cls-33" cx="25.07" cy="13.6" rx="0.77" ry="0.46" transform="translate(0.48 27.01) rotate(-56.54)"/><path class="cls-33" d="M24.67,13.8c0,.25.18.35.4.23a.81.81,0,0,0,.42-.66c0-.25-.17-.35-.4-.23A.87.87,0,0,0,24.67,13.8Z" transform="translate(0.58)"/><path class="cls-34" d="M25.16,14.08s-.08,0-.09,0a.19.19,0,0,1,.08-.16s.09,0,.1,0a.17.17,0,0,1-.07.15Zm-.34.09h-.06s0-.07,0-.13.09-.1.13-.09,0,.08,0,.14A.23.23,0,0,1,24.82,14.17Zm.63-.48h0c-.05,0-.07,0,0-.11a.16.16,0,0,1,.12-.11s.06,0,0,.11A.27.27,0,0,1,25.45,13.69Zm-.78.21a.06.06,0,0,1-.09-.05h0a.16.16,0,0,1,.1-.14c.05,0,.09,0,.08.05A.19.19,0,0,1,24.67,13.9Zm.79-.6s-.07,0-.08,0,0-.1,0-.15.1-.06.12,0a.17.17,0,0,1,0,.16Zm-.62.16a.06.06,0,0,1-.08,0s0-.09,0-.15.1-.07.13-.05,0,.1,0,.15A.08.08,0,0,1,24.84,13.46Zm.34-.26h0c-.05,0-.07,0-.06-.09a.17.17,0,0,1,.11-.13c.05,0,.08,0,.07.08A.17.17,0,0,1,25.18,13.2Z" transform="translate(0.58)"/><path class="cls-35" d="M29,3.7l-.18,8-2.3,1.21v-.05c0-.86-.61-1.23-1.4-.81a3,3,0,0,0-1.46,2.31v.05L14.4,19.26v-.05c0-.87-.61-1.23-1.4-.82a3,3,0,0,0-1.46,2.32v.05L6.38,23.47l.18-8Z" transform="translate(0.58)"/><path class="cls-36" d="M23.91,14.21c0,.69.48,1,1.12.65A2.37,2.37,0,0,0,26.21,13c0-.7-.49-1-1.12-.66A2.38,2.38,0,0,0,23.91,14.21Z" transform="translate(0.58)"/><ellipse class="cls-32" cx="25.07" cy="13.6" rx="1.01" ry="0.6" transform="translate(0.48 27.01) rotate(-56.53)"/><path class="cls-33" d="M24.5,13.9c0,.34.24.49.56.32a1.21,1.21,0,0,0,.58-.92c0-.35-.24-.49-.55-.33A1.2,1.2,0,0,0,24.5,13.9Z" transform="translate(0.58)"/><path class="cls-33" d="M24.67,13.8c0,.25.18.35.4.23a.86.86,0,0,0,.43-.66c0-.25-.18-.35-.41-.23A.86.86,0,0,0,24.67,13.8Z" transform="translate(0.58)"/><path class="cls-34" d="M25.16,14.08s-.08,0-.08,0a.18.18,0,0,1,.07-.15c.05,0,.1,0,.1,0s0,.11-.07.15Zm-.34.09h-.06s0-.07,0-.13.09-.1.13-.09,0,.08,0,.14A.23.23,0,0,1,24.82,14.17Zm.63-.48h0c-.05,0-.06,0,0-.11a.16.16,0,0,1,.12-.11c.05,0,.06,0,0,.11A.27.27,0,0,1,25.45,13.69Zm-.78.21a.06.06,0,0,1-.09-.05h0a.18.18,0,0,1,.1-.14c.05,0,.09,0,.08.05A.19.19,0,0,1,24.67,13.9Zm.79-.6s-.07,0-.08,0a.15.15,0,0,1,0-.15c0-.05.1-.06.12,0a.17.17,0,0,1,0,.16Zm-.62.16s-.06,0-.07,0,0-.09,0-.15.09-.07.12-.05,0,.1,0,.15A.08.08,0,0,1,24.84,13.46Zm.35-.26h0c-.05,0-.08,0-.07-.09a.17.17,0,0,1,.11-.13c.05,0,.08,0,.07.08A.18.18,0,0,1,25.19,13.2Z" transform="translate(0.58)"/><path class="cls-37" d="M.18,11.78l-.18,8,6.38,3.71.18-8Zm.24,1.07c0-.18.14-.24.29-.15L6,15.77a.6.6,0,0,1,.27.49l-.06,3.13c0,.17-.14.24-.3.15L.63,16.47A.63.63,0,0,1,.35,16Z" transform="translate(0.58)"/><path class="cls-1" d="M.63,16.47l5.29,3.07c.16.09.29,0,.3-.15l.06-3.13A.62.62,0,0,0,6,15.77L.71,12.7a.18.18,0,0,0-.29.15L.35,16A.63.63,0,0,0,.63,16.47Z" transform="translate(0.58)"/><g class="cls-38"><polygon class="cls-39" points="1.45 16.56 8.14 13.04 8.21 9.6 1.52 13.11 1.45 16.56"/></g><g class="cls-40"><path class="cls-41" d="M6.46,20.06c-1.14.5-3.59.1-5-.6A3.66,3.66,0,0,1-.14,16.93L0,11.18,7.33,15.1Z" transform="translate(0.58)"/></g><g class="cls-42"><path class="cls-43" d="M.72,17.89s.94-.92,4.56-2.22S-.35,13.12-.35,13.12l-.23,3.72Z" transform="translate(0.58)"/></g><path class="cls-44" d="M.31,16l.07-3.13c0-.2.15-.28.34-.18L6,15.72a.73.73,0,0,1,.32.56l-.07,3.13c0,.2-.16.28-.34.18L.63,16.51A.7.7,0,0,1,.31,16Zm.4-3.21c-.13-.07-.24,0-.24.13L.4,16a.51.51,0,0,0,.23.41l5.3,3.08c.13.07.24,0,.24-.13l.07-3.13A.53.53,0,0,0,6,15.82Z" transform="translate(0.58)"/><polygon class="cls-30" points="1.21 13.98 6.63 17.13 6.66 16.08 1.23 12.93 1.21 13.98"/><path class="cls-45" d="M.93,14.05l1.1.64c.07,0,.12,0,.13-.07v-.55a.27.27,0,0,0-.12-.21L1,13.23c-.07,0-.12,0-.12.06l0,.55A.28.28,0,0,0,.93,14.05Z" transform="translate(0.58)"/><path class="cls-46" d="M1.1,14v0l.06,0c.12-.07.18-.11.18-.2a.22.22,0,0,0-.1-.18.15.15,0,0,0-.11,0l0-.07a.18.18,0,0,1,.15,0,.3.3,0,0,1,.16.26c0,.11-.06.16-.17.22l0,0,.23.13v.07Z" transform="translate(0.58)"/><path class="cls-46" d="M1.85,14.17q0,.3-.18.21A.47.47,0,0,1,1.5,14c0-.19.07-.26.17-.2A.46.46,0,0,1,1.85,14.17ZM1.57,14a.34.34,0,0,0,.11.3c.07,0,.1,0,.1-.19s0-.26-.11-.3S1.56,13.85,1.57,14Z" transform="translate(0.58)"/><polygon class="cls-46" points="2.98 14.41 5.67 15.97 5.67 15.78 2.98 14.22 2.98 14.41"/><polygon class="cls-46" points="3.01 14.78 4.22 15.49 4.23 15.3 3.01 14.59 3.01 14.78"/><polygon class="cls-47" points="29.55 3.71 23.17 0 0.76 11.78 7.14 15.49 29.55 3.71"/><polygon class="cls-48" points="1.56 19.71 1.59 18.94 2.77 19.6 2.74 20.41 1.56 19.71"/><polygon class="cls-30" points="5.87 22.17 5.9 20.55 6.58 20.96 6.55 22.59 5.87 22.17"/><g class="cls-49"><path class="cls-50" d="M6.46,20.06c2.43.56,12.09-3.08,15.76-5.47,2-1.32,6.36-7.2,6.11-8.61s-2.17-1.47-2.17-1.47L5.75,14.59Z" transform="translate(0.58)"/><path class="cls-51" d="M25.28,5c1.56.66,1.91,2.4,1.16,3.93a12.41,12.41,0,0,1-5.1,5.79C19.2,16,9.8,19.79,8,17.68c-1.42-1.68-.15-4-.15-4l1.94-.59s-1.16,2.48-.1,3.41,8.23-.4,11.84-2.2c2.09-1,4.77-4.64,5-6.33A3.88,3.88,0,0,0,25.28,5Z" transform="translate(0.58)"/></g><polygon class="cls-30" points="0.86 19.31 0.89 17.89 1.43 18.23 1.4 19.6 0.86 19.31"/><path class="cls-8" d="M28.54,7.63l.6.35c.07,0,.13,0,.14-.07l0-1.26h.08l0,1.31c0,.13-.1.18-.21.11l-.61-.35Z" transform="translate(0.58)"/><path class="cls-7" d="M28.79,6.18A.15.15,0,0,1,28.86,6H29a.19.19,0,0,1,.16,0l.47.27a.52.52,0,0,1,.22.39l0,1.25a.15.15,0,0,1-.07.14h-.14a.19.19,0,0,1-.16,0L29,7.82a.52.52,0,0,1-.22-.39Z" transform="translate(0.58)"/><path class="cls-8" d="M29.28,6.07a.26.26,0,0,0-.12-.23l-.6-.35V5.42l.6.34a.46.46,0,0,1,.2.35v0l-.07,0Z" transform="translate(0.58)"/><polygon class="cls-8" points="29.14 5.42 29.08 5.45 29.41 5.65 29.75 5.89 29.84 6.04 29.87 6.18 29.93 6.14 29.91 6.04 29.85 5.9 29.76 5.83 29.14 5.42"/><path class="cls-9" d="M29.22,6.1a.26.26,0,0,0-.13-.22l-.59-.35V5.45l.59.35a.41.41,0,0,1,.2.34v0l-.07,0Z" transform="translate(0.58)"/><path class="cls-8" d="M28.54,7.63l-.09,0,.4.27.29.12,0,.07h0l.1,0s0,0,0,0h-.07l-.09,0Z" transform="translate(0.58)"/><path class="cls-8" d="M28.54,7.63l-.09,0,.4.27.29.12,0,.07h0l.1,0s0,0,0,0h-.07l-.09,0Z" transform="translate(0.58)"/><path class="cls-9" d="M28.45,7.67l.61.35c.07.05.13,0,.13-.07l0-1.26h.07l0,1.31c0,.13-.09.18-.2.11l-.61-.35Z" transform="translate(0.58)"/><path class="cls-10" d="M29,7.82l.47.27c.12.07.23,0,.23-.12l0-1.25a.52.52,0,0,0-.22-.39L29,6.06c-.13-.07-.23,0-.23.12l0,1.25A.52.52,0,0,0,29,7.82Z" transform="translate(0.58)"/><path class="cls-52" d="M.73,19.22c0,.11-.09.16-.2.1A.42.42,0,0,1,.35,19c0-.12.09-.17.19-.1A.39.39,0,0,1,.73,19.22Z" transform="translate(0.58)"/><path class="cls-53" d="M.73,18.75c0,.12-.09.17-.2.11a.44.44,0,0,1-.18-.33c0-.11.09-.16.19-.1A.41.41,0,0,1,.73,18.75Z" transform="translate(0.58)"/><path class="cls-52" d="M5.86,22.05c0,.14-.11.2-.24.12a.46.46,0,0,1-.22-.39c0-.15.11-.2.23-.13A.51.51,0,0,1,5.86,22.05Z" transform="translate(0.58)"/><path class="cls-53" d="M5.86,21.48c0,.14-.11.2-.24.12a.46.46,0,0,1-.22-.39c0-.14.11-.2.23-.12A.49.49,0,0,1,5.86,21.48Z" transform="translate(0.58)"/><polygon class="cls-50" points="0.89 17.3 0.89 17.24 6.58 20.53 6.58 20.58 0.89 17.3"/><path class="cls-54" d="M8.83,9.56,6.61,10.69a2,2,0,0,1,.66-1.36,7.05,7.05,0,0,1,1.58-1Z" transform="translate(0.58)"/><polygon class="cls-54" points="9.19 11.84 7.19 10.69 9.44 8.32 11.44 9.47 9.19 11.84"/><path class="cls-50" d="M10.83,10.71,8.61,11.84a2,2,0,0,1,.66-1.37,6.83,6.83,0,0,1,1.58-1Z" transform="translate(0.58)"/><path class="cls-54" d="M21.73,2.87l-2.1,1.07a1.89,1.89,0,0,1,.62-1.29,6.75,6.75,0,0,1,1.51-1Z" transform="translate(0.58)"/><polygon class="cls-54" points="22.11 5.03 20.21 3.94 22.34 1.69 24.24 2.78 22.11 5.03"/><path class="cls-50" d="M23.63,4,21.53,5a1.89,1.89,0,0,1,.62-1.29,6.75,6.75,0,0,1,1.51-1Z" transform="translate(0.58)"/><polygon class="cls-44" points="28.19 9.24 9.29 19.68 9.37 15.57 28.27 5.45 28.19 9.24"/><polygon class="cls-55" points="9.57 15.7 28.05 5.8 27.98 9.12 9.5 19.33 9.57 15.7"/><polygon class="cls-44" points="9.5 16.57 28.23 6.56 28.23 6.43 9.5 16.45 9.5 16.57"/><rect class="cls-44" x="23.61" y="7.96" width="0.07" height="3.78"/><rect class="cls-44" x="18.83" y="10.57" width="0.07" height="3.78"/><rect class="cls-44" x="13.83" y="13.31" width="0.07" height="3.78"/></g></g></g></svg>