<svg xmlns="http://www.w3.org/2000/svg" viewBox="0 0 22.55 18.85"><defs><style>.cls-1{fill:#e6e6e6;}.cls-2{fill:#fff;}.cls-3{fill:#fef3e6;}.cls-4{fill:#ccc;}.cls-5{fill:#1e88ca;}</style></defs><title>img_jet</title><g id="レイヤー_2" data-name="レイヤー 2"><g id="billding"><polygon class="cls-1" points="5.23 11.65 5.23 11.34 0.63 5.31 0.63 5.63 5.23 11.65"/><polygon class="cls-2" points="2.2 4.32 0.63 5.31 5.23 11.34 9.88 8.7 2.2 4.32"/><polygon class="cls-1" points="13.82 5.26 13.82 5.02 12.55 3.37 12.55 3.61 13.82 5.26"/><polygon class="cls-2" points="13.82 5.02 16.02 3.79 13.52 2.76 12.55 3.37 13.82 5.02"/><polygon class="cls-3" points="3.06 10.24 3.06 14.57 7.46 17.08 7.46 12.75 3.06 10.24"/><polygon class="cls-4" points="15.75 7.95 15.75 7.95 8.45 12.18 8.45 12.18 8.41 12.2 7.46 12.75 7.46 12.78 4.4 18.85 7.68 16.95 17.32 11.36 20.39 7.07 20.39 5.27 15.75 7.95"/><polygon class="cls-2" points="20.39 5.27 16.02 2.78 11.4 5.46 3.06 10.24 3.09 10.26 3.06 10.27 7.46 12.78 15.76 7.95 20.39 5.27"/><polygon class="cls-1" points="3.06 10.27 0 16.34 4.4 18.85 7.46 12.78 3.06 10.27"/><polygon class="cls-1" points="10.03 14.9 10.03 14.58 20.89 16.99 20.89 17.3 10.03 14.9"/><polygon class="cls-4" points="20.89 16.99 20.89 17.3 22.55 16.25 22.55 15.94 20.89 16.99"/><polygon class="cls-2" points="15.16 11.71 10.03 14.58 20.89 16.99 22.55 15.94 15.16 11.71"/><polygon class="cls-5" points="5.56 15.14 6.53 13.23 3.23 11.35 2.27 13.26 5.56 15.14"/><polygon class="cls-4" points="15.63 5.89 18.57 4.24 18.57 0 16.79 1.12 15.63 5.89"/><polygon class="cls-2" points="15.63 5.89 14.98 5.54 16.79 1.12 15.63 5.89"/><polygon class="cls-1" points="18.16 7.72 18.16 7.48 21.38 8.02 21.38 8.25 18.16 7.72"/><polygon class="cls-2" points="18.16 7.48 20.36 6.25 22.36 7.4 21.38 8.02 18.16 7.48"/><polygon class="cls-4" points="21.38 8.02 21.38 8.25 22.36 7.64 22.36 7.4 21.38 8.02"/><polygon class="cls-5" points="8.7 12.91 7.76 13.46 7.76 14.42 8.7 13.87 8.7 12.91"/><polygon class="cls-5" points="10.27 12 9.33 12.55 9.33 13.51 10.27 12.96 10.27 12"/><polygon class="cls-5" points="11.83 11.09 10.89 11.64 10.89 12.59 11.83 12.04 11.83 11.09"/><polygon class="cls-5" points="13.4 10.18 12.46 10.72 12.46 11.68 13.4 11.13 13.4 10.18"/><polygon class="cls-5" points="14.97 9.26 14.03 9.81 14.03 10.77 14.97 10.22 14.97 9.26"/><polygon class="cls-5" points="16.53 8.35 15.6 8.9 15.6 9.86 16.53 9.31 16.53 8.35"/></g></g></svg>