<svg xmlns="http://www.w3.org/2000/svg" xmlns:xlink="http://www.w3.org/1999/xlink" viewBox="0 0 49.07 36.7"><defs><style>.cls-1{fill:#e9ac55;}.cls-2{fill:#fadaa0;}.cls-3{fill:#f6be5f;}.cls-4{fill:#f8ce8b;}.cls-5{fill:#fff9f1;}.cls-6{fill:#d4cdc8;}.cls-7{fill:#feefdb;}.cls-8{fill:#6e6a67;}.cls-9{fill:#e6e6e5;}.cls-10{fill:#fff;}.cls-11{fill:#e7d8c5;}.cls-12{fill:#f9cb9a;}.cls-13{fill:#fce3c0;}.cls-14{fill:#d4cdc7;}.cls-15{fill:#e8cea9;}.cls-16{fill:url(#Degradado_sin_nombre_21);}.cls-17{fill:url(#Degradado_sin_nombre_21-2);}</style><linearGradient id="Degradado_sin_nombre_21" x1="1681.08" y1="149.09" x2="1695.51" y2="137.35" gradientTransform="matrix(-1, 0, 0, 1, 1867.5, 0)" gradientUnits="userSpaceOnUse"><stop offset="0" stop-color="#fce0c0"/><stop offset="0.35" stop-color="#747397"/><stop offset="0.56" stop-color="#747397"/><stop offset="0.83" stop-color="#fce0c0"/></linearGradient><linearGradient id="Degradado_sin_nombre_21-2" x1="1681.1" y1="149.06" x2="1695.53" y2="137.33" xlink:href="#Degradado_sin_nombre_21"/></defs><title>img_jet2</title><g id="レイヤー_2" data-name="レイヤー 2"><g id="tree"><polygon class="cls-1" points="12.21 12.81 12.21 12.39 14.47 9.47 14.47 9.88 12.21 12.81"/><polygon class="cls-2" points="12.21 12.39 8.3 10.21 12.74 8.38 14.47 9.47 12.21 12.39"/><path class="cls-3" d="M5.84,11.58A2.64,2.64,0,0,1,7.53,9.3a1.39,1.39,0,0,1,1.12,0L39.7,22.58l-7.1,9.68L6.3,12.57h0A1.18,1.18,0,0,1,5.84,11.58Z"/><path class="cls-4" d="M33.54,31l-1.13,1.14L6.3,12.57h0a1.18,1.18,0,0,1-.46-1s0,0,0-.06L35.61,28.15Z"/><path class="cls-5" d="M9.78,17.66a.9.9,0,0,1-1.32.86,2.06,2.06,0,0,1-1.32-1.79.9.9,0,0,1,1.32-.85A2.05,2.05,0,0,1,9.78,17.66Z"/><path class="cls-6" d="M41.37,25.74c0-2.79-2.26-4.25-5-3.27a7.9,7.9,0,0,0-5.06,6.84c0,2.8,2.27,4.26,5.06,3.27A7.87,7.87,0,0,0,41.37,25.74Z"/><polygon class="cls-2" points="12.05 12.62 6.84 9.7 6.83 2.17 9.99 4.16 12.05 12.62"/><polygon class="cls-1" points="12.05 12.62 13.21 12 9.99 4.16 12.05 12.62"/><polygon class="cls-1" points="9.76 14.12 9.76 13.71 4.04 14.66 4.04 15.08 9.76 14.12"/><polygon class="cls-2" points="9.75 13.71 5.84 11.52 2.3 13.57 4.03 14.66 9.75 13.71"/><polygon class="cls-7" points="4.03 14.66 4.03 15.08 2.3 13.98 2.3 13.57 4.03 14.66"/><path class="cls-8" d="M38.41,27.14A1.21,1.21,0,0,0,36.65,26a2.75,2.75,0,0,0-1.76,2.38,1.21,1.21,0,0,0,1.76,1.15A2.76,2.76,0,0,0,38.41,27.14Z"/><polygon class="cls-8" points="38.81 26.6 37.8 26.03 35.41 29.46 36.46 30.06 38.81 26.6"/><path class="cls-9" d="M39.39,27.7a1.2,1.2,0,0,0-1.76-1.13A2.72,2.72,0,0,0,35.86,29a1.21,1.21,0,0,0,1.77,1.14A2.76,2.76,0,0,0,39.39,27.7Z"/><polygon class="cls-10" points="20.22 18.18 20.22 14.47 27.39 18.54 29.64 23.55 20.22 18.18"/><path class="cls-11" d="M32.94,21a7.27,7.27,0,0,0-3.31,2.54l-2.24-5,4.83-2.82,2.24,5A4.79,4.79,0,0,0,32.94,21Z"/><path class="cls-9" d="M27.39,18.54l2.24,5A7.27,7.27,0,0,1,32.94,21a4.79,4.79,0,0,1,1.52-.29l-2.24-5Zm.72.24L32,16.52l1.67,3.72a4.76,4.76,0,0,0-.88.23,7.6,7.6,0,0,0-3,2Z"/><path class="cls-11" d="M42.89,0l4.65,2.64c2,1.17,2,3.08,0,4.25L12,27.45a8.18,8.18,0,0,1-7.37,0L0,24.83Z"/><path class="cls-12" d="M42.89,0l4.65,1.77c2,1.17,2,3.08,0,4.26L12,26.58a8.15,8.15,0,0,1-7.37,0L0,24.82Z"/><path class="cls-13" d="M0,24.82l4.66,1.76a7.44,7.44,0,0,0,3.67.88,7.61,7.61,0,0,0,3.7-.88L47.55,6c2-1.18,2-3.09,0-4.26L42.89,0Zm2.27-.19L43,1.08l4.14,1.58a1.64,1.64,0,0,1,1,1.24c0,.43-.37.9-1,1.28L11.54,25.73a6.57,6.57,0,0,1-3.21.75,6.68,6.68,0,0,1-3.19-.74l-.06,0-.07,0Z"/><path class="cls-5" d="M26.16,31.09a1.44,1.44,0,0,1-2.11,1.37,3.3,3.3,0,0,1-2.12-2.87,1.45,1.45,0,0,1,2.12-1.37A3.3,3.3,0,0,1,26.16,31.09Z"/><path class="cls-14" d="M25.21,30.76a.8.8,0,0,1-1.16.75,1.8,1.8,0,0,1-1.16-1.58.79.79,0,0,1,1.16-.75A1.82,1.82,0,0,1,25.21,30.76Z"/><path class="cls-14" d="M9.24,17.47a.53.53,0,0,1-.78.51,1.2,1.2,0,0,1-.78-1.06c0-.43.34-.65.78-.51A1.23,1.23,0,0,1,9.24,17.47Z"/><path class="cls-9" d="M31.26,29.31a3.29,3.29,0,0,0,3.38,3.58,5,5,0,0,0,1.68-.31,7.87,7.87,0,0,0,5-6.84A3.28,3.28,0,0,0,38,22.17a5.24,5.24,0,0,0-1.68.3A7.9,7.9,0,0,0,31.26,29.31Zm1,0a6.12,6.12,0,0,1,1.29-3.53,6.74,6.74,0,0,1,3.13-2.4A4,4,0,0,1,38,23.13h0a2.33,2.33,0,0,1,2.41,2.61,6,6,0,0,1-1.29,3.53A6.79,6.79,0,0,1,36,31.68a4.05,4.05,0,0,1-1.36.25A2.34,2.34,0,0,1,32.22,29.31Z"/><path class="cls-15" d="M38.78,26.18l0,0a26.15,26.15,0,0,1,3.74-2.57c2.88-1.66,5.22-2.42,5.22-1.68s-2.34,2.69-5.22,4.35a24.74,24.74,0,0,1-2.65,1.35A1.39,1.39,0,0,0,38.78,26.18Z"/><path class="cls-15" d="M31.84,29.72A23.44,23.44,0,0,1,35,28.18a2.78,2.78,0,0,0-.07.57,1.48,1.48,0,0,0,.52,1.2,27.6,27.6,0,0,1-3.6,2.45c-2.89,1.67-5.23,2.42-5.23,1.68S29,31.39,31.84,29.72Z"/><path class="cls-16" d="M28.38,30.58a6,6,0,0,0,2.35,5.1,5.83,5.83,0,0,0,3.4,1A8.64,8.64,0,0,0,37,36.18c4.72-1.67,8.56-6.85,8.56-11.58a6,6,0,0,0-2.36-5.09,6.78,6.78,0,0,0-6.27-.5C32.21,20.67,28.38,25.87,28.38,30.58Zm.21,0c0-4.63,3.77-9.73,8.41-11.37a8.53,8.53,0,0,1,2.8-.51,5.62,5.62,0,0,1,3.28,1,5.8,5.8,0,0,1,2.27,4.92c0,4.64-3.78,9.75-8.42,11.38a6.49,6.49,0,0,1-6.07-.48A5.75,5.75,0,0,1,28.59,30.58Z"/><path class="cls-17" d="M30.24,29.93a4.7,4.7,0,0,0,1.85,4,4.48,4.48,0,0,0,2.66.81A6.93,6.93,0,0,0,37,34.32C40.69,33,43.7,29,43.7,25.26a4.73,4.73,0,0,0-1.85-4,5.32,5.32,0,0,0-4.92-.39C33.24,22.18,30.24,26.23,30.24,29.93Zm.21,0c0-3.61,2.94-7.59,6.55-8.86a6.82,6.82,0,0,1,2.18-.4,4.34,4.34,0,0,1,2.55.77,4.5,4.5,0,0,1,1.76,3.82c0,3.61-2.94,7.59-6.56,8.86a5.06,5.06,0,0,1-4.72-.37A4.48,4.48,0,0,1,30.45,29.93Z"/></g></g></svg>