<svg xmlns="http://www.w3.org/2000/svg" viewBox="0 0 60.32 59.06"><defs><style>.cls-1{fill:#242a8b;fill-rule:evenodd;}</style></defs><title>ttl_main-visual13</title><g id="レイヤー_2" data-name="レイヤー 2"><g id="レイヤー_14" data-name="レイヤー 14"><path id="ttl_main-visual.svg" data-name="ttl main-visual.svg" class="cls-1" d="M0,48.15l1.54,8.47C14.2,55.29,33,53.19,48.42,51a82.88,82.88,0,0,1,3.92,8l8-4.2A210.93,210.93,0,0,0,41.84,26.31l-7.06,3.92a131.11,131.11,0,0,1,9.44,13.5C35.69,44.85,25.33,46,16,46.88c5.67-14.62,10.78-29.81,15-44.78L22.32,0A393,393,0,0,1,6.93,47.72c-2.52.15-4.83.36-6.93.43Z"/></g></g></svg>