<svg xmlns="http://www.w3.org/2000/svg" viewBox="0 0 64.58 60.67"><defs><style>.cls-1{fill:#242a8b;fill-rule:evenodd;}</style></defs><title>ttl_main-visual8</title><g id="レイヤー_2" data-name="レイヤー 2"><g id="レイヤー_9" data-name="レイヤー 9"><path class="cls-1" d="M61.5,14H36.73V0h-8.4V14H3.42v7.63H28.33v27.5c0,2.73-.84,3.71-3.64,3.71a50.17,50.17,0,0,1-6.93-.42v7.76c3.29.35,6.72.49,9.1.49,6.86,0,9.87-2.94,9.87-10.56V21.62H61.5Z"/><path class="cls-1" d="M43.24,32.54A93.17,93.17,0,0,1,57.3,52.48l7.28-4.13A129.84,129.84,0,0,0,50,28.55Z"/><path class="cls-1" d="M14.2,29.18C11.47,35.76,5.52,43.6,0,48.63l6.44,4.62A77.91,77.91,0,0,0,21.62,32.12Z"/></g></g></svg>