<svg class="svg-inline--fa fa-search fa-w-16 fa-inverse" data-fa-transform="shrink-8" aria-hidden="true" data-prefix="fas" data-icon="search" role="img" xmlns="http://www.w3.org/2000/svg" viewBox="0 0 512 512" data-fa-i2svg="" style="transform-origin: 0.5em 0.5em;"><path fill="#fff" d="M256 8C119 8 8 119 8 256s111 248 248 248 248-111 248-248S393 8 256 8z"></path><g transform="translate(256 256)"><g transform="translate(0, 0)  scale(0.5, 0.5)  rotate(0 0 0)"><path fill="#00a23f" d="M256 0c88.366 0 160 71.634 160 160s-71.634 160-160 160S96 248.366 96 160 167.634 0 256 0zm183.283 333.821l-71.313-17.828c-74.923 53.89-165.738 41.864-223.94 0l-71.313 17.828C29.981 344.505 0 382.903 0 426.955V464c0 26.51 21.49 48 48 48h416c26.51 0 48-21.49 48-48v-37.045c0-44.052-29.981-82.45-72.717-93.134z" transform="translate(-256 -256)"></path></g></g></svg>