<svg class="svg-inline--fa fa-search fa-w-16 fa-inverse" data-fa-transform="shrink-8" aria-hidden="true" data-prefix="fas" data-icon="search" role="img" xmlns="http://www.w3.org/2000/svg" viewBox="0 0 512 512" data-fa-i2svg="" style="transform-origin: 0.5em 0.5em;"><path fill="#fff" d="M256 8C119 8 8 119 8 256s111 248 248 248 248-111 248-248S393 8 256 8z"></path><g transform="translate(256 256)"><g transform="translate(0, 0)  scale(0.5, 0.5)  rotate(0 0 0)"><path fill="#00a23f" d="M416 448h-84c-6.6 0-12-5.4-12-12v-40c0-6.6 5.4-12 12-12h84c17.7 0 32-14.3 32-32V160c0-17.7-14.3-32-32-32h-84c-6.6 0-12-5.4-12-12V76c0-6.6 5.4-12 12-12h84c53 0 96 43 96 96v192c0 53-43 96-96 96zm-47-201L201 79c-15-15-41-4.5-41 17v96H24c-13.3 0-24 10.7-24 24v96c0 13.3 10.7 24 24 24h136v96c0 21.5 26 32 41 17l168-168c9.3-9.4 9.3-24.6 0-34z" transform="translate(-256 -256)"></path></g></g></svg>