<?xml version="1.0" standalone="no"?><!DOCTYPE svg PUBLIC "-//W3C//DTD SVG 1.1//EN" "http://www.w3.org/Graphics/SVG/1.1/DTD/svg11.dtd"><svg class="icon" width="200px" height="119.91px" viewBox="0 0 1708 1024" version="1.1" xmlns="http://www.w3.org/2000/svg"><path d="M1139.647865 316.341401C648.738975 111.788652 34.040481 683.571351 52.278034 905.36567a29.481093 29.481093 0 0 0 20.096721 25.386496c157.298894 53.119086 1040.049578 51.72471 1126.94355-8.211325 36.784967-25.364364 97.739119-102.431305 131.735334-196.009429 50.308201-138.397353 41.654217-313.070615-191.405774-410.190011z" fill="#C7E4C8" /><path d="M588.293881 977.961754c-227.239025 0-481.524518-11.752598-561.734338-38.821199A38.290008 38.290008 0 0 1 0.464792 906.096057c-4.426591-53.517479 26.072618-127.463674 85.765192-208.248951s144.660978-163.097728 239.456414-232.086142c118.699025-86.318515 246.804555-148.290783 370.505627-179.033454 146.431615-36.408707 282.327944-29.193365 403.88212 21.446831 108.451468 45.217622 178.170269 110.797561 206.943108 194.902781 22.730542 66.398858 19.056472 144.771643-10.623818 226.464372-33.73062 92.958401-94.75117 172.504233-135.011011 200.281088-48.935958 33.774886-312.074632 46.966126-542.058143 48.072773-10.313956 0.044266-20.694311 0.066399-31.0304 0.066399z m284.563373-696.723216c-232.639465 0-442.327059 130.119629-536.790501 198.842446C146.232418 618.190609 9.539303 800.721069 18.060489 904.635282a20.627912 20.627912 0 0 0 14.120824 17.706362c81.891925 27.666191 353.861647 38.953997 586.988037 37.825216 281.265562-1.35011 495.092018-19.410599 532.098315-44.929894 32.557573-22.464947 93.954384-96.809535 128.371125-191.759901 37.869482-104.201941 63.986366-294.611733-186.492259-398.990738a568.04223 568.04223 0 0 0-220.289277-43.247789z" fill="#333333" /><path d="M1466.972101 743.330323a123.678939 123.678939 0 0 1-63.078915-17.108772q-4.249527-2.478891-8.122793-5.311909c-50.086872 21.646028-106.238173 14.762679-108.960526 14.386419l2.213295-17.551431-1.150913 8.853181 1.12878-8.853181c0.59759 0 48.006374 5.843099 91.829621-10.026228-29.724555-32.070648-37.050563-80.718878-25.253699-116.906255 11.442737-35.058597 43.867512-45.195489 69.165477-39.839315s50.905791 28.064584 46.966125 64.849551c-3.983931 37.116962-19.255669 66.398858-45.438952 87.02677a126.423426 126.423426 0 0 1-12.438719 8.653984c29.879486 17.108772 65.579939 18.635946 100.660669 4.27166 47.408785-19.388467 86.849706-64.650355 100.483605-115.29055l17.086639 4.603654c-15.006142 55.775041-58.519527 105.662716-110.86396 127.087414a143.333001 143.333001 0 0 1-54.225734 11.155008z m-55.332381-176.001239c-15.913593 0-32.336244 8.388389-39.042529 28.972035-10.402488 31.849319-2.722353 76.91201 25.807023 103.737149a112.369001 112.369001 0 0 0 17.153038-11.066476c22.132953-17.551431 35.279927-42.782997 38.732668-74.942178 2.788752-26.050485-14.607749-41.67635-33.066632-45.638148a46.191472 46.191472 0 0 0-9.583568-1.062382zM207.607096 958.949548l-16.821044-5.62177c20.472981-59.958169 8.853181-117.481713-34.350343-170.999192a294.810929 294.810929 0 0 0-73.038743-63.853569l8.853181-15.493066a307.271782 307.271782 0 0 1 77.686663 67.660436c46.877594 57.833405 59.913903 122.926419 37.670286 188.307161z" fill="#333333" /><path d="M302.247601 621.001494m-48.006374 0a48.006374 48.006374 0 1 0 96.012749 0 48.006374 48.006374 0 1 0-96.012749 0Z" fill="#FFFFFF" /><path d="M599.360358 855.942786a8.853181 8.853181 0 0 1-6.97188-14.297887c46.811195-60.113099 62.370661-110.354902 46.257871-149.375298-27.223532-65.8898-136.936578-80.497549-138.043226-80.630346a8.855394 8.855394 0 0 1 2.213295-17.573564c4.913515 0.619723 120.978719 16.002125 152.16405 91.409094 18.746611 45.328287 2.390359 101.523854-48.692496 167.059527a8.853181 8.853181 0 0 1-6.927614 3.408474z" fill="#FFFFFF" /><path d="M280.64584 677.861049a56.859555 56.859555 0 1 1 56.859555-56.859555 56.925954 56.925954 0 0 1-56.859555 56.859555z m0-96.012748a39.153193 39.153193 0 1 0 39.153193 39.153193 39.197459 39.197459 0 0 0-39.153193-39.153193zM565.386275 863.290927l-13.965893-10.889413c46.811195-60.113099 62.370661-110.354902 46.257871-149.375298-27.223532-65.8898-136.936578-80.497549-138.043225-80.630346l2.213295-17.573564c4.913515 0.619723 120.978719 16.002125 152.164049 91.409094 18.768744 45.328287 2.390359 101.523854-48.626097 167.059527z" fill="#333333" /><path d="M682.403196 86.048029l121.797638 0 0 285.293759-121.797638 0 0-285.293759Z" fill="#B5E2B5" /><path d="M756.105928 380.084304h-68.612153a35.412724 35.412724 0 0 1-35.412724-35.412724V112.585439a35.412724 35.412724 0 0 1 35.412724-35.412725h68.612153a35.412724 35.412724 0 0 1 35.412725 35.412725v232.086141a35.412724 35.412724 0 0 1-35.412725 35.412724z m-68.612153-285.293759a17.706362 17.706362 0 0 0-17.706362 17.706362v232.174673a17.706362 17.706362 0 0 0 17.706362 17.706362h68.612153a17.706362 17.706362 0 0 0 17.706362-17.706362V112.585439a17.706362 17.706362 0 0 0-17.706362-17.706362z" fill="#333333" /><path d="M613.146777 162.466623a138.950677 74.145391 19.14 1 0 48.621214-140.093304 138.950677 74.145391 19.14 1 0-48.621214 140.093304Z" fill="#B5E2B5" /><path d="M733.116113 140.608929a74.145391 142.846076 70.86 1 0 269.899159-93.672034 74.145391 142.846076 70.86 1 0-269.899159 93.672034Z" fill="#B5E2B5" /><path d="M651.92612 184.893795a242.001704 242.001704 0 0 1-78.239987-14.010159c-36.408707-12.637916-68.125228-32.203446-89.284331-55.088919-22.531346-24.346248-30.742671-49.865542-23.128936-71.799299s29.857353-36.873499 62.636256-42.05261c30.786937-4.847117 67.815367-0.553324 104.224074 12.084593 78.306386 27.179266 127.685004 82.910041 112.413267 126.888217-7.613736 21.933756-29.857353 36.873499-62.636256 42.05261a169.604816 169.604816 0 0 1-25.984087 1.925567zM549.98174 17.701471a149.153968 149.153968 0 0 0-23.328132 1.748503c-26.006219 4.094596-43.292055 14.873344-48.692496 30.344278s1.505041 34.638071 19.388467 53.960139c19.233536 20.804975 48.382634 38.688401 82.113254 50.396733s67.682569 15.714396 95.658622 11.309939c26.006219-4.072463 43.292055-14.851211 48.692495-30.344278 11.6198-33.420758-34.8594-81.227936-101.479587-104.334739a224.251076 224.251076 0 0 0-72.352623-13.080575z" fill="#333333" /><path d="M776.800239 186.95216c-44.531501 0-78.815444-15.271737-88.531811-43.469119-15.271737-43.978177 35.722586-100.262275 116.087337-128.171929 37.360424-12.96991 75.252039-17.573564 106.725098-12.992043 33.50929 4.891383 56.173434 19.676195 63.809302 41.676349s-0.97385 47.630114-24.346248 72.241958c-21.867357 23.08467-54.469196 42.937928-91.82962 55.907838a253.200978 253.200978 0 0 1-81.914058 14.806946zM704.912409 137.684207c11.6198 33.420758 79.390901 41.565685 148.003054 17.706362 34.726603-12.062459 64.849551-30.300012 84.791342-51.370583 18.503148-19.56553 25.740624-38.821199 20.384449-54.27S935.117249 23.743767 908.469174 19.848367c-28.772838-4.183128-63.654372 0.154931-98.380974 12.195257-68.612153 23.815057-116.773458 72.197692-105.175791 105.640583z" fill="#333333" /><path d="M605.247723 86.048029m-32.557573 0a32.557573 32.557573 0 1 0 65.115146 0 32.557573 32.557573 0 1 0-65.115146 0Z" fill="#FFFFFF" /><path d="M875.203347 86.048029m-32.557574 0a32.557573 32.557573 0 1 0 65.115147 0 32.557573 32.557573 0 1 0-65.115147 0Z" fill="#FFFFFF" /><path d="M583.734493 127.458783a41.432887 41.432887 0 1 1 41.410755-41.432887 41.477153 41.477153 0 0 1-41.410755 41.432887z m0-65.13728a23.726525 23.726525 0 1 0 23.704392 23.704393 23.748658 23.748658 0 0 0-23.704392-23.704393zM853.690117 127.458783a41.432887 41.432887 0 1 1 41.432887-41.432887 41.477153 41.477153 0 0 1-41.432887 41.432887z m0-65.13728a23.726525 23.726525 0 1 0 23.726525 23.704393 23.726525 23.726525 0 0 0-23.726525-23.704393z" fill="#333333" /></svg>