<?xml version="1.0" encoding="utf-8"?>
<!-- Generator: Adobe Illustrator 21.0.0, SVG Export Plug-In . SVG Version: 6.00 Build 0)  -->
<svg version="1.1" id="Layer_1" xmlns="http://www.w3.org/2000/svg" xmlns:xlink="http://www.w3.org/1999/xlink" x="0px" y="0px"
	 viewBox="0 0 200 200" style="enable-background:new 0 0 200 200;" xml:space="preserve">
<style type="text/css">
	.st0{fill:#F2385A;}
</style>
<path d="M171.2,117.8"/>
<path class="st0" d="M85.6,30l-3.4,0.6C63.1,35,49.4,30,42.5,26.3v70.6c9.7,9.1,28.1,10,56.6,3.4c26.9-6.2,55.3,3.4,65.9,7.8h0.3
	V32.2C130.3,20,108.4,25,85.6,30z"/>
<path d="M169.1,27.2c-37.8-13.7-61.9-8.4-85-3.1l-3.4,0.6c-17.6,3.8-30-0.9-35.8-4.1c3.3-1.9,5.5-5.4,5.5-9.5C50.3,5,45.3,0,39.2,0
	S28.1,5,28.1,11.1c0,5,3.3,9.1,7.8,10.5V200h6.2v-95.3c11.9,7.5,31.2,7.8,58.1,1.6c30.9-7.2,65.9,9.1,66.3,9.1l4.4,2.2V27.8
	L169.1,27.2L169.1,27.2z M165.3,108.1H165c-10.6-4.4-39.1-14.1-65.9-7.8c-28.4,6.6-46.9,5.6-56.6-3.4V26.2
	c6.9,3.8,20.6,8.8,39.7,4.4l3.4-0.6c22.8-5,44.7-10,79.7,2.2V108.1L165.3,108.1z"/>
<path class="st0" d="M34.6,11.1c0,2.6,2.1,4.7,4.7,4.7c2.6,0,4.7-2.1,4.7-4.7s-2.1-4.7-4.7-4.7C36.6,6.4,34.6,8.5,34.6,11.1z"/>
</svg>
