<?xml version="1.0" standalone="no"?><!DOCTYPE svg PUBLIC "-//W3C//DTD SVG 1.1//EN" "http://www.w3.org/Graphics/SVG/1.1/DTD/svg11.dtd"><svg class="icon" width="200px" height="200.00px" viewBox="0 0 1024 1024" version="1.1" xmlns="http://www.w3.org/2000/svg"><path d="M792.5 693.4h-560c-22.1 0-40-17.9-40-40v-380c0-22.1 17.9-40 40-40h560c22.1 0 40 17.9 40 40v380c0 22.1-17.9 40-40 40z" fill="#FFC41D" /><path d="M792.5 701.4h-560c-26.5 0-48-21.5-48-48v-380c0-26.5 21.5-48 48-48h560c26.5 0 48 21.5 48 48v380c0 26.5-21.5 48-48 48z m-560-460c-17.6 0-32 14.4-32 32v380c0 17.6 14.4 32 32 32h560c17.6 0 32-14.4 32-32v-380c0-17.6-14.4-32-32-32h-560z" fill="#4F0F00" /><path d="M862.5 699.3h-700c-13.8 0-25 11.2-25 25s11.2 25 25 25h700c13.8 0 25-11.2 25-25s-11.1-25-25-25z" fill="#FC5B5B" /><path d="M862.5 757.3h-700c-18.2 0-33-14.8-33-33s14.8-33 33-33h700c18.2 0 33 14.8 33 33s-14.8 33-33 33z m-700-50c-9.4 0-17 7.6-17 17s7.6 17 17 17h700c9.4 0 17-7.6 17-17s-7.6-17-17-17h-700z" fill="#4F0F00" /><path d="M772.5 649.5h-520c-11 0-20-9-20-20v-330c0-11 9-20 20-20h520c11 0 20 9 20 20v330c0 11-8.9 20-20 20z" fill="#FFE91A" /><path d="M772.5 657.5h-520c-15.4 0-28-12.6-28-28v-330c0-15.4 12.6-28 28-28h520c15.4 0 28 12.6 28 28v330c0 15.4-12.5 28-28 28z m-520-370c-6.6 0-12 5.4-12 12v330c0 6.6 5.4 12 12 12h520c6.6 0 12-5.4 12-12v-330c0-6.6-5.4-12-12-12h-520z" fill="#4F0F00" /><path d="M406.5 695.2h-50c-13.8 0-25-11.2-25-25s11.2-25 25-25h50c13.8 0 25 11.2 25 25s-11.2 25-25 25z" fill="#FFE91A" /><path d="M406.5 703.2h-50c-18.2 0-33-14.8-33-33s14.8-33 33-33h50c18.2 0 33 14.8 33 33s-14.8 33-33 33z m-50-50c-9.4 0-17 7.6-17 17s7.6 17 17 17h50c9.4 0 17-7.6 17-17s-7.6-17-17-17h-50z" fill="#4F0F00" /><path d="M584.7 693.9h-54.8c-6.9 0-12.6-5.6-12.6-12.6v-4.8c0-6.9 5.6-12.6 12.6-12.6h54.8c6.9 0 12.6 5.6 12.6 12.6v4.8c0 6.9-5.7 12.6-12.6 12.6z" fill="#FC5B5B" /><path d="M584.7 701.9h-54.8c-11.3 0-20.6-9.2-20.6-20.6v-4.8c0-11.3 9.2-20.6 20.6-20.6h54.8c11.3 0 20.6 9.2 20.6 20.6v4.8c0 11.3-9.3 20.6-20.6 20.6z m-54.8-30c-2.5 0-4.6 2.1-4.6 4.6v4.8c0 2.5 2.1 4.6 4.6 4.6h54.8c2.5 0 4.6-2.1 4.6-4.6v-4.8c0-2.5-2.1-4.6-4.6-4.6h-54.8z" fill="#4F0F00" /><path d="M492.4 387.6h-210c-11 0-20-9-20-20s9-20 20-20h210c11 0 20 9 20 20s-8.9 20-20 20z" fill="#FC5B5B" /><path d="M492.4 395.6h-210c-15.4 0-28-12.6-28-28s12.6-28 28-28h210c15.4 0 28 12.6 28 28s-12.5 28-28 28z m-210-40c-6.6 0-12 5.4-12 12s5.4 12 12 12h210c6.6 0 12-5.4 12-12s-5.4-12-12-12h-210z" fill="#4F0F00" /><path d="M482.4 502.2h-190c-16.6 0-30-13.4-30-30s13.4-30 30-30h190c16.6 0 30 13.4 30 30 0 16.5-13.4 30-30 30z" fill="#FFC41D" /><path d="M482.4 510.2h-190c-21 0-38-17-38-38s17-38 38-38h190c21 0 38 17 38 38s-17 38-38 38z m-190-60c-12.1 0-22 9.9-22 22s9.9 22 22 22h190c12.1 0 22-9.9 22-22s-9.9-22-22-22h-190z" fill="#4F0F00" /><path d="M692.1 620.7h-100c-16.6 0-30-13.4-30-30v-30c0-16.6 13.4-30 30-30h100c16.6 0 30 13.4 30 30v30c0 16.5-13.4 30-30 30z" fill="#FFC41D" /><path d="M692.1 628.7h-100c-21 0-38-17-38-38v-30c0-21 17-38 38-38h100c21 0 38 17 38 38v30c0 20.9-17 38-38 38z m-100-90c-12.1 0-22 9.9-22 22v30c0 12.1 9.9 22 22 22h100c12.1 0 22-9.9 22-22v-30c0-12.1-9.9-22-22-22h-100z" fill="#4F0F00" /><path d="M796.7 787.7c-2 0-4.1-0.8-5.7-2.3L587.3 581.6c-3.1-3.1-3.1-8.2 0-11.3 3.1-3.1 8.2-3.1 11.3 0l203.8 203.8c3.1 3.1 3.1 8.2 0 11.3-1.6 1.6-3.6 2.3-5.7 2.3z" fill="#4F0F00" /><path d="M703.1 736.8c1.5-8.2 10.5-12.7 18-9.1 10.1 4.7 26.9 11 33.8 4.2 4.8-4.8 2.4-8.4-1.5-10.9-9.9-6.5-3.7-21.9 8-20.1 5.2 0.8 11.8 3.1 20.3 7.5 24 12.5 35.2 18.4 55.3 15.1 14.3-2.4 13.3 30.7 11.6 50.1-0.7 8.1-6.8 14.7-14.9 16-29.6 4.9-99.8 13-120.8-15.9-8.5-11.9-11.6-26.5-9.8-36.9z" fill="#FFE91A" /><path d="M779.3 802.5c-29.7 0-59.2-5.4-72.8-24.1-9.2-12.7-13.7-29.6-11.3-43.1 1.1-6.3 5-11.6 10.8-14.6 5.8-3 12.6-3.2 18.6-0.4 13.4 6.3 20.4 6.8 23.2 6.3-6.7-5.1-9.1-13.7-6-21.7 3.3-8.5 11.9-13.5 20.9-12 6.5 1.1 13.9 3.8 22.7 8.3l0.7 0.4c22.9 11.9 32.3 16.8 49.6 13.9 4.8-0.8 9.5 0.6 13 3.8 2.9 2.7 11.8 11 7.9 54.9-1.1 11.7-9.9 21.3-21.5 23.2-15.5 2.6-35.7 5.1-55.8 5.1z m-63.7-68.1c-0.8 0-1.6 0.2-2.3 0.6-0.7 0.4-2 1.3-2.4 3.2-1.4 7.7 0.7 20.2 8.5 30.9 12.7 17.5 55 22.3 113 12.7 4.4-0.7 7.8-4.4 8.2-8.8 2.6-28.6-0.8-39.3-2.6-41.5-22.4 3.7-35.5-3.2-59.4-15.6l-0.7-0.4c-7.1-3.7-13.1-6-17.9-6.7-2.2-0.4-3.1 1.1-3.4 2-0.6 1.5-0.2 2.6 1.1 3.4 5.8 3.8 7.4 8.2 7.7 11.2 0.3 3-0.3 7.5-4.9 12.1-7.9 7.9-22.3 7-42.8-2.6-0.6-0.3-1.3-0.5-2.1-0.5z m-12.5 2.4z m46.9-8.4z" fill="#4F0F00" /></svg>