<?xml version="1.0" standalone="no"?><!DOCTYPE svg PUBLIC "-//W3C//DTD SVG 1.1//EN" "http://www.w3.org/Graphics/SVG/1.1/DTD/svg11.dtd"><svg class="icon" width="200px" height="200.00px" viewBox="0 0 1024 1024" version="1.1" xmlns="http://www.w3.org/2000/svg"><path d="M498.260198 951.68525H242.507032a44.111997 44.111997 0 0 1-43.870948-44.111997v-159.574549a257.199461 257.199461 0 0 1 256.717362-256.958411h85.813503a256.476313 256.476313 0 0 1 205.37389 102.445896 36.157375 36.157375 0 0 0 57.8518-43.38885 350.726537 350.726537 0 0 0-30.372195-34.952129 329.032112 329.032112 0 0 0-149.450483-85.572455 231.889298 231.889298 0 1 0-245.147003-1.687344A329.514211 329.514211 0 0 0 126.321334 747.998704v159.574549a116.667797 116.667797 0 0 0 116.426747 116.426747h255.512117a36.157375 36.157375 0 0 0 0-72.31475zM503.32223 72.337891a159.815597 159.815597 0 1 1-160.056647 159.815597A159.815597 159.815597 0 0 1 503.32223 72.337891z"  /><path d="M886.108306 777.165654l-110.882616-101.4817a36.157375 36.157375 0 1 0-48.209833 53.271866l41.460456 38.085769h-265.154083a36.157375 36.157375 0 1 0 0 72.314749h271.90346l-49.897178 49.897178a36.157375 36.157375 0 0 0 25.551212 61.708587 36.398424 36.398424 0 0 0 26.274359-9.883016l110.882617-111.123666a35.916326 35.916326 0 0 0 9.641966-26.274359 35.193178 35.193178 0 0 0-11.57036-26.515408z"  /></svg>