<?xml version="1.0" standalone="no"?><!DOCTYPE svg PUBLIC "-//W3C//DTD SVG 1.1//EN" "http://www.w3.org/Graphics/SVG/1.1/DTD/svg11.dtd"><svg class="icon" width="200px" height="192.84px" viewBox="0 0 1062 1024" version="1.1" xmlns="http://www.w3.org/2000/svg"><path d="M1025.804582 474.204034m-36.693166 0a36.693166 36.693166 0 1 0 73.386332 0 36.693166 36.693166 0 1 0-73.386332 0Z" fill="#8BC17D" /><path d="M191.686705 19.449383m-19.449384 0a19.449383 19.449383 0 1 0 38.898767 0 19.449383 19.449383 0 1 0-38.898767 0Z" fill="#8BC17D" /><path d="M256.250636 767.749364m-256.250636 0a256.250636 256.250636 0 1 0 512.501273 0 256.250636 256.250636 0 1 0-512.501273 0Z" fill="#8BC17D" /><path d="M374.952027 767.949873a63.761895 63.761895 0 0 1-62.358332-74.388878l18.246328-107.071862-77.196005-75.792442a63.561386 63.561386 0 0 1 35.089093-108.274917l106.670844-15.63971 47.921676-97.246916a63.160368 63.160368 0 0 1 113.488154 0l47.721167 97.246916 106.871353 15.63971a63.160368 63.160368 0 0 1 51.129822 43.309967 63.561386 63.561386 0 0 1-16.040729 64.96495l-77.396514 75.792442 18.246328 107.071862a63.360877 63.360877 0 0 1-25.063638 62.157822 64.162914 64.162914 0 0 1-66.769532 4.812219l-95.442334-50.528295-95.642843 50.528295A61.756804 61.756804 0 0 1 374.952027 767.949873z m125.117681-465.381633a15.238692 15.238692 0 0 0-13.43411 8.220873l-53.335422 108.876444a23.860584 23.860584 0 0 1-18.246328 13.233601l-119.302918 17.444292a15.038183 15.038183 0 0 0-8.220873 25.665166l86.419424 84.815351a23.860584 23.860584 0 0 1 6.81731 21.253965L360.515371 701.781868a15.238692 15.238692 0 0 0 5.814764 14.837674 14.637165 14.637165 0 0 0 15.63971 1.002545l106.670844-56.343058a23.860584 23.860584 0 0 1 22.657529 0l106.871353 56.343058a14.837674 14.837674 0 0 0 15.439201-1.002545 15.238692 15.238692 0 0 0 6.015273-14.837674l-20.451928-119.703936a24.66262 24.66262 0 0 1 7.017818-21.253965l86.419425-84.815351a15.038183 15.038183 0 0 0-8.220874-25.665166l-119.503426-17.444292a24.462111 24.462111 0 0 1-18.246329-13.233601L513.303309 310.789113a14.837674 14.837674 0 0 0-13.233601-8.220873z" fill="#535453" /><path d="M806.848639 938.78363h-613.557862A121.1075 121.1075 0 0 1 72.183278 817.676131v-613.557862a121.1075 121.1075 0 0 1 121.107499-121.107499h613.557862a121.308009 121.308009 0 0 1 121.1075 121.107499v613.557862a121.308009 121.308009 0 0 1-121.1075 121.107499zM193.290777 131.533973a72.784805 72.784805 0 0 0-72.784805 72.584296v613.557862a72.985314 72.985314 0 0 0 72.784805 72.784805h613.557862a72.784805 72.784805 0 0 0 72.584296-72.784805v-613.557862a72.584296 72.584296 0 0 0-72.584296-72.584296z" fill="#535453" /></svg>