<?xml version="1.0" standalone="no"?><!DOCTYPE svg PUBLIC "-//W3C//DTD SVG 1.1//EN" "http://www.w3.org/Graphics/SVG/1.1/DTD/svg11.dtd"><svg class="icon" width="200px" height="200.00px" viewBox="0 0 1024 1024" version="1.1" xmlns="http://www.w3.org/2000/svg"><path d="M512 64C265 64 64 265 64 512s201 448 448 448 448-201 448-448S759 64 512 64z m0 846.2c-219.6 0-398.2-178.6-398.2-398.2S292.4 113.8 512 113.8 910.2 292.4 910.2 512 731.6 910.2 512 910.2z"  /><path d="M462.7 605.3l-19.4 4.9V301.9h19.9v195.8h307.1V291.3H641.6v-53.4h-49.8v53.4h-123v-39.2H245v49.8h25.5v351.5l-31.5 7.9 12.1 48.3L393.5 674v112.2h49.8V661.5l31.5-7.9-12.1-48.3zM320.2 430.6h73.3v73.3h-73.3v-73.3zM513 419.4h78.9V448H513v-28.6zM641.6 448v-28.5h78.9V448h-78.9z m79-106.9v28.5h-78.9v-28.5h78.9z m-128.7 0v28.5H513v-28.5h78.9z m-198.4-39.2v78.9h-73.3v-78.9h73.3zM320.2 641v-87.3h73.3v69L320.2 641z"  /><path d="M454.5 564.9h66.2l-33.6 100.7h221.6c-1.6 29.1-5.8 47.2-9.5 57.8-3.2 9.2-12 15.5-21.9 15.5H600v49.8h77.3c31.1 0 58.8-19.7 68.9-49 8.6-24.8 12.9-58.1 12.9-99v-24.9h-203l17-50.9H779v-49.8H454.5v49.8z"  /></svg>